<?xml version="1.0" encoding="utf-8" standalone="no"?>
<!DOCTYPE svg PUBLIC "-//W3C//DTD SVG 1.1//EN"
  "http://www.w3.org/Graphics/SVG/1.1/DTD/svg11.dtd">
<svg xmlns:xlink="http://www.w3.org/1999/xlink" width="460.8pt" height="345.6pt" viewBox="0 0 460.8 345.6" xmlns="http://www.w3.org/2000/svg" version="1.1">
 <metadata>
  <rdf:RDF xmlns:dc="http://purl.org/dc/elements/1.1/" xmlns:cc="http://creativecommons.org/ns#" xmlns:rdf="http://www.w3.org/1999/02/22-rdf-syntax-ns#">
   <cc:Work>
    <dc:type rdf:resource="http://purl.org/dc/dcmitype/StillImage"/>
    <dc:date>2022-12-06T12:43:05.877290</dc:date>
    <dc:format>image/svg+xml</dc:format>
    <dc:creator>
     <cc:Agent>
      <dc:title>Matplotlib v3.5.1, https://matplotlib.org/</dc:title>
     </cc:Agent>
    </dc:creator>
   </cc:Work>
  </rdf:RDF>
 </metadata>
 <defs>
  <style type="text/css">*{stroke-linejoin: round; stroke-linecap: butt}</style>
 </defs>
 <g id="figure_1">
  <g id="patch_1">
   <path d="M 0 345.6 
L 460.8 345.6 
L 460.8 0 
L 0 0 
z
" style="fill: #ffffff"/>
  </g>
  <g id="axes_1">
   <g id="patch_2">
    <path d="M 57.6 307.584 
L 414.72 307.584 
L 414.72 41.472 
L 57.6 41.472 
z
" style="fill: #ffffff"/>
   </g>
   <g id="matplotlib.axis_1">
    <g id="xtick_1">
     <g id="line2d_1">
      <defs>
       <path id="m6c38fcd66f" d="M 0 0 
L 0 3.5 
" style="stroke: #000000; stroke-width: 0.8"/>
      </defs>
      <g>
       <use xlink:href="#m6c38fcd66f" x="73.800241" y="307.584" style="stroke: #000000; stroke-width: 0.8"/>
      </g>
     </g>
     <g id="text_1">
      <!-- 0 -->
      <g transform="translate(70.618991 322.182437)scale(0.1 -0.1)">
       <defs>
        <path id="DejaVuSans-30" d="M 2034 4250 
Q 1547 4250 1301 3770 
Q 1056 3291 1056 2328 
Q 1056 1369 1301 889 
Q 1547 409 2034 409 
Q 2525 409 2770 889 
Q 3016 1369 3016 2328 
Q 3016 3291 2770 3770 
Q 2525 4250 2034 4250 
z
M 2034 4750 
Q 2819 4750 3233 4129 
Q 3647 3509 3647 2328 
Q 3647 1150 3233 529 
Q 2819 -91 2034 -91 
Q 1250 -91 836 529 
Q 422 1150 422 2328 
Q 422 3509 836 4129 
Q 1250 4750 2034 4750 
z
" transform="scale(0.015625)"/>
       </defs>
       <use xlink:href="#DejaVuSans-30"/>
      </g>
     </g>
    </g>
    <g id="xtick_2">
     <g id="line2d_2">
      <g>
       <use xlink:href="#m6c38fcd66f" x="114.408454" y="307.584" style="stroke: #000000; stroke-width: 0.8"/>
      </g>
     </g>
     <g id="text_2">
      <!-- 2500 -->
      <g transform="translate(101.683454 322.182437)scale(0.1 -0.1)">
       <defs>
        <path id="DejaVuSans-32" d="M 1228 531 
L 3431 531 
L 3431 0 
L 469 0 
L 469 531 
Q 828 903 1448 1529 
Q 2069 2156 2228 2338 
Q 2531 2678 2651 2914 
Q 2772 3150 2772 3378 
Q 2772 3750 2511 3984 
Q 2250 4219 1831 4219 
Q 1534 4219 1204 4116 
Q 875 4013 500 3803 
L 500 4441 
Q 881 4594 1212 4672 
Q 1544 4750 1819 4750 
Q 2544 4750 2975 4387 
Q 3406 4025 3406 3419 
Q 3406 3131 3298 2873 
Q 3191 2616 2906 2266 
Q 2828 2175 2409 1742 
Q 1991 1309 1228 531 
z
" transform="scale(0.015625)"/>
        <path id="DejaVuSans-35" d="M 691 4666 
L 3169 4666 
L 3169 4134 
L 1269 4134 
L 1269 2991 
Q 1406 3038 1543 3061 
Q 1681 3084 1819 3084 
Q 2600 3084 3056 2656 
Q 3513 2228 3513 1497 
Q 3513 744 3044 326 
Q 2575 -91 1722 -91 
Q 1428 -91 1123 -41 
Q 819 9 494 109 
L 494 744 
Q 775 591 1075 516 
Q 1375 441 1709 441 
Q 2250 441 2565 725 
Q 2881 1009 2881 1497 
Q 2881 1984 2565 2268 
Q 2250 2553 1709 2553 
Q 1456 2553 1204 2497 
Q 953 2441 691 2322 
L 691 4666 
z
" transform="scale(0.015625)"/>
       </defs>
       <use xlink:href="#DejaVuSans-32"/>
       <use xlink:href="#DejaVuSans-35" x="63.623047"/>
       <use xlink:href="#DejaVuSans-30" x="127.246094"/>
       <use xlink:href="#DejaVuSans-30" x="190.869141"/>
      </g>
     </g>
    </g>
    <g id="xtick_3">
     <g id="line2d_3">
      <g>
       <use xlink:href="#m6c38fcd66f" x="155.016668" y="307.584" style="stroke: #000000; stroke-width: 0.8"/>
      </g>
     </g>
     <g id="text_3">
      <!-- 5000 -->
      <g transform="translate(142.291668 322.182437)scale(0.1 -0.1)">
       <use xlink:href="#DejaVuSans-35"/>
       <use xlink:href="#DejaVuSans-30" x="63.623047"/>
       <use xlink:href="#DejaVuSans-30" x="127.246094"/>
       <use xlink:href="#DejaVuSans-30" x="190.869141"/>
      </g>
     </g>
    </g>
    <g id="xtick_4">
     <g id="line2d_4">
      <g>
       <use xlink:href="#m6c38fcd66f" x="195.624881" y="307.584" style="stroke: #000000; stroke-width: 0.8"/>
      </g>
     </g>
     <g id="text_4">
      <!-- 7500 -->
      <g transform="translate(182.899881 322.182437)scale(0.1 -0.1)">
       <defs>
        <path id="DejaVuSans-37" d="M 525 4666 
L 3525 4666 
L 3525 4397 
L 1831 0 
L 1172 0 
L 2766 4134 
L 525 4134 
L 525 4666 
z
" transform="scale(0.015625)"/>
       </defs>
       <use xlink:href="#DejaVuSans-37"/>
       <use xlink:href="#DejaVuSans-35" x="63.623047"/>
       <use xlink:href="#DejaVuSans-30" x="127.246094"/>
       <use xlink:href="#DejaVuSans-30" x="190.869141"/>
      </g>
     </g>
    </g>
    <g id="xtick_5">
     <g id="line2d_5">
      <g>
       <use xlink:href="#m6c38fcd66f" x="236.233095" y="307.584" style="stroke: #000000; stroke-width: 0.8"/>
      </g>
     </g>
     <g id="text_5">
      <!-- 10000 -->
      <g transform="translate(220.326845 322.182437)scale(0.1 -0.1)">
       <defs>
        <path id="DejaVuSans-31" d="M 794 531 
L 1825 531 
L 1825 4091 
L 703 3866 
L 703 4441 
L 1819 4666 
L 2450 4666 
L 2450 531 
L 3481 531 
L 3481 0 
L 794 0 
L 794 531 
z
" transform="scale(0.015625)"/>
       </defs>
       <use xlink:href="#DejaVuSans-31"/>
       <use xlink:href="#DejaVuSans-30" x="63.623047"/>
       <use xlink:href="#DejaVuSans-30" x="127.246094"/>
       <use xlink:href="#DejaVuSans-30" x="190.869141"/>
       <use xlink:href="#DejaVuSans-30" x="254.492188"/>
      </g>
     </g>
    </g>
    <g id="xtick_6">
     <g id="line2d_6">
      <g>
       <use xlink:href="#m6c38fcd66f" x="276.841308" y="307.584" style="stroke: #000000; stroke-width: 0.8"/>
      </g>
     </g>
     <g id="text_6">
      <!-- 12500 -->
      <g transform="translate(260.935058 322.182437)scale(0.1 -0.1)">
       <use xlink:href="#DejaVuSans-31"/>
       <use xlink:href="#DejaVuSans-32" x="63.623047"/>
       <use xlink:href="#DejaVuSans-35" x="127.246094"/>
       <use xlink:href="#DejaVuSans-30" x="190.869141"/>
       <use xlink:href="#DejaVuSans-30" x="254.492188"/>
      </g>
     </g>
    </g>
    <g id="xtick_7">
     <g id="line2d_7">
      <g>
       <use xlink:href="#m6c38fcd66f" x="317.449522" y="307.584" style="stroke: #000000; stroke-width: 0.8"/>
      </g>
     </g>
     <g id="text_7">
      <!-- 15000 -->
      <g transform="translate(301.543272 322.182437)scale(0.1 -0.1)">
       <use xlink:href="#DejaVuSans-31"/>
       <use xlink:href="#DejaVuSans-35" x="63.623047"/>
       <use xlink:href="#DejaVuSans-30" x="127.246094"/>
       <use xlink:href="#DejaVuSans-30" x="190.869141"/>
       <use xlink:href="#DejaVuSans-30" x="254.492188"/>
      </g>
     </g>
    </g>
    <g id="xtick_8">
     <g id="line2d_8">
      <g>
       <use xlink:href="#m6c38fcd66f" x="358.057735" y="307.584" style="stroke: #000000; stroke-width: 0.8"/>
      </g>
     </g>
     <g id="text_8">
      <!-- 17500 -->
      <g transform="translate(342.151485 322.182437)scale(0.1 -0.1)">
       <use xlink:href="#DejaVuSans-31"/>
       <use xlink:href="#DejaVuSans-37" x="63.623047"/>
       <use xlink:href="#DejaVuSans-35" x="127.246094"/>
       <use xlink:href="#DejaVuSans-30" x="190.869141"/>
       <use xlink:href="#DejaVuSans-30" x="254.492188"/>
      </g>
     </g>
    </g>
    <g id="xtick_9">
     <g id="line2d_9">
      <g>
       <use xlink:href="#m6c38fcd66f" x="398.665949" y="307.584" style="stroke: #000000; stroke-width: 0.8"/>
      </g>
     </g>
     <g id="text_9">
      <!-- 20000 -->
      <g transform="translate(382.759699 322.182437)scale(0.1 -0.1)">
       <use xlink:href="#DejaVuSans-32"/>
       <use xlink:href="#DejaVuSans-30" x="63.623047"/>
       <use xlink:href="#DejaVuSans-30" x="127.246094"/>
       <use xlink:href="#DejaVuSans-30" x="190.869141"/>
       <use xlink:href="#DejaVuSans-30" x="254.492188"/>
      </g>
     </g>
    </g>
   </g>
   <g id="matplotlib.axis_2">
    <g id="ytick_1">
     <g id="line2d_10">
      <defs>
       <path id="mf221b1b534" d="M 0 0 
L -3.5 0 
" style="stroke: #000000; stroke-width: 0.8"/>
      </defs>
      <g>
       <use xlink:href="#mf221b1b534" x="57.6" y="287.648" style="stroke: #000000; stroke-width: 0.8"/>
      </g>
     </g>
     <g id="text_10">
      <!-- 1400 -->
      <g transform="translate(25.15 291.447219)scale(0.1 -0.1)">
       <defs>
        <path id="DejaVuSans-34" d="M 2419 4116 
L 825 1625 
L 2419 1625 
L 2419 4116 
z
M 2253 4666 
L 3047 4666 
L 3047 1625 
L 3713 1625 
L 3713 1100 
L 3047 1100 
L 3047 0 
L 2419 0 
L 2419 1100 
L 313 1100 
L 313 1709 
L 2253 4666 
z
" transform="scale(0.015625)"/>
       </defs>
       <use xlink:href="#DejaVuSans-31"/>
       <use xlink:href="#DejaVuSans-34" x="63.623047"/>
       <use xlink:href="#DejaVuSans-30" x="127.246094"/>
       <use xlink:href="#DejaVuSans-30" x="190.869141"/>
      </g>
     </g>
    </g>
    <g id="ytick_2">
     <g id="line2d_11">
      <g>
       <use xlink:href="#mf221b1b534" x="57.6" y="231.648" style="stroke: #000000; stroke-width: 0.8"/>
      </g>
     </g>
     <g id="text_11">
      <!-- 1450 -->
      <g transform="translate(25.15 235.447219)scale(0.1 -0.1)">
       <use xlink:href="#DejaVuSans-31"/>
       <use xlink:href="#DejaVuSans-34" x="63.623047"/>
       <use xlink:href="#DejaVuSans-35" x="127.246094"/>
       <use xlink:href="#DejaVuSans-30" x="190.869141"/>
      </g>
     </g>
    </g>
    <g id="ytick_3">
     <g id="line2d_12">
      <g>
       <use xlink:href="#mf221b1b534" x="57.6" y="175.648" style="stroke: #000000; stroke-width: 0.8"/>
      </g>
     </g>
     <g id="text_12">
      <!-- 1500 -->
      <g transform="translate(25.15 179.447219)scale(0.1 -0.1)">
       <use xlink:href="#DejaVuSans-31"/>
       <use xlink:href="#DejaVuSans-35" x="63.623047"/>
       <use xlink:href="#DejaVuSans-30" x="127.246094"/>
       <use xlink:href="#DejaVuSans-30" x="190.869141"/>
      </g>
     </g>
    </g>
    <g id="ytick_4">
     <g id="line2d_13">
      <g>
       <use xlink:href="#mf221b1b534" x="57.6" y="119.648" style="stroke: #000000; stroke-width: 0.8"/>
      </g>
     </g>
     <g id="text_13">
      <!-- 1550 -->
      <g transform="translate(25.15 123.447219)scale(0.1 -0.1)">
       <use xlink:href="#DejaVuSans-31"/>
       <use xlink:href="#DejaVuSans-35" x="63.623047"/>
       <use xlink:href="#DejaVuSans-35" x="127.246094"/>
       <use xlink:href="#DejaVuSans-30" x="190.869141"/>
      </g>
     </g>
    </g>
    <g id="ytick_5">
     <g id="line2d_14">
      <g>
       <use xlink:href="#mf221b1b534" x="57.6" y="63.648" style="stroke: #000000; stroke-width: 0.8"/>
      </g>
     </g>
     <g id="text_14">
      <!-- 1600 -->
      <g transform="translate(25.15 67.447219)scale(0.1 -0.1)">
       <defs>
        <path id="DejaVuSans-36" d="M 2113 2584 
Q 1688 2584 1439 2293 
Q 1191 2003 1191 1497 
Q 1191 994 1439 701 
Q 1688 409 2113 409 
Q 2538 409 2786 701 
Q 3034 994 3034 1497 
Q 3034 2003 2786 2293 
Q 2538 2584 2113 2584 
z
M 3366 4563 
L 3366 3988 
Q 3128 4100 2886 4159 
Q 2644 4219 2406 4219 
Q 1781 4219 1451 3797 
Q 1122 3375 1075 2522 
Q 1259 2794 1537 2939 
Q 1816 3084 2150 3084 
Q 2853 3084 3261 2657 
Q 3669 2231 3669 1497 
Q 3669 778 3244 343 
Q 2819 -91 2113 -91 
Q 1303 -91 875 529 
Q 447 1150 447 2328 
Q 447 3434 972 4092 
Q 1497 4750 2381 4750 
Q 2619 4750 2861 4703 
Q 3103 4656 3366 4563 
z
" transform="scale(0.015625)"/>
       </defs>
       <use xlink:href="#DejaVuSans-31"/>
       <use xlink:href="#DejaVuSans-36" x="63.623047"/>
       <use xlink:href="#DejaVuSans-30" x="127.246094"/>
       <use xlink:href="#DejaVuSans-30" x="190.869141"/>
      </g>
     </g>
    </g>
   </g>
   <g id="line2d_15">
    <path d="M 73.832727 171.168 
L 73.94643 170.048 
L 74.206323 170.048 
L 74.401242 166.688 
L 74.433729 166.688 
L 74.709865 159.968 
L 74.742351 159.968 
L 74.937271 157.728 
L 75.018487 157.728 
L 75.164677 159.968 
L 75.213407 159.968 
L 75.473299 166.688 
L 75.522029 166.688 
L 75.749435 171.168 
L 75.879381 171.168 
L 75.993084 172.288 
L 76.188004 172.288 
L 76.26922 171.168 
L 76.382923 172.288 
L 76.740275 172.288 
L 76.886465 174.528 
L 76.967681 174.528 
L 77.130114 176.768 
L 77.243817 175.648 
L 77.292547 175.648 
L 77.438737 177.888 
L 77.861062 177.888 
L 78.007252 176.768 
L 78.185928 176.768 
L 78.299631 175.648 
L 78.380847 175.648 
L 78.673226 180.128 
L 78.786929 180.128 
L 78.900632 181.248 
L 78.933119 181.248 
L 79.046822 182.368 
L 79.160525 182.368 
L 79.290471 183.488 
L 79.322958 183.488 
L 79.452904 184.608 
L 79.842743 184.608 
L 79.956446 185.728 
L 80.037662 185.728 
L 80.118879 186.848 
L 80.167609 185.728 
L 80.200095 186.848 
L 80.395015 186.848 
L 80.459988 185.728 
L 80.703637 189.088 
L 81.093476 189.088 
L 81.288395 191.328 
L 81.840667 191.328 
L 81.95437 192.448 
L 82.246749 192.448 
L 82.327966 193.568 
L 82.441669 192.448 
L 82.474155 192.448 
L 82.620345 194.688 
L 82.831507 194.688 
L 82.880237 195.808 
L 82.912724 194.688 
L 83.107643 194.688 
L 83.14013 193.568 
L 83.18886 194.688 
L 83.448752 194.688 
L 83.481239 193.568 
L 83.546212 194.688 
L 83.773618 194.688 
L 83.887321 195.808 
L 83.919808 195.808 
L 84.049754 194.688 
L 84.08224 194.688 
L 84.212187 195.808 
L 84.358376 195.808 
L 84.407106 196.928 
L 84.439593 195.808 
L 84.748215 195.808 
L 84.829431 196.928 
L 84.861918 195.808 
L 84.926891 196.928 
L 84.959378 196.928 
L 85.073081 195.808 
L 85.154297 195.808 
L 85.268 196.928 
L 85.381703 196.928 
L 85.495406 198.048 
L 85.706569 198.048 
L 85.739055 196.928 
L 85.787785 198.048 
L 86.372544 198.048 
L 86.40503 196.928 
L 86.45376 198.048 
L 86.681166 198.048 
L 86.827356 200.288 
L 87.200951 200.288 
L 87.314654 201.408 
L 87.460844 201.408 
L 87.49333 202.528 
L 87.54206 201.408 
L 87.899412 201.408 
L 88.013115 202.528 
L 88.126818 202.528 
L 88.240521 203.648 
L 88.321738 203.648 
L 88.451684 204.768 
L 88.500414 203.648 
L 88.532901 204.768 
L 88.565387 204.768 
L 88.646604 203.648 
L 88.72782 204.768 
L 88.760307 203.648 
L 88.792793 204.768 
L 88.87401 204.768 
L 88.987713 203.648 
L 89.052686 203.648 
L 89.166389 202.528 
L 89.361308 202.528 
L 89.475011 201.408 
L 89.588714 201.408 
L 89.702417 200.288 
L 89.978553 200.288 
L 90.108499 199.168 
L 90.303419 199.168 
L 90.433365 200.288 
L 90.465852 200.288 
L 90.547068 201.408 
L 90.660771 200.288 
L 90.709501 200.288 
L 90.741987 199.168 
L 90.790717 200.288 
L 90.936907 200.288 
L 91.05061 201.408 
L 91.472935 201.408 
L 91.586638 202.528 
L 91.667855 202.528 
L 91.700341 203.648 
L 91.732828 202.528 
L 92.073937 202.528 
L 92.220126 200.288 
L 92.350073 201.408 
L 93.145994 201.408 
L 93.27594 202.528 
L 93.828212 202.528 
L 93.860698 201.408 
L 93.925671 202.528 
L 94.153077 202.528 
L 94.26678 201.408 
L 94.396727 201.408 
L 94.51043 200.288 
L 94.640376 203.648 
L 94.689106 203.648 
L 94.835295 205.888 
L 95.143918 200.288 
L 95.192648 200.288 
L 95.371324 203.648 
L 95.40381 203.648 
L 95.517513 204.768 
L 95.679946 204.768 
L 95.793649 203.648 
L 95.874866 203.648 
L 96.004812 201.408 
L 96.053542 201.408 
L 96.167245 200.288 
L 96.280948 200.288 
L 96.394651 199.168 
L 96.443381 199.168 
L 96.557084 200.288 
L 96.768246 200.288 
L 96.963166 196.928 
L 97.076869 199.168 
L 97.125599 199.168 
L 97.190572 202.528 
L 97.239302 201.408 
L 97.271788 201.408 
L 97.417978 199.168 
L 97.450464 199.168 
L 97.645384 202.528 
L 97.759087 202.528 
L 97.92152 199.168 
L 97.954006 200.288 
L 98.295115 200.288 
L 98.408818 201.408 
L 98.684954 194.688 
L 98.717441 194.688 
L 98.896117 201.408 
L 98.928603 199.168 
L 99.00982 187.968 
L 99.091036 191.328 
L 99.285956 202.528 
L 99.367172 196.928 
L 99.399659 198.048 
L 99.529605 205.888 
L 99.659551 209.248 
L 100.00066 200.288 
L 100.04939 200.288 
L 100.293039 194.688 
L 100.374256 194.688 
L 100.536688 192.448 
L 100.650391 193.568 
L 100.682878 193.568 
L 100.829068 194.688 
L 100.861554 194.688 
L 101.023987 192.448 
L 101.105203 192.448 
L 101.218906 191.328 
L 101.251393 191.328 
L 101.332609 192.448 
L 101.446312 190.208 
L 101.787421 195.808 
L 101.933611 195.808 
L 102.014827 192.448 
L 102.047314 193.568 
L 102.22599 196.928 
L 102.339693 191.328 
L 102.388423 192.448 
L 102.534613 201.408 
L 102.729532 203.648 
L 102.989425 203.648 
L 103.021911 202.528 
L 103.070641 203.648 
L 103.103128 203.648 
L 103.184344 204.768 
L 103.298047 200.288 
L 103.574183 205.888 
L 103.866562 200.288 
L 104.028995 202.528 
L 104.093968 202.528 
L 104.175184 199.168 
L 104.321374 191.328 
L 104.435077 202.528 
L 104.467564 200.288 
L 104.516293 200.288 
L 104.581267 203.648 
L 104.711213 194.688 
L 104.743699 195.808 
L 104.857402 201.408 
L 104.906132 200.288 
L 105.068565 202.528 
L 105.312214 202.528 
L 105.53962 196.928 
L 105.718297 199.168 
L 105.799513 194.688 
L 105.832 196.928 
L 105.945703 189.088 
L 105.994432 192.448 
L 106.075649 196.928 
L 106.140622 201.408 
L 106.189352 200.288 
L 106.270568 200.288 
L 106.351785 202.528 
L 106.481731 192.448 
L 106.514218 194.688 
L 106.595434 202.528 
L 106.627921 196.928 
L 106.67665 196.928 
L 106.757867 191.328 
L 106.904056 152.128 
L 106.985273 170.048 
L 107.034003 173.408 
L 107.115219 157.728 
L 107.163949 159.968 
L 107.521301 222.688 
L 107.586274 200.288 
L 107.667491 205.888 
L 107.716221 200.288 
L 107.846167 227.168 
L 107.878653 224.928 
L 108.122303 163.328 
L 108.154789 168.928 
L 108.268492 214.848 
L 108.317222 200.288 
L 108.398439 166.688 
L 108.430925 183.488 
L 108.674574 265.248 
L 108.723304 256.288 
L 108.837007 205.888 
L 108.885737 211.488 
L 109.161873 276.448 
L 109.291819 239.488 
L 109.356792 179.008 
L 109.405522 218.208 
L 109.438009 242.848 
L 109.519225 239.488 
L 109.844091 186.848 
L 110.006524 229.408 
L 110.03901 219.328 
L 110.120227 181.248 
L 110.168957 193.568 
L 110.315146 249.568 
L 110.510066 202.528 
L 110.688742 236.128 
L 110.802445 217.088 
L 110.851175 221.568 
L 110.964878 214.848 
L 111.127311 258.528 
L 111.257257 189.088 
L 111.289743 223.808 
L 111.41969 289.888 
L 111.452176 284.288 
L 111.533393 241.728 
L 111.565879 242.848 
L 111.614609 243.968 
L 111.647096 255.168 
L 111.728312 247.328 
L 111.842015 182.368 
L 111.971961 259.648 
L 112.020691 266.368 
L 112.053178 261.888 
L 112.134394 233.888 
L 112.215611 248.448 
L 112.329314 259.648 
L 112.443017 219.328 
L 112.654179 285.408 
L 112.702909 269.728 
L 112.735396 213.728 
L 112.816612 239.488 
L 112.849099 252.928 
L 112.897829 239.488 
L 112.979045 224.928 
L 113.044018 231.648 
L 113.125235 247.328 
L 113.173965 242.848 
L 113.206451 241.728 
L 113.303911 224.928 
L 113.336397 248.448 
L 113.385127 246.208 
L 113.49883 170.048 
L 113.531317 182.368 
L 113.69375 254.048 
L 113.774966 248.448 
L 113.888669 229.408 
L 113.937399 248.448 
L 113.969886 236.128 
L 114.099832 223.808 
L 114.181048 184.608 
L 114.213535 204.768 
L 114.262265 211.488 
L 114.294751 203.648 
L 114.538401 138.688 
L 114.700833 231.648 
L 114.749563 242.848 
L 114.944483 173.408 
L 115.025699 209.248 
L 115.058186 203.648 
L 115.139402 173.408 
L 115.171889 186.848 
L 115.220618 213.728 
L 115.301835 199.168 
L 115.431781 183.488 
L 115.512998 200.288 
L 115.626701 157.728 
L 115.77289 215.968 
L 115.854107 219.328 
L 115.935323 173.408 
L 115.984053 201.408 
L 116.016539 219.328 
L 116.049026 214.848 
L 116.113999 210.368 
L 116.195216 222.688 
L 116.227702 212.608 
L 116.260189 192.448 
L 116.341405 205.888 
L 116.390135 209.248 
L 116.422622 204.768 
L 116.503838 162.208 
L 116.536325 177.888 
L 116.666271 239.488 
L 116.698757 237.248 
L 116.877434 201.408 
L 116.942407 247.328 
L 117.023623 243.968 
L 117.10484 209.248 
L 117.186056 162.208 
L 117.218543 201.408 
L 117.299759 232.768 
L 117.348489 224.928 
L 117.380975 223.808 
L 117.478435 200.288 
L 117.510922 210.368 
L 117.559652 235.008 
L 117.624625 218.208 
L 117.705841 162.208 
L 117.754571 177.888 
L 117.900761 231.648 
L 117.94949 226.048 
L 117.981977 228.288 
L 118.030707 242.848 
L 118.063193 223.808 
L 118.160653 173.408 
L 118.274356 228.288 
L 118.469276 175.648 
L 118.518005 182.368 
L 118.582979 223.808 
L 118.631708 215.968 
L 118.712925 166.688 
L 118.745411 183.488 
L 118.826628 233.888 
L 118.875358 230.528 
L 118.924088 232.768 
L 119.070277 143.168 
L 119.119007 175.648 
L 119.23271 228.288 
L 119.265197 222.688 
L 119.395143 203.648 
L 119.427629 212.608 
L 119.460116 220.448 
L 119.508846 210.368 
L 119.557576 210.368 
L 119.638792 166.688 
L 119.720009 184.608 
L 119.801225 194.688 
L 119.833712 185.728 
L 119.882441 181.248 
L 119.947415 219.328 
L 119.996144 204.768 
L 120.028631 191.328 
L 120.077361 198.048 
L 120.142334 214.848 
L 120.191064 212.608 
L 120.434713 168.928 
L 120.564659 217.088 
L 120.629633 193.568 
L 120.710849 148.768 
L 120.759579 175.648 
L 120.905768 200.288 
L 120.970742 195.808 
L 121.003228 174.528 
L 121.035715 182.368 
L 121.084445 198.048 
L 121.165661 193.568 
L 121.198148 193.568 
L 121.311851 181.248 
L 121.474283 229.408 
L 121.50677 220.448 
L 121.587986 154.368 
L 121.65296 172.288 
L 121.685446 195.808 
L 121.766663 184.608 
L 121.880366 168.928 
L 121.929095 167.808 
L 121.994069 233.888 
L 122.042798 207.008 
L 122.156501 148.768 
L 122.188988 155.488 
L 122.270204 196.928 
L 122.335178 187.968 
L 122.416394 163.328 
L 122.44888 173.408 
L 122.481367 172.288 
L 122.611313 213.728 
L 122.676286 137.568 
L 122.725016 151.008 
L 122.806233 195.808 
L 122.838719 189.088 
L 122.871206 185.728 
L 122.919936 194.688 
L 122.952422 186.848 
L 123.049882 164.448 
L 123.131098 198.048 
L 123.163585 184.608 
L 123.244801 134.208 
L 123.293531 146.528 
L 123.439721 189.088 
L 123.488451 196.928 
L 123.520937 191.328 
L 123.699613 161.088 
L 123.7321 165.568 
L 123.813316 220.448 
L 123.845803 207.008 
L 124.008236 110.688 
L 124.040722 154.368 
L 124.121939 196.928 
L 124.203155 144.288 
L 124.251885 156.608 
L 124.414318 212.608 
L 124.495534 174.528 
L 124.576751 181.248 
L 124.657967 212.608 
L 124.690454 193.568 
L 124.77167 126.368 
L 124.804157 147.648 
L 124.852887 185.728 
L 124.885373 159.968 
L 124.934103 130.848 
L 124.96659 152.128 
L 125.096536 189.088 
L 125.177752 180.128 
L 125.340185 226.048 
L 125.372672 204.768 
L 125.486375 171.168 
L 125.616321 204.768 
L 125.648808 198.048 
L 125.730024 185.728 
L 125.778754 192.448 
L 125.827484 193.568 
L 125.973673 115.168 
L 126.022403 125.248 
L 126.136106 224.928 
L 126.168593 217.088 
L 126.298539 201.408 
L 126.444729 203.648 
L 126.574675 143.168 
L 126.623405 180.128 
L 126.704621 209.248 
L 126.737108 194.688 
L 126.769594 182.368 
L 126.818324 190.208 
L 126.899541 201.408 
L 126.932027 198.048 
L 127.013244 168.928 
L 127.04573 184.608 
L 127.09446 199.168 
L 127.126947 198.048 
L 127.256893 173.408 
L 127.305623 155.488 
L 127.386839 161.088 
L 127.468056 196.928 
L 127.500542 191.328 
L 127.614245 53.568 
L 127.776678 222.688 
L 127.809165 210.368 
L 127.906624 161.088 
L 127.987841 177.888 
L 128.101544 212.608 
L 128.215247 186.848 
L 128.263977 166.688 
L 128.296463 180.128 
L 128.410166 227.168 
L 128.458896 218.208 
L 128.751275 140.928 
L 128.783762 145.408 
L 128.897465 173.408 
L 128.946195 158.848 
L 128.978681 163.328 
L 129.092384 195.808 
L 129.352277 179.008 
L 129.46598 131.968 
L 129.51471 135.328 
L 129.547196 183.488 
L 129.628413 168.928 
L 129.660899 173.408 
L 129.709629 167.808 
L 129.742116 154.368 
L 129.774602 158.848 
L 129.823332 175.648 
L 129.855819 163.328 
L 129.904549 156.608 
L 129.985765 187.968 
L 130.066981 142.048 
L 130.115711 159.968 
L 130.229414 200.288 
L 130.391847 154.368 
L 130.424334 171.168 
L 130.50555 202.528 
L 130.538037 196.928 
L 130.667983 173.408 
L 130.797929 185.728 
L 130.830416 172.288 
L 130.911632 176.768 
L 131.074065 198.048 
L 131.268984 163.328 
L 131.366444 192.448 
L 131.398931 177.888 
L 131.480147 133.088 
L 131.512634 158.848 
L 131.59385 184.608 
L 131.626337 181.248 
L 131.675067 181.248 
L 131.707553 180.128 
L 131.756283 186.848 
L 131.78877 183.488 
L 131.821256 180.128 
L 131.869986 183.488 
L 131.951202 195.808 
L 131.983689 192.448 
L 132.048662 183.488 
L 132.162365 148.768 
L 132.243582 171.168 
L 132.308555 140.928 
L 132.470988 187.968 
L 132.503474 185.728 
L 132.73088 146.528 
L 132.763367 146.528 
L 132.844583 120.768 
L 132.990773 223.808 
L 133.153206 200.288 
L 133.266909 215.968 
L 133.413098 231.648 
L 133.478071 196.928 
L 133.559288 210.368 
L 133.640504 187.968 
L 133.721721 151.008 
L 133.754207 163.328 
L 133.86791 210.368 
L 133.949127 145.408 
L 133.997856 156.608 
L 134.160289 221.568 
L 134.241506 204.768 
L 134.403939 138.688 
L 134.436425 174.528 
L 134.517642 211.488 
L 134.550128 191.328 
L 134.598858 173.408 
L 134.631345 179.008 
L 134.712561 228.288 
L 134.761291 226.048 
L 134.810021 226.048 
L 134.923724 164.448 
L 135.037427 228.288 
L 135.086157 205.888 
L 135.167373 161.088 
L 135.19986 195.808 
L 135.281076 238.368 
L 135.313563 231.648 
L 135.492239 163.328 
L 135.524725 181.248 
L 135.654672 232.768 
L 135.800861 194.688 
L 135.882078 202.528 
L 135.930807 212.608 
L 136.04451 147.648 
L 136.076997 200.288 
L 136.174457 185.728 
L 136.33689 202.528 
L 136.450593 218.208 
L 136.677999 186.848 
L 136.726728 190.208 
L 136.759215 205.888 
L 136.807945 193.568 
L 136.889161 179.008 
L 137.051594 210.368 
L 137.084081 209.248 
L 137.165297 187.968 
L 137.246514 215.968 
L 137.295243 209.248 
L 137.441433 168.928 
L 137.490163 181.248 
L 137.652596 199.168 
L 137.701325 200.288 
L 137.733812 203.648 
L 137.847515 167.808 
L 137.896245 172.288 
L 137.977461 203.648 
L 138.009948 185.728 
L 138.123651 164.448 
L 138.172381 171.168 
L 138.204867 196.928 
L 138.253597 190.208 
L 138.302327 164.448 
L 138.334814 165.568 
L 138.41603 207.008 
L 138.46476 185.728 
L 138.529733 131.968 
L 138.578463 176.768 
L 138.805869 221.568 
L 138.887085 203.648 
L 138.919572 217.088 
L 138.984545 213.728 
L 139.017032 201.408 
L 139.065761 211.488 
L 139.211951 243.968 
L 139.260681 235.008 
L 139.341897 210.368 
L 139.374384 217.088 
L 139.40687 217.088 
L 139.569303 156.608 
L 139.60179 174.528 
L 139.666763 210.368 
L 139.69925 204.768 
L 139.780466 131.968 
L 139.829196 146.528 
L 139.975385 238.368 
L 140.024115 236.128 
L 140.170305 222.688 
L 140.381468 193.568 
L 140.430197 201.408 
L 140.5439 218.208 
L 140.625117 176.768 
L 140.657603 177.888 
L 140.73882 219.328 
L 140.771306 211.488 
L 140.901253 181.248 
L 140.933739 198.048 
L 141.031199 224.928 
L 141.063686 218.208 
L 141.193632 148.768 
L 141.226118 191.328 
L 141.307335 221.568 
L 141.339821 218.208 
L 141.421038 203.648 
L 141.453524 217.088 
L 141.502254 220.448 
L 141.534741 218.208 
L 141.583471 218.208 
L 141.697174 170.048 
L 141.745904 192.448 
L 141.794633 208.128 
L 141.82712 201.408 
L 142.070769 154.368 
L 142.103256 168.928 
L 142.216959 217.088 
L 142.298175 172.288 
L 142.346905 176.768 
L 142.428122 210.368 
L 142.476851 208.128 
L 142.509338 202.528 
L 142.590554 239.488 
L 142.623041 228.288 
L 142.704257 184.608 
L 142.752987 198.048 
L 142.81796 209.248 
L 142.899177 146.528 
L 142.947907 177.888 
L 143.11034 237.248 
L 143.240286 190.208 
L 143.272772 201.408 
L 143.353989 221.568 
L 143.386475 219.328 
L 143.435205 219.328 
L 143.548908 165.568 
L 143.581395 175.648 
L 143.662611 217.088 
L 143.711341 207.008 
L 143.841287 167.808 
L 143.873774 171.168 
L 144.068693 193.568 
L 144.312343 137.568 
L 144.344829 146.528 
L 144.426046 189.088 
L 144.458532 186.848 
L 144.523505 191.328 
L 144.637208 154.368 
L 144.669695 162.208 
L 144.750911 184.608 
L 144.799641 172.288 
L 144.913344 139.808 
L 145.027047 202.528 
L 145.075777 195.808 
L 145.108264 205.888 
L 145.205723 204.768 
L 145.319426 200.288 
L 145.351913 207.008 
L 145.400643 194.688 
L 145.514346 162.208 
L 145.676779 175.648 
L 145.757995 146.528 
L 145.822968 162.208 
L 145.969158 207.008 
L 146.001644 198.048 
L 146.115347 137.568 
L 146.196564 149.888 
L 146.245294 155.488 
L 146.391483 181.248 
L 146.570159 209.248 
L 146.716349 170.048 
L 146.765079 176.768 
L 146.797565 194.688 
L 146.846295 176.768 
L 146.927512 138.688 
L 146.959998 140.928 
L 147.073701 194.688 
L 147.122431 190.208 
L 147.154918 189.088 
L 147.187404 194.688 
L 147.236134 189.088 
L 147.284864 187.968 
L 147.333594 193.568 
L 147.36608 187.968 
L 147.447297 142.048 
L 147.479783 144.288 
L 147.60973 194.688 
L 147.674703 184.608 
L 147.837136 205.888 
L 147.869622 201.408 
L 147.918352 207.008 
L 147.967082 202.528 
L 148.048298 209.248 
L 148.291948 130.848 
L 148.324434 154.368 
L 148.438137 189.088 
L 148.6493 161.088 
L 148.519354 191.328 
L 148.69803 168.928 
L 148.730516 186.848 
L 148.779246 181.248 
L 148.892949 115.168 
L 148.925436 135.328 
L 149.039139 207.008 
L 149.087869 180.128 
L 149.120355 162.208 
L 149.169085 189.088 
L 149.234058 208.128 
L 149.282788 204.768 
L 149.412734 145.408 
L 149.461464 107.328 
L 149.493951 127.488 
L 149.607654 198.048 
L 149.656384 187.968 
L 149.68887 192.448 
L 149.770087 211.488 
L 149.802573 202.528 
L 149.88379 217.088 
L 149.916276 213.728 
L 150.094952 189.088 
L 150.143682 203.648 
L 150.208655 196.928 
L 150.289872 194.688 
L 150.338602 177.888 
L 150.371088 185.728 
L 150.484791 211.488 
L 150.566008 149.888 
L 150.598494 180.128 
L 150.679711 214.848 
L 150.744684 210.368 
L 150.858387 198.048 
L 150.890873 207.008 
L 150.939603 228.288 
L 151.02082 215.968 
L 151.053306 217.088 
L 151.134523 184.608 
L 151.215739 187.968 
L 151.280712 205.888 
L 151.329442 198.048 
L 151.361929 193.568 
L 151.426902 195.808 
L 151.459388 196.928 
L 151.573091 167.808 
L 151.621821 175.648 
L 151.654308 176.768 
L 151.703038 183.488 
L 151.816741 213.728 
L 152.01166 149.888 
L 152.044147 167.808 
L 152.222823 207.008 
L 152.255309 202.528 
L 152.304039 203.648 
L 152.336526 211.488 
L 152.385256 202.528 
L 152.417742 198.048 
L 152.450229 203.648 
L 152.531445 214.848 
L 152.580175 212.608 
L 152.612662 210.368 
L 152.726365 171.168 
L 152.775094 183.488 
L 152.823824 196.928 
L 152.872554 190.208 
L 152.937527 137.568 
L 152.986257 163.328 
L 153.09996 198.048 
L 153.181176 173.408 
L 153.213663 180.128 
L 153.294879 201.408 
L 153.327366 190.208 
L 153.376096 177.888 
L 153.408582 179.008 
L 153.506042 210.368 
L 153.554772 207.008 
L 153.619745 192.448 
L 153.668475 201.408 
L 153.749691 205.888 
L 153.863394 177.888 
L 153.895881 192.448 
L 154.058314 219.328 
L 154.13953 192.448 
L 154.172017 203.648 
L 154.23699 211.488 
L 154.301963 186.848 
L 154.38318 191.328 
L 154.431909 182.368 
L 154.496883 190.208 
L 154.545612 190.208 
L 154.626829 171.168 
L 154.659315 181.248 
L 154.773018 217.088 
L 154.821748 212.608 
L 154.984181 159.968 
L 155.22783 212.608 
L 155.260317 209.248 
L 155.309047 214.848 
L 155.341533 218.208 
L 155.666399 159.968 
L 155.715129 170.048 
L 155.861319 210.368 
L 155.910048 205.888 
L 155.942535 192.448 
L 156.023751 200.288 
L 156.137454 202.528 
L 156.218671 195.808 
L 156.283644 198.048 
L 156.397347 219.328 
L 156.478563 195.808 
L 156.51105 207.008 
L 156.624753 212.608 
L 156.754699 181.248 
L 156.868402 155.488 
L 156.998349 210.368 
L 157.079565 203.648 
L 157.160781 230.528 
L 157.274484 190.208 
L 157.306971 200.288 
L 157.355701 201.408 
L 157.388187 200.288 
L 157.55062 241.728 
L 157.583107 237.248 
L 157.713053 199.168 
L 157.761783 207.008 
L 157.924216 228.288 
L 157.956702 232.768 
L 157.989189 230.528 
L 158.070405 222.688 
L 158.119135 215.968 
L 158.151622 221.568 
L 158.265325 231.648 
L 158.314055 242.848 
L 158.362785 237.248 
L 158.444001 194.688 
L 158.476488 207.008 
L 158.525217 209.248 
L 158.557704 202.528 
L 158.671407 259.648 
L 158.752623 233.888 
L 158.801353 226.048 
L 158.83384 232.768 
L 158.947543 252.928 
L 158.996273 246.208 
L 159.077489 268.608 
L 159.321138 191.328 
L 159.353625 201.408 
L 159.483571 223.808 
L 159.597274 191.328 
L 159.629761 196.928 
L 159.710977 214.848 
L 159.759707 208.128 
L 159.840924 182.368 
L 159.889653 187.968 
L 160.035843 205.888 
L 160.117059 151.008 
L 160.165789 155.488 
L 160.279492 212.608 
L 160.311979 209.248 
L 160.458168 165.568 
L 160.490655 167.808 
L 160.604358 227.168 
L 160.653088 227.168 
L 160.718061 221.568 
L 161.075413 179.008 
L 161.140386 157.728 
L 161.172873 162.208 
L 161.254089 203.648 
L 161.286576 201.408 
L 161.367792 176.768 
L 161.400279 183.488 
L 161.530225 220.448 
L 161.562712 209.248 
L 161.595198 211.488 
L 161.643928 222.688 
L 161.676415 211.488 
L 161.725145 205.888 
L 161.757631 208.128 
L 161.822604 210.368 
L 161.887577 181.248 
L 161.968794 227.168 
L 162.05001 226.048 
L 162.082497 224.928 
L 162.212443 202.528 
L 162.24493 208.128 
L 162.358633 241.728 
L 162.488579 187.968 
L 162.569795 228.288 
L 162.618525 222.688 
L 162.699742 207.008 
L 162.764715 179.008 
L 162.813445 195.808 
L 162.894661 217.088 
L 162.959634 184.608 
L 163.008364 193.568 
L 163.089581 210.368 
L 163.122067 207.008 
L 163.170797 208.128 
L 163.33323 221.568 
L 163.38196 221.568 
L 163.414446 222.688 
L 163.495663 205.888 
L 163.528149 210.368 
L 163.690582 226.048 
L 163.723069 226.048 
L 163.771799 220.448 
L 163.901745 161.088 
L 164.096664 221.568 
L 164.177881 229.408 
L 164.454017 189.088 
L 164.535233 204.768 
L 164.56772 199.168 
L 164.616449 199.168 
L 164.697666 174.528 
L 164.746396 187.968 
L 164.860099 217.088 
L 164.892585 213.728 
L 164.941315 212.608 
L 165.055018 192.448 
L 165.136235 180.128 
L 165.217451 194.688 
L 165.249938 187.968 
L 165.347397 201.408 
L 165.428614 210.368 
L 165.4611 209.248 
L 165.493587 207.008 
L 165.574803 185.728 
L 165.623533 193.568 
L 165.65602 195.808 
L 165.737236 154.368 
L 165.769723 176.768 
L 165.899669 231.648 
L 165.932156 227.168 
L 165.980885 202.528 
L 166.029615 203.648 
L 166.175805 222.688 
L 166.224535 224.928 
L 166.257021 222.688 
L 166.305751 221.568 
L 166.581887 164.448 
L 166.74432 211.488 
L 166.79305 205.888 
L 166.825536 209.248 
L 166.939239 215.968 
L 167.134159 185.728 
L 167.296592 224.928 
L 167.394051 221.568 
L 167.507754 192.448 
L 167.556484 195.808 
L 167.621457 199.168 
L 167.670187 192.448 
L 167.702674 198.048 
L 167.78389 203.648 
L 167.865107 152.128 
L 167.897593 153.248 
L 168.011296 203.648 
L 168.076269 201.408 
L 168.108756 201.408 
L 168.238702 209.248 
L 168.303675 221.568 
L 168.352405 217.088 
L 168.466108 194.688 
L 168.498595 196.928 
L 168.547324 194.688 
L 168.758487 212.608 
L 168.839704 182.368 
L 168.87219 187.968 
L 168.985893 221.568 
L 169.115839 212.608 
L 169.148326 212.608 
L 169.229542 193.568 
L 169.310759 170.048 
L 169.375732 217.088 
L 169.440705 214.848 
L 169.521922 190.208 
L 169.554408 198.048 
L 169.635625 224.928 
L 169.668111 221.568 
L 169.863031 179.008 
L 169.91176 182.368 
L 170.05795 223.808 
L 170.10668 212.608 
L 170.20414 151.008 
L 170.236626 173.408 
L 170.317843 223.808 
L 170.399059 222.688 
L 170.480275 191.328 
L 170.512762 212.608 
L 170.545249 226.048 
L 170.626465 218.208 
L 170.675195 222.688 
L 170.707681 221.568 
L 170.837628 193.568 
L 170.886358 202.528 
L 170.967574 218.208 
L 171.000061 213.728 
L 171.081277 192.448 
L 171.113764 196.928 
L 171.227467 209.248 
L 171.276196 217.088 
L 171.308683 215.968 
L 171.389899 177.888 
L 171.438629 194.688 
L 171.471116 210.368 
L 171.568576 204.768 
L 171.601062 205.888 
L 171.682279 199.168 
L 171.714765 201.408 
L 171.795982 224.928 
L 171.844711 222.688 
L 171.877198 210.368 
L 171.909685 218.208 
L 171.990901 243.968 
L 172.039631 239.488 
L 172.18582 180.128 
L 172.396983 226.048 
L 172.4782 221.568 
L 172.640632 186.848 
L 172.673119 210.368 
L 172.721849 203.648 
L 172.803065 176.768 
L 172.835552 182.368 
L 172.933012 201.408 
L 172.965498 192.448 
L 173.014228 181.248 
L 173.046715 184.608 
L 173.127931 218.208 
L 173.160418 211.488 
L 173.209147 208.128 
L 173.355337 215.968 
L 173.436553 223.808 
L 173.550256 204.768 
L 173.647716 228.288 
L 173.696446 226.048 
L 173.761419 201.408 
L 173.810149 177.888 
L 173.842636 185.728 
L 173.923852 214.848 
L 174.005068 211.488 
L 174.118771 208.128 
L 174.199988 193.568 
L 174.232474 196.928 
L 174.297448 202.528 
L 174.329934 196.928 
L 174.411151 185.728 
L 174.443637 193.568 
L 174.492367 196.928 
L 174.60607 176.768 
L 174.6548 187.968 
L 174.687286 195.808 
L 174.768503 159.968 
L 174.800989 179.008 
L 174.882206 212.608 
L 174.914692 207.008 
L 175.012152 184.608 
L 175.060882 186.848 
L 175.207072 228.288 
L 175.255801 227.168 
L 175.288288 226.048 
L 175.369504 208.128 
L 175.450721 187.968 
L 175.483207 198.048 
L 175.564424 210.368 
L 175.69437 174.528 
L 175.889289 224.928 
L 175.938019 215.968 
L 175.970506 196.928 
L 176.051722 201.408 
L 176.084209 201.408 
L 176.132939 198.048 
L 176.214155 170.048 
L 176.246642 174.528 
L 176.376588 207.008 
L 176.539021 154.368 
L 176.571507 159.968 
L 176.73394 211.488 
L 176.815157 205.888 
L 176.896373 200.288 
L 176.92886 201.408 
L 177.042563 210.368 
L 177.107536 207.008 
L 177.253725 161.088 
L 177.302455 165.568 
L 177.383672 199.168 
L 177.416158 196.928 
L 177.497375 156.608 
L 177.529861 163.328 
L 177.611078 184.608 
L 177.724781 183.488 
L 177.789754 191.328 
L 177.82224 187.968 
L 177.87097 184.608 
L 177.903457 187.968 
L 177.984673 198.048 
L 178.01716 195.808 
L 178.098376 182.368 
L 178.130863 186.848 
L 178.293296 220.448 
L 178.325782 215.968 
L 178.618161 186.848 
L 178.699378 205.888 
L 178.748108 204.768 
L 178.813081 190.208 
L 178.861811 195.808 
L 178.943027 223.808 
L 179.008 220.448 
L 179.186676 187.968 
L 179.235406 198.048 
L 179.267893 194.688 
L 179.430326 134.208 
L 179.576515 230.528 
L 179.625245 229.408 
L 179.771435 208.128 
L 179.836408 211.488 
L 179.950111 215.968 
L 180.031327 203.648 
L 180.14503 183.488 
L 180.258733 191.328 
L 180.307463 173.408 
L 180.372436 182.368 
L 180.421166 196.928 
L 180.453653 186.848 
L 180.551112 146.528 
L 180.599842 155.488 
L 180.713545 230.528 
L 180.746032 226.048 
L 180.940951 208.128 
L 181.022168 190.208 
L 181.054654 195.808 
L 181.135871 198.048 
L 181.184601 192.448 
L 181.23333 193.568 
L 181.314547 203.648 
L 181.42825 151.008 
L 181.47698 165.568 
L 181.623169 217.088 
L 181.704386 192.448 
L 181.785602 148.768 
L 181.818089 163.328 
L 181.964278 211.488 
L 182.029251 185.728 
L 182.077981 191.328 
L 182.191684 215.968 
L 182.224171 205.888 
L 182.354117 121.888 
L 182.500307 219.328 
L 182.581523 215.968 
L 182.678983 222.688 
L 182.760199 220.448 
L 182.841416 209.248 
L 182.906389 179.008 
L 182.955119 184.608 
L 182.987605 186.848 
L 183.036335 179.008 
L 183.117551 121.888 
L 183.150038 152.128 
L 183.263741 212.608 
L 183.328714 209.248 
L 183.442417 220.448 
L 183.474904 217.088 
L 183.588607 166.688 
L 183.637337 174.528 
L 183.718553 215.968 
L 183.75104 211.488 
L 183.864743 187.968 
L 183.913472 198.048 
L 183.945959 195.808 
L 184.010932 180.128 
L 184.075905 183.488 
L 184.205852 210.368 
L 184.238338 201.408 
L 184.352041 180.128 
L 184.69315 218.208 
L 184.758123 208.128 
L 184.83934 202.528 
L 184.88807 205.888 
L 184.969286 213.728 
L 185.115476 161.088 
L 185.196692 184.608 
L 185.277908 198.048 
L 185.310395 191.328 
L 185.521558 161.088 
L 185.602774 199.168 
L 185.651504 185.728 
L 185.683991 168.928 
L 185.716477 172.288 
L 185.87891 211.488 
L 185.911397 210.368 
L 185.992613 227.168 
L 186.041343 226.048 
L 186.203776 208.128 
L 186.284992 201.408 
L 186.333722 205.888 
L 186.398695 219.328 
L 186.447425 212.608 
L 186.593615 189.088 
L 186.674831 183.488 
L 186.723561 187.968 
L 186.804777 191.328 
L 186.853507 198.048 
L 186.885994 190.208 
L 187.080913 143.168 
L 187.129643 153.248 
L 187.243346 232.768 
L 187.275833 230.528 
L 187.405779 179.008 
L 187.438265 181.248 
L 187.649428 237.248 
L 187.698158 235.008 
L 187.763131 207.008 
L 187.811861 227.168 
L 187.844348 237.248 
L 187.925564 236.128 
L 188.169213 210.368 
L 188.217943 211.488 
L 188.412863 172.288 
L 188.445349 182.368 
L 188.494079 194.688 
L 188.526566 179.008 
L 188.607782 138.688 
L 188.640269 165.568 
L 188.721485 165.568 
L 188.851431 220.448 
L 188.981378 196.928 
L 189.013864 183.488 
L 189.062594 189.088 
L 189.176297 220.448 
L 189.208784 215.968 
L 189.257513 214.848 
L 189.29 218.208 
L 189.322487 213.728 
L 189.403703 212.608 
L 189.663596 172.288 
L 189.696082 182.368 
L 189.744812 183.488 
L 189.809785 158.848 
L 189.858515 173.408 
L 189.972218 187.968 
L 190.004705 186.848 
L 190.134651 146.528 
L 190.264597 211.488 
L 190.3783 144.288 
L 190.42703 167.808 
L 190.540733 221.568 
L 190.57322 218.208 
L 190.654436 185.728 
L 190.686922 200.288 
L 190.768139 213.728 
L 190.816869 212.608 
L 190.979302 185.728 
L 191.141734 213.728 
L 191.336654 194.688 
L 191.41787 201.408 
L 191.450357 198.048 
L 191.531573 181.248 
L 191.580303 167.808 
L 191.629033 172.288 
L 191.66152 180.128 
L 191.710249 175.648 
L 191.791466 136.448 
L 191.823952 157.728 
L 191.986385 203.648 
L 192.051358 204.768 
L 192.100088 202.528 
L 192.213791 123.008 
L 192.262521 144.288 
L 192.343738 209.248 
L 192.392467 202.528 
L 192.473684 157.728 
L 192.50617 166.688 
L 192.668603 220.448 
L 192.944739 210.368 
L 193.107172 187.968 
L 193.220875 202.528 
L 193.269605 201.408 
L 193.432038 193.568 
L 193.497011 204.768 
L 193.545741 202.528 
L 193.659444 179.008 
L 193.708174 182.368 
L 193.870606 194.688 
L 194.065526 185.728 
L 194.146742 182.368 
L 194.179229 184.608 
L 194.227959 186.848 
L 194.309175 185.728 
L 194.471608 176.768 
L 194.552824 186.848 
L 194.585311 183.488 
L 194.942663 171.168 
L 195.02388 171.168 
L 195.202556 163.328 
L 195.235042 163.328 
L 195.397475 167.808 
L 195.429962 168.928 
L 195.511178 157.728 
L 195.543665 161.088 
L 195.706098 166.688 
L 195.738584 166.688 
L 195.836044 165.568 
L 196.307099 174.528 
L 196.518262 171.168 
L 196.566992 171.168 
L 196.648208 166.688 
L 196.680695 167.808 
L 196.843128 167.808 
L 196.956831 159.968 
L 196.989317 162.208 
L 197.038047 164.448 
L 197.167993 155.488 
L 197.20048 155.488 
L 197.330426 154.368 
L 197.444129 156.608 
L 197.557832 155.488 
L 197.671535 155.488 
L 197.882698 162.208 
L 197.931428 162.208 
L 198.077617 164.448 
L 198.126347 164.448 
L 198.158834 163.328 
L 198.207564 164.448 
L 198.321267 166.688 
L 198.43497 165.568 
L 198.483699 165.568 
L 198.646132 162.208 
L 198.841052 162.208 
L 199.003485 159.968 
L 199.198404 163.328 
L 199.247134 163.328 
L 200.010568 179.008 
L 200.059298 179.008 
L 200.205488 181.248 
L 200.254218 181.248 
L 200.367921 183.488 
L 200.400407 182.368 
L 200.449137 183.488 
L 200.56284 183.488 
L 200.692786 186.848 
L 200.806489 185.728 
L 200.968922 185.728 
L 201.131355 187.968 
L 201.163842 187.968 
L 201.69987 198.048 
L 201.764843 198.048 
L 201.959763 201.408 
L 202.105952 201.408 
L 202.219655 202.528 
L 202.333358 202.528 
L 202.414575 203.648 
L 202.528278 202.528 
L 202.641981 203.648 
L 202.73944 203.648 
L 202.853143 202.528 
L 203.210496 202.528 
L 203.324199 201.408 
L 203.421658 201.408 
L 203.535361 200.288 
L 203.616578 200.288 
L 203.746524 199.168 
L 203.860227 199.168 
L 203.97393 198.048 
L 204.006417 198.048 
L 204.152606 199.168 
L 204.347526 199.168 
L 204.428742 200.288 
L 204.574932 195.808 
L 204.623661 195.808 
L 204.786094 192.448 
L 204.948527 192.448 
L 205.06223 191.328 
L 205.143447 191.328 
L 205.305879 189.088 
L 205.419582 189.088 
L 205.452069 190.208 
L 205.517042 189.088 
L 205.598259 189.088 
L 205.711962 187.968 
L 205.825665 189.088 
L 205.906881 189.088 
L 206.05307 191.328 
L 206.231747 191.328 
L 206.735288 201.408 
L 206.784018 201.408 
L 206.995181 207.008 
L 207.157614 204.768 
L 207.271317 204.768 
L 207.43375 207.008 
L 207.596183 207.008 
L 207.791102 204.768 
L 207.872318 204.768 
L 208.034751 202.528 
L 208.067238 202.528 
L 208.180941 187.968 
L 208.278401 194.688 
L 208.440833 203.648 
L 208.52205 200.288 
L 208.668239 211.488 
L 208.798186 204.768 
L 208.960619 213.728 
L 209.155538 213.728 
L 209.480404 208.128 
L 209.51289 208.128 
L 209.724053 203.648 
L 209.75654 203.648 
L 209.918972 201.408 
L 210.276325 201.408 
L 210.406271 202.528 
L 210.519974 202.528 
L 210.568704 201.408 
L 210.60119 202.528 
L 210.714893 203.648 
L 210.763623 203.648 
L 210.79611 202.528 
L 210.84484 203.648 
L 210.877326 203.648 
L 210.991029 202.528 
L 211.120976 202.528 
L 211.250922 201.408 
L 211.397111 203.648 
L 211.559544 203.648 
L 211.640761 204.768 
L 211.770707 203.648 
L 211.803194 204.768 
L 211.851923 203.648 
L 211.88441 203.648 
L 212.128059 207.008 
L 212.274249 207.008 
L 212.322979 208.128 
L 212.355465 207.008 
L 212.534141 207.008 
L 212.647844 205.888 
L 212.729061 205.888 
L 212.891494 203.648 
L 213.102656 203.648 
L 213.216359 204.768 
L 213.719901 204.768 
L 213.817361 203.648 
L 213.931064 204.768 
L 214.06101 204.768 
L 214.174713 203.648 
L 214.2072 203.648 
L 214.288416 204.768 
L 214.402119 203.648 
L 214.662012 203.648 
L 214.775715 204.768 
L 214.970634 204.768 
L 215.133067 207.008 
L 215.230527 207.008 
L 215.34423 208.128 
L 215.539149 208.128 
L 215.652852 209.248 
L 215.945231 209.248 
L 216.107664 207.008 
L 216.302584 207.008 
L 216.416287 205.888 
L 216.52999 205.888 
L 216.741152 203.648 
L 216.854855 203.648 
L 216.936072 202.528 
L 216.984802 203.648 
L 217.017288 202.528 
L 217.4721 202.528 
L 217.585803 201.408 
L 217.699506 201.408 
L 217.894426 203.648 
L 217.959399 203.648 
L 218.073102 204.768 
L 218.105588 204.768 
L 218.219291 205.888 
L 218.300508 205.888 
L 218.430454 207.008 
L 218.75532 207.008 
L 218.836536 205.888 
L 218.950239 207.008 
L 218.982726 207.008 
L 219.112672 205.888 
L 219.356321 205.888 
L 219.470024 204.768 
L 219.827377 204.768 
L 219.94108 203.648 
L 220.542081 203.648 
L 220.704514 201.408 
L 221.224299 201.408 
L 221.354245 200.288 
L 221.597895 200.288 
L 221.711598 201.408 
L 221.841544 201.408 
L 221.87403 200.288 
L 221.906517 201.408 
L 222.280113 201.408 
L 222.475032 203.648 
L 222.588735 203.648 
L 222.718681 202.528 
L 223.498359 202.528 
L 223.612062 201.408 
L 223.725765 201.408 
L 223.806981 202.528 
L 223.920684 201.408 
L 224.213064 201.408 
L 224.326767 200.288 
L 224.407983 200.288 
L 224.521686 201.408 
L 224.570416 201.408 
L 224.602902 200.288 
L 224.635389 201.408 
L 224.797822 201.408 
L 224.976498 199.168 
L 225.090201 200.288 
L 225.447553 200.288 
L 225.5775 199.168 
L 226.162258 199.168 
L 226.210988 198.048 
L 226.243474 199.168 
L 226.292204 199.168 
L 226.42215 198.048 
L 226.763259 198.048 
L 226.811989 196.928 
L 226.844476 198.048 
L 227.380504 198.048 
L 227.445477 199.168 
L 227.494207 198.048 
L 227.526694 199.168 
L 227.65664 199.168 
L 227.786586 200.288 
L 228.062722 200.288 
L 228.176425 199.168 
L 228.290128 199.168 
L 228.420075 200.288 
L 230.174349 200.288 
L 230.304296 201.408 
L 230.434242 200.288 
L 230.661648 200.288 
L 230.791594 199.168 
L 230.937784 199.168 
L 231.051487 198.048 
L 231.343866 198.048 
L 231.473812 196.928 
L 232.35095 196.928 
L 232.464653 198.048 
L 232.838248 198.048 
L 232.951951 196.928 
L 233.033168 196.928 
L 233.179357 192.448 
L 233.325547 193.568 
L 233.39052 193.568 
L 233.43925 194.688 
L 233.471736 193.568 
L 233.520466 193.568 
L 233.666656 196.928 
L 233.796602 195.808 
L 233.829089 196.928 
L 233.861575 195.808 
L 233.959035 195.808 
L 234.072738 196.928 
L 234.235171 196.928 
L 234.348874 195.808 
L 234.47882 195.808 
L 234.608766 193.568 
L 234.722469 194.688 
L 234.884902 194.688 
L 234.998605 193.568 
L 235.031092 193.568 
L 235.161038 194.688 
L 235.226011 191.328 
L 235.290984 192.448 
L 235.404687 194.688 
L 235.485904 194.688 
L 235.599607 193.568 
L 235.875743 201.408 
L 236.200608 201.408 
L 236.363041 199.168 
L 236.411771 200.288 
L 236.444257 199.168 
L 236.736637 199.168 
L 236.817853 200.288 
L 236.899069 199.168 
L 237.012772 200.288 
L 237.256422 200.288 
L 237.305152 199.168 
L 237.337638 200.288 
L 237.483828 200.288 
L 237.597531 199.168 
L 237.630017 199.168 
L 237.759964 200.288 
L 238.214776 200.288 
L 238.295992 198.048 
L 238.328479 199.168 
L 238.377208 199.168 
L 238.490911 200.288 
L 238.685831 200.288 
L 238.83202 201.408 
L 238.864507 201.408 
L 238.994453 200.288 
L 239.07567 200.288 
L 239.108156 201.408 
L 239.156886 200.288 
L 239.270589 200.288 
L 239.384292 199.168 
L 239.481752 199.168 
L 239.611698 198.048 
L 239.644185 198.048 
L 239.839104 194.688 
L 239.920321 195.808 
L 240.050267 192.448 
L 240.180213 196.928 
L 240.293916 194.688 
L 240.423862 195.808 
L 240.667512 195.808 
L 240.829945 193.568 
L 241.041107 189.088 
L 241.073594 190.208 
L 241.122324 190.208 
L 241.236027 189.088 
L 241.317243 189.088 
L 241.479676 186.848 
L 241.658352 184.608 
L 241.690839 184.608 
L 241.885758 181.248 
L 242.015704 182.368 
L 242.356813 182.368 
L 242.503003 184.608 
L 242.632949 184.608 
L 242.746652 185.728 
L 242.876599 185.728 
L 242.957815 184.608 
L 243.087761 185.728 
L 243.168978 185.728 
L 243.282681 186.848 
L 243.363897 186.848 
L 243.4776 187.968 
L 243.52633 187.968 
L 243.656276 190.208 
L 243.705006 190.208 
L 243.818709 189.088 
L 244.143575 194.688 
L 244.224791 194.688 
L 244.403467 198.048 
L 244.435954 198.048 
L 244.549657 199.168 
L 244.630873 199.168 
L 244.76082 200.288 
L 244.955739 200.288 
L 245.085685 199.168 
L 245.215632 199.168 
L 245.378064 196.928 
L 245.459281 198.048 
L 245.60547 195.808 
L 245.6542 195.808 
L 245.832876 193.568 
L 245.865363 193.568 
L 245.995309 194.688 
L 246.109012 193.568 
L 246.222715 194.688 
L 246.368905 193.568 
L 246.563824 193.568 
L 246.645041 191.328 
L 246.677527 192.448 
L 246.726257 192.448 
L 246.83996 193.568 
L 247.002393 191.328 
L 247.148583 191.328 
L 247.181069 192.448 
L 247.213556 191.328 
L 247.375989 191.328 
L 247.505935 192.448 
L 247.538421 192.448 
L 247.668368 191.328 
L 247.700854 191.328 
L 247.830801 192.448 
L 247.960747 193.568 
L 248.155666 193.568 
L 248.204396 194.688 
L 248.236883 193.568 
L 248.269369 193.568 
L 248.448045 191.328 
L 248.529262 191.328 
L 248.610478 189.088 
L 248.659208 190.208 
L 248.691695 190.208 
L 248.805398 191.328 
L 248.886614 191.328 
L 248.935344 190.208 
L 248.967831 191.328 
L 249.422643 191.328 
L 249.471372 190.208 
L 249.503859 191.328 
L 249.552589 192.448 
L 249.666292 183.488 
L 249.715022 184.608 
L 249.796238 180.128 
L 250.088617 201.408 
L 250.20232 202.528 
L 250.283537 202.528 
L 250.478456 199.168 
L 250.543429 199.168 
L 250.738349 195.808 
L 250.787079 195.808 
L 250.981998 192.448 
L 251.176917 192.448 
L 251.323107 191.328 
L 251.355593 191.328 
L 251.599243 194.688 
L 251.761676 194.688 
L 251.972838 199.168 
L 252.135271 199.168 
L 252.167758 198.048 
L 252.216488 200.288 
L 252.248974 199.168 
L 252.330191 195.808 
L 252.37892 196.928 
L 252.541353 199.168 
L 252.703786 199.168 
L 252.833732 198.048 
L 252.914949 199.168 
L 253.028652 198.048 
L 253.109868 198.048 
L 253.223571 196.928 
L 253.369761 196.928 
L 253.532194 194.688 
L 253.56468 194.688 
L 253.7596 192.448 
L 253.889546 193.568 
L 254.458061 193.568 
L 254.588007 194.688 
L 254.717954 193.568 
L 254.831657 192.448 
L 254.912873 192.448 
L 254.994089 193.568 
L 255.124036 192.448 
L 255.156522 192.448 
L 255.205252 193.568 
L 255.237739 192.448 
L 255.416415 190.208 
L 255.611334 193.568 
L 255.773767 195.808 
L 255.88747 195.808 
L 256.017416 196.928 
L 256.309796 196.928 
L 256.423499 195.808 
L 256.553445 196.928 
L 256.845824 196.928 
L 256.959527 195.808 
L 257.008257 195.808 
L 257.040743 194.688 
L 257.089473 195.808 
L 257.203176 195.808 
L 257.365609 198.048 
L 257.544285 198.048 
L 257.625502 199.168 
L 257.739205 198.048 
L 257.901638 198.048 
L 258.015341 196.928 
L 258.06407 196.928 
L 258.194017 195.808 
L 258.323963 195.808 
L 258.486396 193.568 
L 258.518882 193.568 
L 258.632585 194.688 
L 258.762532 193.568 
L 258.795018 193.568 
L 258.941208 194.688 
L 259.168614 194.688 
L 259.29856 195.808 
L 259.412263 195.808 
L 259.460993 194.688 
L 259.493479 195.808 
L 259.704642 195.808 
L 259.753372 196.928 
L 259.785859 195.808 
L 259.915805 195.808 
L 260.029508 194.688 
L 260.370617 194.688 
L 260.403103 193.568 
L 260.451833 194.688 
L 260.614266 194.688 
L 260.727969 193.568 
L 260.809186 193.568 
L 260.939132 192.448 
L 261.150295 192.448 
L 261.182781 193.568 
L 261.231511 192.448 
L 261.263998 192.448 
L 261.296484 193.568 
L 261.345214 192.448 
L 261.637593 192.448 
L 261.767539 191.328 
L 262.157378 191.328 
L 262.384784 187.968 
L 263.148219 187.968 
L 263.278165 186.848 
L 263.505571 186.848 
L 263.635517 185.728 
L 263.765464 186.848 
L 263.927896 186.848 
L 264.041599 185.728 
L 264.171546 185.728 
L 264.204032 186.848 
L 264.252762 185.728 
L 264.285249 185.728 
L 264.431438 186.848 
L 264.512655 185.728 
L 264.626358 190.208 
L 264.658844 189.088 
L 264.740061 187.968 
L 264.902494 190.208 
L 264.98371 184.608 
L 265.03244 185.728 
L 265.194873 192.448 
L 265.357306 194.688 
L 265.438522 194.688 
L 265.600955 192.448 
L 265.633441 193.568 
L 265.682171 192.448 
L 265.714658 192.448 
L 265.97455 189.088 
L 266.16947 189.088 
L 266.299416 190.208 
L 266.331903 190.208 
L 266.478092 189.088 
L 266.510579 189.088 
L 266.591795 190.208 
L 266.754228 187.968 
L 266.949147 191.328 
L 267.030364 191.328 
L 267.079094 190.208 
L 267.11158 191.328 
L 267.20904 191.328 
L 267.322743 192.448 
L 267.403959 192.448 
L 267.533906 189.088 
L 267.696339 193.568 
L 267.810042 193.568 
L 267.939988 191.328 
L 268.021204 192.448 
L 268.183637 190.208 
L 268.232367 192.448 
L 268.313583 191.328 
L 268.768395 191.328 
L 268.914585 189.088 
L 269.158234 189.088 
L 269.33691 186.848 
L 269.38564 186.848 
L 269.499343 187.968 
L 269.53183 187.968 
L 269.661776 189.088 
L 269.824209 189.088 
L 269.954155 190.208 
L 269.986642 190.208 
L 270.116588 189.088 
L 270.279021 191.328 
L 270.392724 191.328 
L 270.47394 190.208 
L 270.587643 192.448 
L 270.76632 190.208 
L 270.928752 193.568 
L 270.977482 194.688 
L 271.009969 193.568 
L 271.172402 193.568 
L 271.286105 195.808 
L 271.351078 196.928 
L 271.383564 195.808 
L 271.432294 195.808 
L 271.578484 199.168 
L 271.789647 204.768 
L 271.870863 203.648 
L 271.90335 203.648 
L 272.049539 202.528 
L 272.163242 202.528 
L 272.244459 201.408 
L 272.325675 203.648 
L 272.358162 202.528 
L 272.439378 202.528 
L 272.569324 200.288 
L 272.731757 204.768 
L 272.780487 204.768 
L 273.024136 198.048 
L 273.186569 205.888 
L 273.219056 202.528 
L 273.300272 191.328 
L 273.332759 194.688 
L 273.722598 219.328 
L 273.755084 220.448 
L 274.096193 176.768 
L 274.258626 195.808 
L 274.291112 195.808 
L 274.486032 207.008 
L 274.615978 208.128 
L 274.940844 196.928 
L 274.989574 198.048 
L 275.07079 198.048 
L 275.428142 159.968 
L 275.476872 166.688 
L 275.720522 198.048 
L 275.964171 147.648 
L 275.996657 158.848 
L 276.077874 174.528 
L 276.126604 170.048 
L 276.25655 147.648 
L 276.30528 153.248 
L 276.386496 181.248 
L 276.418983 177.888 
L 276.500199 186.848 
L 276.532686 182.368 
L 276.581416 179.008 
L 276.695119 203.648 
L 276.873795 133.088 
L 276.922525 136.448 
L 277.003741 166.688 
L 277.149931 223.808 
L 277.231147 255.168 
L 277.279877 246.208 
L 277.361093 192.448 
L 277.44231 204.768 
L 277.653473 252.928 
L 277.767176 195.808 
L 277.815905 201.408 
L 277.929608 226.048 
L 278.010825 209.248 
L 278.173258 261.888 
L 278.205744 263.008 
L 278.303204 217.088 
L 278.351934 232.768 
L 278.38442 248.448 
L 278.43315 240.608 
L 278.514367 213.728 
L 278.546853 226.048 
L 278.62807 251.808 
L 278.6768 246.208 
L 278.741773 221.568 
L 278.822989 228.288 
L 278.904206 208.128 
L 279.001665 236.128 
L 279.050395 233.888 
L 279.131612 211.488 
L 279.164098 220.448 
L 279.212828 236.128 
L 279.245315 235.008 
L 279.359018 205.888 
L 279.52145 274.208 
L 279.700127 199.168 
L 279.748856 181.248 
L 279.781343 186.848 
L 279.943776 224.928 
L 280.024992 240.608 
L 280.057479 232.768 
L 280.187425 166.688 
L 280.219912 187.968 
L 280.301128 231.648 
L 280.398588 223.808 
L 280.561021 242.848 
L 280.479804 221.568 
L 280.593507 238.368 
L 280.674724 163.328 
L 280.723454 191.328 
L 280.95086 265.248 
L 281.048319 285.408 
L 281.178266 223.808 
L 281.210752 235.008 
L 281.259482 249.568 
L 281.291969 241.728 
L 281.373185 224.928 
L 281.454401 226.048 
L 281.79551 161.088 
L 281.909213 250.688 
L 281.957943 295.488 
L 281.99043 241.728 
L 282.071646 186.848 
L 282.104133 198.048 
L 282.185349 239.488 
L 282.234079 221.568 
L 282.266566 207.008 
L 282.315295 215.968 
L 282.347782 247.328 
L 282.412755 229.408 
L 282.493972 191.328 
L 282.526458 208.128 
L 282.640161 221.568 
L 282.770107 208.128 
L 282.93254 248.448 
L 283.111216 148.768 
L 283.143703 174.528 
L 283.224919 243.968 
L 283.257406 235.008 
L 283.468569 167.808 
L 283.501055 223.808 
L 283.582272 194.688 
L 283.695975 246.208 
L 283.744705 231.648 
L 283.793434 210.368 
L 283.842164 213.728 
L 283.955867 264.128 
L 284.037084 177.888 
L 284.085814 186.848 
L 284.16703 240.608 
L 284.199517 202.528 
L 284.280733 131.968 
L 284.394436 243.968 
L 284.491896 227.168 
L 284.540626 231.648 
L 284.621842 240.608 
L 284.735545 159.968 
L 284.768032 129.728 
L 284.816761 170.048 
L 284.979194 231.648 
L 285.011681 233.888 
L 285.060411 230.528 
L 285.239087 183.488 
L 285.271573 184.608 
L 285.30406 214.848 
L 285.35279 204.768 
L 285.434006 166.688 
L 285.466493 177.888 
L 285.515223 183.488 
L 285.596439 224.928 
L 285.628926 218.208 
L 285.758872 168.928 
L 285.791359 128.608 
L 285.823845 151.008 
L 285.921305 214.848 
L 285.970035 195.808 
L 286.002521 170.048 
L 286.051251 182.368 
L 286.132468 219.328 
L 286.164954 205.888 
L 286.213684 203.648 
L 286.44109 138.688 
L 286.522306 177.888 
L 286.58728 157.728 
L 286.619766 171.168 
L 286.668496 205.888 
L 286.700983 190.208 
L 286.749712 165.568 
L 286.782199 179.008 
L 286.830929 209.248 
L 286.895902 181.248 
L 286.944632 183.488 
L 286.977118 193.568 
L 287.025848 177.888 
L 287.058335 177.888 
L 287.139551 220.448 
L 287.220768 213.728 
L 287.318227 226.048 
L 287.366957 207.008 
L 287.399444 208.128 
L 287.43193 228.288 
L 287.48066 195.808 
L 287.513147 195.808 
L 287.643093 233.888 
L 287.67558 228.288 
L 287.756796 168.928 
L 287.805526 183.488 
L 287.919229 214.848 
L 287.967959 208.128 
L 288.016689 217.088 
L 288.130392 148.768 
L 288.292825 223.808 
L 288.374041 157.728 
L 288.422771 175.648 
L 288.487744 221.568 
L 288.536474 213.728 
L 288.61769 161.088 
L 288.66642 165.568 
L 288.747637 209.248 
L 288.828853 196.928 
L 288.877583 199.168 
L 288.958799 215.968 
L 288.991286 205.888 
L 289.023772 203.648 
L 289.072502 211.488 
L 289.104989 201.408 
L 289.153719 192.448 
L 289.186205 196.928 
L 289.234935 213.728 
L 289.267422 212.608 
L 289.413611 127.488 
L 289.446098 158.848 
L 289.527314 201.408 
L 289.559801 193.568 
L 289.608531 189.088 
L 289.689747 151.008 
L 289.722234 173.408 
L 289.80345 221.568 
L 289.85218 207.008 
L 289.884666 208.128 
L 289.965883 198.048 
L 290.063343 213.728 
L 290.177046 145.408 
L 290.225775 182.368 
L 290.339478 214.848 
L 290.501911 118.528 
L 290.550641 136.448 
L 290.615614 198.048 
L 290.664344 193.568 
L 290.761804 121.888 
L 290.79429 148.768 
L 290.924237 212.608 
L 290.956723 194.688 
L 291.03794 130.848 
L 291.08667 149.888 
L 291.200373 226.048 
L 291.232859 223.808 
L 291.281589 220.448 
L 291.362805 170.048 
L 291.395292 124.128 
L 291.460265 143.168 
L 291.541482 193.568 
L 291.573968 181.248 
L 291.736401 159.968 
L 291.817617 173.408 
L 291.850104 167.808 
L 291.898834 152.128 
L 291.93132 168.928 
L 291.98005 187.968 
L 292.061267 185.728 
L 292.191213 164.448 
L 292.304916 127.488 
L 292.434862 192.448 
L 292.467349 186.848 
L 292.629782 142.048 
L 292.759728 195.808 
L 292.840944 144.288 
L 292.889674 159.968 
L 292.922161 164.448 
L 292.970891 151.008 
L 293.003377 164.448 
L 293.247027 229.408 
L 293.295756 223.808 
L 293.36073 200.288 
L 293.409459 215.968 
L 293.506919 227.168 
L 293.588136 184.608 
L 293.669352 186.848 
L 293.750568 181.248 
L 293.831785 198.048 
L 293.896758 175.648 
L 293.945488 193.568 
L 293.977974 208.128 
L 294.059191 196.928 
L 294.107921 182.368 
L 294.140407 187.968 
L 294.237867 203.648 
L 294.319083 157.728 
L 294.367813 194.688 
L 294.4003 191.328 
L 294.481516 154.368 
L 294.595219 241.728 
L 294.643949 241.728 
L 294.725166 187.968 
L 294.757652 205.888 
L 294.968815 156.608 
L 295.098761 212.608 
L 295.131248 201.408 
L 295.212464 155.488 
L 295.261194 185.728 
L 295.374897 213.728 
L 295.456113 189.088 
L 295.4886 204.768 
L 295.63479 218.208 
L 295.667276 217.088 
L 295.829709 176.768 
L 295.910925 111.808 
L 295.959655 147.648 
L 296.040872 208.128 
L 296.105845 205.888 
L 296.154575 198.048 
L 296.187061 200.288 
L 296.235791 204.768 
L 296.333251 186.848 
L 296.365737 199.168 
L 296.495684 190.208 
L 296.5769 154.368 
L 296.690603 218.208 
L 296.72309 210.368 
L 296.804306 154.368 
L 296.853036 170.048 
L 296.982982 221.568 
L 297.389064 146.528 
L 297.421551 156.608 
L 297.551497 214.848 
L 297.583984 198.048 
L 297.71393 154.368 
L 297.76266 168.928 
L 297.876363 205.888 
L 297.957579 170.048 
L 298.006309 195.808 
L 298.087526 215.968 
L 298.120012 203.648 
L 298.168742 181.248 
L 298.201229 187.968 
L 298.282445 202.528 
L 298.314932 189.088 
L 298.412391 193.568 
L 298.542338 200.288 
L 298.656041 167.808 
L 298.737257 182.368 
L 298.769744 185.728 
L 298.818473 183.488 
L 298.932176 145.408 
L 299.013393 157.728 
L 299.078366 174.528 
L 299.110853 154.368 
L 299.192069 127.488 
L 299.354502 207.008 
L 299.386988 199.168 
L 299.468205 181.248 
L 299.516935 183.488 
L 299.630638 214.848 
L 299.711854 200.288 
L 299.8418 152.128 
L 299.89053 177.888 
L 299.971747 199.168 
L 300.004233 198.048 
L 300.08545 199.168 
L 300.13418 175.648 
L 300.215396 117.408 
L 300.247883 148.768 
L 300.426559 217.088 
L 300.540262 159.968 
L 300.588992 176.768 
L 300.702695 214.848 
L 300.783911 202.528 
L 300.913857 177.888 
L 300.946344 181.248 
L 301.02756 200.288 
L 301.12502 140.928 
L 301.157507 143.168 
L 301.319939 215.968 
L 301.368669 213.728 
L 301.449886 135.328 
L 301.514859 159.968 
L 301.563589 172.288 
L 301.644805 212.608 
L 301.677292 210.368 
L 301.726022 215.968 
L 301.758508 212.608 
L 301.823481 209.248 
L 301.937184 165.568 
L 301.985914 189.088 
L 302.099617 210.368 
L 302.132104 209.248 
L 302.21332 173.408 
L 302.26205 184.608 
L 302.375753 208.128 
L 302.424483 198.048 
L 302.521943 128.608 
L 302.554429 153.248 
L 302.635646 192.448 
L 302.668132 186.848 
L 302.798078 127.488 
L 302.830565 117.408 
L 302.992998 222.688 
L 303.074214 189.088 
L 303.122944 172.288 
L 303.204161 179.008 
L 303.334107 212.608 
L 303.366593 229.408 
L 303.415323 218.208 
L 303.49654 209.248 
L 303.529026 217.088 
L 303.577756 214.848 
L 303.691459 151.008 
L 303.723946 183.488 
L 303.805162 210.368 
L 303.853892 201.408 
L 303.983838 185.728 
L 304.065055 186.848 
L 304.146271 159.968 
L 304.227488 193.568 
L 304.308704 189.088 
L 304.38992 174.528 
L 304.422407 177.888 
L 304.471137 194.688 
L 304.503623 191.328 
L 304.601083 149.888 
L 304.649813 156.608 
L 304.763516 200.288 
L 304.796002 195.808 
L 304.925949 205.888 
L 305.039652 215.968 
L 305.250814 186.848 
L 305.332031 100.608 
L 305.380761 143.168 
L 305.494464 227.168 
L 305.543194 223.808 
L 305.656897 194.688 
L 305.705626 195.808 
L 305.819329 223.808 
L 305.851816 219.328 
L 305.933032 170.048 
L 305.998006 174.528 
L 306.079222 213.728 
L 306.111709 205.888 
L 306.192925 205.888 
L 306.274141 218.208 
L 306.355358 214.848 
L 306.436574 177.888 
L 306.469061 149.888 
L 306.517791 152.128 
L 306.696467 220.448 
L 306.728953 223.808 
L 306.777683 220.448 
L 306.891386 191.328 
L 306.923873 204.768 
L 307.005089 212.608 
L 307.053819 210.368 
L 307.508631 154.368 
L 307.541118 133.088 
L 307.589848 145.408 
L 307.75228 196.928 
L 307.784767 199.168 
L 307.914713 152.128 
L 308.028416 218.208 
L 308.077146 217.088 
L 308.125876 217.088 
L 308.207092 180.128 
L 308.239579 161.088 
L 308.288309 171.168 
L 308.402012 212.608 
L 308.531958 205.888 
L 308.775607 147.648 
L 308.824337 156.608 
L 308.905554 195.808 
L 308.93804 190.208 
L 309.019257 153.248 
L 309.067987 173.408 
L 309.18169 214.848 
L 309.214176 211.488 
L 309.344122 186.848 
L 309.441582 195.808 
L 309.474069 198.048 
L 309.555285 179.008 
L 309.636502 139.808 
L 309.668988 157.728 
L 309.798934 199.168 
L 309.880151 153.248 
L 309.912637 171.168 
L 310.07507 212.608 
L 310.17253 203.648 
L 310.205017 199.168 
L 310.286233 165.568 
L 310.334963 168.928 
L 310.367449 184.608 
L 310.448666 177.888 
L 310.692315 211.488 
L 310.773532 217.088 
L 310.822261 215.968 
L 310.952208 125.248 
L 310.984694 173.408 
L 311.195857 255.168 
L 311.30956 237.248 
L 311.390776 291.008 
L 311.423263 275.328 
L 311.471993 275.328 
L 311.569453 286.528 
L 311.731885 229.408 
L 311.764372 219.328 
L 311.813102 226.048 
L 311.845588 247.328 
L 311.926805 239.488 
L 311.959291 240.608 
L 312.170454 168.928 
L 312.267914 181.248 
L 312.3004 183.488 
L 312.381617 220.448 
L 312.414103 217.088 
L 312.54405 168.928 
L 312.576536 177.888 
L 312.738969 243.968 
L 312.787699 231.648 
L 312.917645 209.248 
L 312.998862 195.808 
L 313.031348 201.408 
L 313.112565 213.728 
L 313.274997 142.048 
L 313.323727 163.328 
L 313.43743 203.648 
L 313.469917 200.288 
L 313.551133 166.688 
L 313.616106 174.528 
L 313.697323 201.408 
L 313.729809 194.688 
L 313.859756 133.088 
L 313.892242 154.368 
L 314.054675 222.688 
L 314.217108 185.728 
L 314.249595 193.568 
L 314.347054 198.048 
L 314.395784 194.688 
L 314.428271 184.608 
L 314.477001 185.728 
L 314.590704 204.768 
L 314.62319 200.288 
L 314.753136 171.168 
L 314.785623 187.968 
L 314.866839 203.648 
L 314.915569 196.928 
L 315.013029 202.528 
L 315.045516 200.288 
L 315.094245 196.928 
L 315.207948 131.968 
L 315.370381 211.488 
L 315.484084 190.208 
L 315.614031 207.008 
L 315.646517 204.768 
L 315.695247 201.408 
L 315.825193 159.968 
L 315.85768 176.768 
L 316.020113 202.528 
L 316.344978 183.488 
L 316.474925 133.088 
L 316.523655 145.408 
L 316.79979 204.768 
L 316.913493 194.688 
L 317.059683 199.168 
L 317.09217 195.808 
L 317.140899 200.288 
L 317.173386 214.848 
L 317.254602 202.528 
L 317.417035 192.448 
L 317.498252 194.688 
L 317.579468 199.168 
L 317.790631 155.488 
L 317.839361 168.928 
L 317.953064 176.768 
L 318.03428 142.048 
L 318.066767 164.448 
L 318.196713 205.888 
L 318.2292 203.648 
L 318.359146 195.808 
L 318.456606 207.008 
L 318.570309 127.488 
L 318.602795 146.528 
L 318.732741 205.888 
L 318.765228 202.528 
L 318.846444 211.488 
L 318.895174 208.128 
L 318.976391 205.888 
L 319.008877 208.128 
L 319.041364 205.888 
L 319.138824 146.528 
L 319.187553 154.368 
L 319.26877 209.248 
L 319.301256 208.128 
L 319.382473 186.848 
L 319.463689 109.568 
L 319.512419 115.168 
L 319.658609 227.168 
L 319.707338 228.288 
L 319.788555 182.368 
L 319.837285 185.728 
L 319.918501 222.688 
L 319.967231 218.208 
L 320.048447 196.928 
L 320.080934 207.008 
L 320.16215 230.528 
L 320.194637 228.288 
L 320.275853 217.088 
L 320.324583 221.568 
L 320.4058 227.168 
L 320.438286 224.928 
L 320.584476 199.168 
L 320.616962 209.248 
L 320.665692 211.488 
L 320.698179 210.368 
L 320.779395 170.048 
L 320.860612 140.928 
L 321.023045 224.928 
L 321.055531 219.328 
L 321.104261 217.088 
L 321.234207 229.408 
L 321.34791 213.728 
L 321.39664 218.208 
L 321.429127 222.688 
L 321.477857 215.968 
L 321.559073 186.848 
L 321.59156 195.808 
L 321.721506 217.088 
L 321.753992 213.728 
L 321.867695 153.248 
L 321.932669 177.888 
L 322.013885 213.728 
L 322.046372 212.608 
L 322.371237 170.048 
L 322.63113 235.008 
L 322.663616 236.128 
L 322.793563 223.808 
L 322.826049 227.168 
L 322.874779 231.648 
L 322.907266 227.168 
L 323.069699 191.328 
L 323.102185 170.048 
L 323.183402 186.848 
L 323.264618 211.488 
L 323.362078 176.768 
L 323.410808 190.208 
L 323.524511 209.248 
L 323.556997 201.408 
L 323.605727 203.648 
L 323.71943 189.088 
L 323.849376 226.048 
L 323.881863 223.808 
L 323.963079 231.648 
L 324.028052 228.288 
L 324.093026 232.768 
L 324.141755 231.648 
L 324.222972 204.768 
L 324.304188 155.488 
L 324.336675 170.048 
L 324.466621 230.528 
L 324.499108 209.248 
L 324.580324 176.768 
L 324.629054 194.688 
L 324.71027 239.488 
L 324.759 230.528 
L 324.921433 198.048 
L 324.95392 200.288 
L 325.035136 220.448 
L 325.083866 211.488 
L 325.116353 191.328 
L 325.165082 199.168 
L 325.278785 228.288 
L 325.311272 224.928 
L 325.376245 221.568 
L 325.408732 222.688 
L 325.457462 227.168 
L 325.489948 224.928 
L 325.538678 223.808 
L 325.733597 243.968 
L 326.009733 198.048 
L 326.107193 212.608 
L 326.237139 237.248 
L 326.350842 185.728 
L 326.383329 209.248 
L 326.464545 254.048 
L 326.513275 242.848 
L 326.626978 191.328 
L 326.675708 203.648 
L 326.805654 251.808 
L 326.919357 181.248 
L 326.968087 205.888 
L 327.13052 248.448 
L 327.244223 181.248 
L 327.292953 203.648 
L 327.357926 238.368 
L 327.406656 223.808 
L 327.504115 187.968 
L 327.617818 246.208 
L 327.666548 248.448 
L 327.747765 201.408 
L 327.780251 204.768 
L 327.861468 235.008 
L 327.910198 231.648 
L 327.942684 231.648 
L 327.975171 228.288 
L 328.056387 182.368 
L 328.105117 199.168 
L 328.202577 237.248 
L 328.235063 221.568 
L 328.283793 212.608 
L 328.397496 250.688 
L 328.446226 249.568 
L 328.559929 219.328 
L 328.592416 204.768 
L 328.641145 208.128 
L 328.673632 228.288 
L 328.754848 210.368 
L 328.803578 192.448 
L 328.852308 204.768 
L 329.014741 232.768 
L 329.177174 187.968 
L 329.339607 236.128 
L 329.420823 207.008 
L 329.45331 217.088 
L 329.50204 226.048 
L 329.583256 203.648 
L 329.664472 238.368 
L 329.713202 227.168 
L 329.826905 166.688 
L 329.989338 247.328 
L 330.038068 241.728 
L 330.103041 166.688 
L 330.151771 180.128 
L 330.281717 240.608 
L 330.44415 221.568 
L 330.525367 235.008 
L 330.574096 229.408 
L 330.687799 137.568 
L 330.720286 187.968 
L 330.850232 239.488 
L 330.882719 236.128 
L 331.028908 167.808 
L 331.061395 193.568 
L 331.142611 232.768 
L 331.191341 231.648 
L 331.256314 182.368 
L 331.305044 199.168 
L 331.418747 240.608 
L 331.499964 218.208 
L 331.548694 221.568 
L 331.646153 232.768 
L 331.67864 230.528 
L 331.72737 230.528 
L 331.792343 214.848 
L 331.873559 217.088 
L 331.922289 224.928 
L 331.954776 222.688 
L 332.035992 201.408 
L 332.084722 181.248 
L 332.117209 185.728 
L 332.198425 202.528 
L 332.247155 199.168 
L 332.377101 161.088 
L 332.409588 170.048 
L 332.490804 193.568 
L 332.572021 236.128 
L 332.62075 233.888 
L 332.701967 210.368 
L 332.734453 220.448 
L 332.81567 224.928 
L 332.8644 223.808 
L 332.929373 220.448 
L 333.075562 213.728 
L 333.108049 214.848 
L 333.189265 190.208 
L 333.270482 156.608 
L 333.319212 164.448 
L 333.465401 202.528 
L 333.546618 182.368 
L 333.627834 144.288 
L 333.692807 145.408 
L 333.85524 191.328 
L 333.887727 192.448 
L 333.968943 166.688 
L 334.05016 177.888 
L 334.082646 185.728 
L 334.131376 171.168 
L 334.163863 164.448 
L 334.212592 174.528 
L 334.245079 182.368 
L 334.293809 179.008 
L 334.391269 155.488 
L 334.423755 165.568 
L 334.553701 180.128 
L 334.618675 102.848 
L 334.667404 110.688 
L 334.781107 187.968 
L 334.829837 181.248 
L 334.911054 119.648 
L 334.94354 158.848 
L 335.024757 201.408 
L 335.122216 175.648 
L 335.203433 98.368 
L 335.235919 162.208 
L 335.365866 228.288 
L 335.398352 218.208 
L 335.447082 211.488 
L 335.528298 239.488 
L 335.560785 238.368 
L 335.642001 236.128 
L 335.674488 238.368 
L 335.723218 233.888 
L 335.771948 236.128 
L 335.820678 241.728 
L 336.015597 208.128 
L 336.064327 203.648 
L 336.17803 227.168 
L 336.291733 182.368 
L 336.470409 238.368 
L 336.519139 235.008 
L 336.600355 191.328 
L 336.632842 207.008 
L 336.746545 247.328 
L 336.876491 133.088 
L 336.908978 146.528 
L 336.990194 250.688 
L 337.038924 247.328 
L 337.071411 223.808 
L 337.12014 224.928 
L 337.282573 257.408 
L 337.493736 236.128 
L 337.526223 240.608 
L 337.574952 245.088 
L 337.607439 239.488 
L 337.737385 211.488 
L 337.769872 189.088 
L 337.802358 192.448 
L 338.062251 251.808 
L 338.110981 243.968 
L 338.224684 184.608 
L 338.273414 186.848 
L 338.338387 243.968 
L 338.387117 233.888 
L 338.419603 221.568 
L 338.468333 228.288 
L 338.565793 247.328 
L 338.598279 241.728 
L 338.647009 245.088 
L 338.760712 208.128 
L 338.809442 222.688 
L 338.841929 230.528 
L 338.874415 228.288 
L 339.118065 175.648 
L 339.166794 179.008 
L 339.296741 218.208 
L 339.377957 207.008 
L 339.410444 201.408 
L 339.459174 205.888 
L 339.54039 223.808 
L 339.572877 213.728 
L 339.621606 199.168 
L 339.654093 215.968 
L 339.702823 222.688 
L 339.735309 219.328 
L 340.076418 175.648 
L 340.157635 199.168 
L 340.190121 182.368 
L 340.238851 163.328 
L 340.271338 170.048 
L 340.352554 202.528 
L 340.401284 193.568 
L 340.547474 153.248 
L 340.644933 172.288 
L 340.72615 118.528 
L 340.77488 144.288 
L 340.888583 237.248 
L 340.969799 250.688 
L 341.002286 240.608 
L 341.083502 219.328 
L 341.164719 240.608 
L 341.245935 237.248 
L 341.343395 238.368 
L 341.619531 201.408 
L 341.66826 201.408 
L 341.830693 108.448 
L 341.944396 203.648 
L 342.009369 207.008 
L 342.074343 176.768 
L 342.123072 181.248 
L 342.204289 212.608 
L 342.317992 136.448 
L 342.529154 229.408 
L 342.561641 226.048 
L 342.675344 210.368 
L 342.740317 214.848 
L 342.983966 164.448 
L 343.016453 162.208 
L 343.065183 190.208 
L 343.097669 171.168 
L 343.146399 164.448 
L 343.292589 219.328 
L 343.438778 103.968 
L 343.471265 151.008 
L 343.633698 228.288 
L 343.682428 227.168 
L 343.747401 213.728 
L 343.828617 218.208 
L 343.877347 218.208 
L 343.909834 217.088 
L 343.958564 211.488 
L 343.99105 212.608 
L 344.08851 222.688 
L 344.13724 218.208 
L 344.364646 144.288 
L 344.657025 201.408 
L 344.689511 191.328 
L 344.738241 179.008 
L 344.786971 192.448 
L 344.949404 221.568 
L 344.981891 228.288 
L 345.03062 218.208 
L 345.111837 184.608 
L 345.144323 195.808 
L 345.306756 229.408 
L 345.387973 226.048 
L 345.517919 214.848 
L 345.599135 200.288 
L 345.729082 134.208 
L 345.761568 157.728 
L 345.924001 181.248 
L 346.086434 220.448 
L 346.118921 214.848 
L 346.183894 210.368 
L 346.297597 159.968 
L 346.46003 226.048 
L 346.573733 185.728 
L 346.622462 204.768 
L 346.736165 223.808 
L 346.784895 217.088 
L 346.914842 154.368 
L 346.996058 195.808 
L 347.028545 193.568 
L 347.077274 182.368 
L 347.158491 185.728 
L 347.272194 214.848 
L 347.434627 196.928 
L 347.467113 201.408 
L 347.515843 205.888 
L 347.613303 153.248 
L 347.645789 162.208 
L 347.775736 208.128 
L 347.856952 189.088 
L 347.889439 195.808 
L 347.970655 205.888 
L 348.051872 164.448 
L 348.084358 172.288 
L 348.263034 202.528 
L 348.311764 189.088 
L 348.392981 140.928 
L 348.425467 153.248 
L 348.53917 212.608 
L 348.5879 207.008 
L 348.669116 154.368 
L 348.701603 196.928 
L 348.782819 215.968 
L 348.831549 214.848 
L 348.961496 190.208 
L 349.010225 200.288 
L 349.042712 200.288 
L 349.123928 192.448 
L 349.156415 195.808 
L 349.237631 202.528 
L 349.286361 198.048 
L 349.318848 195.808 
L 349.400064 196.928 
L 349.481281 208.128 
L 349.530011 202.528 
L 349.562497 200.288 
L 349.659957 168.928 
L 349.692443 172.288 
L 349.77366 196.928 
L 349.854876 165.568 
L 349.903606 181.248 
L 350.017309 193.568 
L 350.098525 203.648 
L 350.131012 200.288 
L 350.390905 125.248 
L 350.634554 228.288 
L 350.66704 222.688 
L 350.829473 171.168 
L 350.878203 173.408 
L 350.95942 195.808 
L 350.991906 180.128 
L 351.138096 175.648 
L 351.203069 210.368 
L 351.251799 207.008 
L 351.333015 183.488 
L 351.365502 191.328 
L 351.414232 205.888 
L 351.446718 198.048 
L 351.527935 166.688 
L 351.576664 181.248 
L 351.657881 196.928 
L 351.690367 192.448 
L 351.820314 204.768 
L 351.869044 202.528 
L 351.95026 180.128 
L 351.982747 184.608 
L 352.063963 213.728 
L 352.112693 210.368 
L 352.226396 195.808 
L 352.307612 211.488 
L 352.340099 209.248 
L 352.437559 203.648 
L 352.567505 168.928 
L 352.599991 181.248 
L 352.681208 191.328 
L 352.729938 189.088 
L 352.811154 155.488 
L 352.876127 172.288 
L 352.924857 189.088 
L 352.957344 172.288 
L 353.03856 120.768 
L 353.103533 139.808 
L 353.217236 213.728 
L 353.265966 208.128 
L 353.298453 203.648 
L 353.347183 209.248 
L 353.379669 221.568 
L 353.412156 215.968 
L 353.493372 175.648 
L 353.542102 183.488 
L 353.655805 217.088 
L 353.704535 215.968 
L 353.801995 195.808 
L 353.834481 203.648 
L 353.883211 203.648 
L 353.948184 195.808 
L 354.029401 182.368 
L 354.07813 189.088 
L 354.110617 189.088 
L 354.159347 182.368 
L 354.240563 87.168 
L 354.27305 88.288 
L 354.435483 218.208 
L 354.484213 217.088 
L 354.565429 192.448 
L 354.614159 200.288 
L 354.695375 214.848 
L 354.727862 212.608 
L 354.776592 207.008 
L 354.857808 181.248 
L 354.890295 194.688 
L 355.003998 209.248 
L 355.052728 204.768 
L 355.133944 165.568 
L 355.182674 166.688 
L 355.31262 211.488 
L 355.50754 143.168 
L 355.556269 148.768 
L 355.751189 186.848 
L 355.881135 203.648 
L 356.043568 173.408 
L 356.092298 164.448 
L 356.238487 204.768 
L 356.368434 185.728 
L 356.40092 189.088 
L 356.44965 198.048 
L 356.482137 194.688 
L 356.530867 186.848 
L 356.579596 187.968 
L 356.904462 210.368 
L 356.985679 180.128 
L 357.066895 187.968 
L 357.213085 196.928 
L 357.278058 196.928 
L 357.391761 193.568 
L 357.440491 193.568 
L 357.63541 189.088 
L 357.68414 189.088 
L 357.976519 177.888 
L 358.009005 179.008 
L 358.057735 181.248 
L 358.090222 180.128 
L 358.333871 175.648 
L 358.366358 179.008 
L 358.447574 176.768 
L 358.610007 176.768 
L 358.756197 175.648 
L 358.788683 175.648 
L 359.373441 163.328 
L 359.454658 166.688 
L 359.487144 164.448 
L 359.649577 158.848 
L 359.844497 155.488 
L 359.925713 155.488 
L 360.055659 154.368 
L 360.104389 154.368 
L 360.218092 153.248 
L 360.266822 153.248 
L 360.348039 155.488 
L 360.510471 151.008 
L 360.721634 151.008 
L 360.802851 149.888 
L 360.884067 154.368 
L 360.916554 157.728 
L 360.965283 155.488 
L 361.127716 147.648 
L 361.160203 147.648 
L 361.273906 153.248 
L 361.322636 149.888 
L 361.355122 149.888 
L 361.501312 147.648 
L 361.582528 149.888 
L 361.615015 148.768 
L 361.809934 146.528 
L 361.972367 146.528 
L 362.118557 147.648 
L 362.151043 147.648 
L 362.427179 154.368 
L 362.508396 158.848 
L 362.557125 156.608 
L 362.670828 155.488 
L 362.930721 155.488 
L 363.093154 157.728 
L 363.206857 157.728 
L 363.547966 163.328 
L 363.629182 162.208 
L 364.148967 176.768 
L 364.717482 187.968 
L 364.766212 187.968 
L 364.896159 189.088 
L 365.139808 192.448 
L 365.302241 192.448 
L 365.464673 194.688 
L 365.49716 194.688 
L 365.675836 196.928 
L 365.708323 196.928 
L 365.870756 199.168 
L 365.919485 199.168 
L 366.033188 200.288 
L 366.374297 200.288 
L 366.488 199.168 
L 366.650433 199.168 
L 366.73165 200.288 
L 366.845353 199.168 
L 366.991542 200.288 
L 367.186462 200.288 
L 367.267678 201.408 
L 367.381381 200.288 
L 367.511327 201.408 
L 367.62503 201.408 
L 367.77122 202.528 
L 368.161059 202.528 
L 368.291005 203.648 
L 368.534654 203.648 
L 368.697087 205.888 
L 368.827034 205.888 
L 368.892007 207.008 
L 369.070683 204.768 
L 369.233116 207.008 
L 369.476765 207.008 
L 369.557981 208.128 
L 369.671684 207.008 
L 370.175226 207.008 
L 370.288929 208.128 
L 370.630038 208.128 
L 370.743741 207.008 
L 370.824958 207.008 
L 371.166067 201.408 
L 371.198553 201.408 
L 371.27977 203.648 
L 371.360986 201.408 
L 371.637122 210.368 
L 371.685852 210.368 
L 371.815798 212.608 
L 371.897015 212.608 
L 372.091934 210.368 
L 372.140664 210.368 
L 372.303097 207.008 
L 372.4168 208.128 
L 372.562989 207.008 
L 372.920341 207.008 
L 373.082774 209.248 
L 373.245207 209.248 
L 373.375153 210.368 
L 373.813722 210.368 
L 373.943668 209.248 
L 374.382237 209.248 
L 374.512183 208.128 
L 374.772076 208.128 
L 374.885779 207.008 
L 374.918266 207.008 
L 375.048212 205.888 
L 375.389321 205.888 
L 375.53551 203.648 
L 375.58424 203.648 
L 375.77916 200.288 
L 375.941593 198.048 
L 376.152755 198.048 
L 376.315188 195.808 
L 376.445134 195.808 
L 376.591324 193.568 
L 376.737514 194.688 
L 376.77 194.688 
L 376.899946 193.568 
L 376.932433 194.688 
L 376.981163 193.568 
L 377.013649 193.568 
L 377.127352 194.688 
L 377.176082 194.688 
L 377.289785 193.568 
L 377.387245 193.568 
L 377.517191 194.688 
L 377.630894 194.688 
L 377.712111 195.808 
L 377.825814 194.688 
L 377.988247 194.688 
L 378.166923 192.448 
L 378.280626 193.568 
L 378.491788 193.568 
L 378.524275 192.448 
L 378.573005 193.568 
L 378.686708 193.568 
L 378.816654 192.448 
L 378.865384 192.448 
L 378.9466 191.328 
L 379.060303 192.448 
L 379.109033 192.448 
L 379.255223 194.688 
L 379.336439 194.688 
L 379.515115 196.928 
L 379.563845 196.928 
L 379.726278 199.168 
L 379.758765 198.048 
L 379.807495 199.168 
L 379.839981 199.168 
L 380.002414 201.408 
L 380.18109 201.408 
L 380.294793 202.528 
L 380.619659 202.528 
L 380.733362 203.648 
L 381.106957 203.648 
L 381.236904 204.768 
L 381.610499 204.768 
L 381.724202 205.888 
L 381.805419 204.768 
L 381.935365 205.888 
L 382.049068 204.768 
L 382.162771 204.768 
L 382.30896 205.888 
L 382.341447 205.888 
L 382.471393 204.768 
L 382.926205 204.768 
L 382.958692 203.648 
L 383.007422 204.768 
L 383.202341 204.768 
L 383.234828 205.888 
L 383.283558 204.768 
L 383.705883 204.768 
L 383.787099 205.888 
L 383.819586 204.768 
L 383.852073 205.888 
L 383.900802 205.888 
L 384.014505 204.768 
L 384.323128 204.768 
L 384.355614 203.648 
L 384.388101 204.768 
L 384.469317 204.768 
L 384.599264 203.648 
L 385.135292 203.648 
L 385.248995 202.528 
L 385.297725 202.528 
L 385.411428 201.408 
L 385.460158 201.408 
L 385.606347 199.168 
L 385.833753 193.568 
L 386.028673 183.488 
L 386.645918 159.968 
L 386.840837 159.968 
L 387.10073 164.448 
L 387.14946 164.448 
L 387.588028 176.768 
L 387.620515 176.768 
L 388.611355 198.048 
L 388.660085 198.048 
L 388.822518 200.288 
L 388.968707 200.288 
L 389.147384 202.528 
L 389.358546 202.528 
L 389.391033 201.408 
L 389.423519 202.528 
L 389.634682 202.528 
L 389.748385 203.648 
L 389.845845 203.648 
L 389.959548 204.768 
L 390.008278 204.768 
L 390.121981 205.888 
L 390.170711 205.888 
L 390.333143 208.128 
L 390.41436 208.128 
L 390.544306 209.248 
L 390.706739 209.248 
L 390.820442 210.368 
L 390.901658 210.368 
L 391.031605 211.488 
L 391.323984 211.488 
L 391.437687 212.608 
L 391.941229 212.608 
L 392.054932 211.488 
L 392.217365 211.488 
L 392.331068 210.368 
L 392.379797 210.368 
L 392.54223 208.128 
L 392.704663 208.128 
L 392.834609 207.008 
L 393.565557 207.008 
L 393.695504 208.128 
L 393.72799 208.128 
L 393.841693 209.248 
L 394.182802 209.248 
L 394.312748 210.368 
L 394.458938 210.368 
L 394.507668 209.248 
L 394.540154 210.368 
L 394.994966 210.368 
L 395.076183 209.248 
L 395.206129 210.368 
L 395.238616 210.368 
L 395.384805 209.248 
L 395.530995 209.248 
L 395.660941 208.128 
L 395.742157 208.128 
L 395.85586 207.008 
L 396.359402 207.008 
L 396.473105 205.888 
L 396.521835 205.888 
L 396.635538 207.008 
L 396.765484 205.888 
L 397.171567 205.888 
L 397.333999 203.648 
L 397.512676 203.648 
L 397.675108 201.408 
L 397.788811 201.408 
L 397.902514 200.288 
L 397.951244 200.288 
L 398.113677 198.048 
L 398.211137 198.048 
L 398.32484 196.928 
L 398.487273 195.808 
L 398.487273 195.808 
" clip-path="url(#p90ed2e30d6)" style="fill: none; stroke: #1f77b4; stroke-width: 1.5; stroke-linecap: square"/>
   </g>
   <g id="patch_3">
    <path d="M 57.6 307.584 
L 57.6 41.472 
" style="fill: none; stroke: #000000; stroke-width: 0.8; stroke-linejoin: miter; stroke-linecap: square"/>
   </g>
   <g id="patch_4">
    <path d="M 414.72 307.584 
L 414.72 41.472 
" style="fill: none; stroke: #000000; stroke-width: 0.8; stroke-linejoin: miter; stroke-linecap: square"/>
   </g>
   <g id="patch_5">
    <path d="M 57.6 307.584 
L 414.72 307.584 
" style="fill: none; stroke: #000000; stroke-width: 0.8; stroke-linejoin: miter; stroke-linecap: square"/>
   </g>
   <g id="patch_6">
    <path d="M 57.6 41.472 
L 414.72 41.472 
" style="fill: none; stroke: #000000; stroke-width: 0.8; stroke-linejoin: miter; stroke-linecap: square"/>
   </g>
  </g>
 </g>
 <defs>
  <clipPath id="p90ed2e30d6">
   <rect x="57.6" y="41.472" width="357.12" height="266.112"/>
  </clipPath>
 </defs>
</svg>
