<?xml version="1.0" encoding="utf-8" standalone="no"?>
<!DOCTYPE svg PUBLIC "-//W3C//DTD SVG 1.1//EN"
  "http://www.w3.org/Graphics/SVG/1.1/DTD/svg11.dtd">
<svg xmlns:xlink="http://www.w3.org/1999/xlink" width="460.8pt" height="345.6pt" viewBox="0 0 460.8 345.6" xmlns="http://www.w3.org/2000/svg" version="1.1">
 <metadata>
  <rdf:RDF xmlns:dc="http://purl.org/dc/elements/1.1/" xmlns:cc="http://creativecommons.org/ns#" xmlns:rdf="http://www.w3.org/1999/02/22-rdf-syntax-ns#">
   <cc:Work>
    <dc:type rdf:resource="http://purl.org/dc/dcmitype/StillImage"/>
    <dc:date>2022-12-06T12:44:41.983370</dc:date>
    <dc:format>image/svg+xml</dc:format>
    <dc:creator>
     <cc:Agent>
      <dc:title>Matplotlib v3.5.1, https://matplotlib.org/</dc:title>
     </cc:Agent>
    </dc:creator>
   </cc:Work>
  </rdf:RDF>
 </metadata>
 <defs>
  <style type="text/css">*{stroke-linejoin: round; stroke-linecap: butt}</style>
 </defs>
 <g id="figure_1">
  <g id="patch_1">
   <path d="M 0 345.6 
L 460.8 345.6 
L 460.8 0 
L 0 0 
z
" style="fill: #ffffff"/>
  </g>
  <g id="axes_1">
   <g id="patch_2">
    <path d="M 57.6 307.584 
L 414.72 307.584 
L 414.72 41.472 
L 57.6 41.472 
z
" style="fill: #ffffff"/>
   </g>
   <g id="matplotlib.axis_1">
    <g id="xtick_1">
     <g id="line2d_1">
      <defs>
       <path id="m3438bf4d31" d="M 0 0 
L 0 3.5 
" style="stroke: #000000; stroke-width: 0.8"/>
      </defs>
      <g>
       <use xlink:href="#m3438bf4d31" x="73.799552" y="307.584" style="stroke: #000000; stroke-width: 0.8"/>
      </g>
     </g>
     <g id="text_1">
      <!-- 0 -->
      <g transform="translate(70.618302 322.182437)scale(0.1 -0.1)">
       <defs>
        <path id="DejaVuSans-30" d="M 2034 4250 
Q 1547 4250 1301 3770 
Q 1056 3291 1056 2328 
Q 1056 1369 1301 889 
Q 1547 409 2034 409 
Q 2525 409 2770 889 
Q 3016 1369 3016 2328 
Q 3016 3291 2770 3770 
Q 2525 4250 2034 4250 
z
M 2034 4750 
Q 2819 4750 3233 4129 
Q 3647 3509 3647 2328 
Q 3647 1150 3233 529 
Q 2819 -91 2034 -91 
Q 1250 -91 836 529 
Q 422 1150 422 2328 
Q 422 3509 836 4129 
Q 1250 4750 2034 4750 
z
" transform="scale(0.015625)"/>
       </defs>
       <use xlink:href="#DejaVuSans-30"/>
      </g>
     </g>
    </g>
    <g id="xtick_2">
     <g id="line2d_2">
      <g>
       <use xlink:href="#m3438bf4d31" x="115.268812" y="307.584" style="stroke: #000000; stroke-width: 0.8"/>
      </g>
     </g>
     <g id="text_2">
      <!-- 2500 -->
      <g transform="translate(102.543812 322.182437)scale(0.1 -0.1)">
       <defs>
        <path id="DejaVuSans-32" d="M 1228 531 
L 3431 531 
L 3431 0 
L 469 0 
L 469 531 
Q 828 903 1448 1529 
Q 2069 2156 2228 2338 
Q 2531 2678 2651 2914 
Q 2772 3150 2772 3378 
Q 2772 3750 2511 3984 
Q 2250 4219 1831 4219 
Q 1534 4219 1204 4116 
Q 875 4013 500 3803 
L 500 4441 
Q 881 4594 1212 4672 
Q 1544 4750 1819 4750 
Q 2544 4750 2975 4387 
Q 3406 4025 3406 3419 
Q 3406 3131 3298 2873 
Q 3191 2616 2906 2266 
Q 2828 2175 2409 1742 
Q 1991 1309 1228 531 
z
" transform="scale(0.015625)"/>
        <path id="DejaVuSans-35" d="M 691 4666 
L 3169 4666 
L 3169 4134 
L 1269 4134 
L 1269 2991 
Q 1406 3038 1543 3061 
Q 1681 3084 1819 3084 
Q 2600 3084 3056 2656 
Q 3513 2228 3513 1497 
Q 3513 744 3044 326 
Q 2575 -91 1722 -91 
Q 1428 -91 1123 -41 
Q 819 9 494 109 
L 494 744 
Q 775 591 1075 516 
Q 1375 441 1709 441 
Q 2250 441 2565 725 
Q 2881 1009 2881 1497 
Q 2881 1984 2565 2268 
Q 2250 2553 1709 2553 
Q 1456 2553 1204 2497 
Q 953 2441 691 2322 
L 691 4666 
z
" transform="scale(0.015625)"/>
       </defs>
       <use xlink:href="#DejaVuSans-32"/>
       <use xlink:href="#DejaVuSans-35" x="63.623047"/>
       <use xlink:href="#DejaVuSans-30" x="127.246094"/>
       <use xlink:href="#DejaVuSans-30" x="190.869141"/>
      </g>
     </g>
    </g>
    <g id="xtick_3">
     <g id="line2d_3">
      <g>
       <use xlink:href="#m3438bf4d31" x="156.738073" y="307.584" style="stroke: #000000; stroke-width: 0.8"/>
      </g>
     </g>
     <g id="text_3">
      <!-- 5000 -->
      <g transform="translate(144.013073 322.182437)scale(0.1 -0.1)">
       <use xlink:href="#DejaVuSans-35"/>
       <use xlink:href="#DejaVuSans-30" x="63.623047"/>
       <use xlink:href="#DejaVuSans-30" x="127.246094"/>
       <use xlink:href="#DejaVuSans-30" x="190.869141"/>
      </g>
     </g>
    </g>
    <g id="xtick_4">
     <g id="line2d_4">
      <g>
       <use xlink:href="#m3438bf4d31" x="198.207333" y="307.584" style="stroke: #000000; stroke-width: 0.8"/>
      </g>
     </g>
     <g id="text_4">
      <!-- 7500 -->
      <g transform="translate(185.482333 322.182437)scale(0.1 -0.1)">
       <defs>
        <path id="DejaVuSans-37" d="M 525 4666 
L 3525 4666 
L 3525 4397 
L 1831 0 
L 1172 0 
L 2766 4134 
L 525 4134 
L 525 4666 
z
" transform="scale(0.015625)"/>
       </defs>
       <use xlink:href="#DejaVuSans-37"/>
       <use xlink:href="#DejaVuSans-35" x="63.623047"/>
       <use xlink:href="#DejaVuSans-30" x="127.246094"/>
       <use xlink:href="#DejaVuSans-30" x="190.869141"/>
      </g>
     </g>
    </g>
    <g id="xtick_5">
     <g id="line2d_5">
      <g>
       <use xlink:href="#m3438bf4d31" x="239.676593" y="307.584" style="stroke: #000000; stroke-width: 0.8"/>
      </g>
     </g>
     <g id="text_5">
      <!-- 10000 -->
      <g transform="translate(223.770343 322.182437)scale(0.1 -0.1)">
       <defs>
        <path id="DejaVuSans-31" d="M 794 531 
L 1825 531 
L 1825 4091 
L 703 3866 
L 703 4441 
L 1819 4666 
L 2450 4666 
L 2450 531 
L 3481 531 
L 3481 0 
L 794 0 
L 794 531 
z
" transform="scale(0.015625)"/>
       </defs>
       <use xlink:href="#DejaVuSans-31"/>
       <use xlink:href="#DejaVuSans-30" x="63.623047"/>
       <use xlink:href="#DejaVuSans-30" x="127.246094"/>
       <use xlink:href="#DejaVuSans-30" x="190.869141"/>
       <use xlink:href="#DejaVuSans-30" x="254.492188"/>
      </g>
     </g>
    </g>
    <g id="xtick_6">
     <g id="line2d_6">
      <g>
       <use xlink:href="#m3438bf4d31" x="281.145854" y="307.584" style="stroke: #000000; stroke-width: 0.8"/>
      </g>
     </g>
     <g id="text_6">
      <!-- 12500 -->
      <g transform="translate(265.239604 322.182437)scale(0.1 -0.1)">
       <use xlink:href="#DejaVuSans-31"/>
       <use xlink:href="#DejaVuSans-32" x="63.623047"/>
       <use xlink:href="#DejaVuSans-35" x="127.246094"/>
       <use xlink:href="#DejaVuSans-30" x="190.869141"/>
       <use xlink:href="#DejaVuSans-30" x="254.492188"/>
      </g>
     </g>
    </g>
    <g id="xtick_7">
     <g id="line2d_7">
      <g>
       <use xlink:href="#m3438bf4d31" x="322.615114" y="307.584" style="stroke: #000000; stroke-width: 0.8"/>
      </g>
     </g>
     <g id="text_7">
      <!-- 15000 -->
      <g transform="translate(306.708864 322.182437)scale(0.1 -0.1)">
       <use xlink:href="#DejaVuSans-31"/>
       <use xlink:href="#DejaVuSans-35" x="63.623047"/>
       <use xlink:href="#DejaVuSans-30" x="127.246094"/>
       <use xlink:href="#DejaVuSans-30" x="190.869141"/>
       <use xlink:href="#DejaVuSans-30" x="254.492188"/>
      </g>
     </g>
    </g>
    <g id="xtick_8">
     <g id="line2d_8">
      <g>
       <use xlink:href="#m3438bf4d31" x="364.084374" y="307.584" style="stroke: #000000; stroke-width: 0.8"/>
      </g>
     </g>
     <g id="text_8">
      <!-- 17500 -->
      <g transform="translate(348.178124 322.182437)scale(0.1 -0.1)">
       <use xlink:href="#DejaVuSans-31"/>
       <use xlink:href="#DejaVuSans-37" x="63.623047"/>
       <use xlink:href="#DejaVuSans-35" x="127.246094"/>
       <use xlink:href="#DejaVuSans-30" x="190.869141"/>
       <use xlink:href="#DejaVuSans-30" x="254.492188"/>
      </g>
     </g>
    </g>
    <g id="xtick_9">
     <g id="line2d_9">
      <g>
       <use xlink:href="#m3438bf4d31" x="405.553635" y="307.584" style="stroke: #000000; stroke-width: 0.8"/>
      </g>
     </g>
     <g id="text_9">
      <!-- 20000 -->
      <g transform="translate(389.647385 322.182437)scale(0.1 -0.1)">
       <use xlink:href="#DejaVuSans-32"/>
       <use xlink:href="#DejaVuSans-30" x="63.623047"/>
       <use xlink:href="#DejaVuSans-30" x="127.246094"/>
       <use xlink:href="#DejaVuSans-30" x="190.869141"/>
       <use xlink:href="#DejaVuSans-30" x="254.492188"/>
      </g>
     </g>
    </g>
   </g>
   <g id="matplotlib.axis_2">
    <g id="ytick_1">
     <g id="line2d_10">
      <defs>
       <path id="md56f9a3dfc" d="M 0 0 
L -3.5 0 
" style="stroke: #000000; stroke-width: 0.8"/>
      </defs>
      <g>
       <use xlink:href="#md56f9a3dfc" x="57.6" y="283.968" style="stroke: #000000; stroke-width: 0.8"/>
      </g>
     </g>
     <g id="text_10">
      <!-- 1400 -->
      <g transform="translate(25.15 287.767219)scale(0.1 -0.1)">
       <defs>
        <path id="DejaVuSans-34" d="M 2419 4116 
L 825 1625 
L 2419 1625 
L 2419 4116 
z
M 2253 4666 
L 3047 4666 
L 3047 1625 
L 3713 1625 
L 3713 1100 
L 3047 1100 
L 3047 0 
L 2419 0 
L 2419 1100 
L 313 1100 
L 313 1709 
L 2253 4666 
z
" transform="scale(0.015625)"/>
       </defs>
       <use xlink:href="#DejaVuSans-31"/>
       <use xlink:href="#DejaVuSans-34" x="63.623047"/>
       <use xlink:href="#DejaVuSans-30" x="127.246094"/>
       <use xlink:href="#DejaVuSans-30" x="190.869141"/>
      </g>
     </g>
    </g>
    <g id="ytick_2">
     <g id="line2d_11">
      <g>
       <use xlink:href="#md56f9a3dfc" x="57.6" y="231.604364" style="stroke: #000000; stroke-width: 0.8"/>
      </g>
     </g>
     <g id="text_11">
      <!-- 1450 -->
      <g transform="translate(25.15 235.403582)scale(0.1 -0.1)">
       <use xlink:href="#DejaVuSans-31"/>
       <use xlink:href="#DejaVuSans-34" x="63.623047"/>
       <use xlink:href="#DejaVuSans-35" x="127.246094"/>
       <use xlink:href="#DejaVuSans-30" x="190.869141"/>
      </g>
     </g>
    </g>
    <g id="ytick_3">
     <g id="line2d_12">
      <g>
       <use xlink:href="#md56f9a3dfc" x="57.6" y="179.240727" style="stroke: #000000; stroke-width: 0.8"/>
      </g>
     </g>
     <g id="text_12">
      <!-- 1500 -->
      <g transform="translate(25.15 183.039946)scale(0.1 -0.1)">
       <use xlink:href="#DejaVuSans-31"/>
       <use xlink:href="#DejaVuSans-35" x="63.623047"/>
       <use xlink:href="#DejaVuSans-30" x="127.246094"/>
       <use xlink:href="#DejaVuSans-30" x="190.869141"/>
      </g>
     </g>
    </g>
    <g id="ytick_4">
     <g id="line2d_13">
      <g>
       <use xlink:href="#md56f9a3dfc" x="57.6" y="126.877091" style="stroke: #000000; stroke-width: 0.8"/>
      </g>
     </g>
     <g id="text_13">
      <!-- 1550 -->
      <g transform="translate(25.15 130.67631)scale(0.1 -0.1)">
       <use xlink:href="#DejaVuSans-31"/>
       <use xlink:href="#DejaVuSans-35" x="63.623047"/>
       <use xlink:href="#DejaVuSans-35" x="127.246094"/>
       <use xlink:href="#DejaVuSans-30" x="190.869141"/>
      </g>
     </g>
    </g>
    <g id="ytick_5">
     <g id="line2d_14">
      <g>
       <use xlink:href="#md56f9a3dfc" x="57.6" y="74.513455" style="stroke: #000000; stroke-width: 0.8"/>
      </g>
     </g>
     <g id="text_14">
      <!-- 1600 -->
      <g transform="translate(25.15 78.312673)scale(0.1 -0.1)">
       <defs>
        <path id="DejaVuSans-36" d="M 2113 2584 
Q 1688 2584 1439 2293 
Q 1191 2003 1191 1497 
Q 1191 994 1439 701 
Q 1688 409 2113 409 
Q 2538 409 2786 701 
Q 3034 994 3034 1497 
Q 3034 2003 2786 2293 
Q 2538 2584 2113 2584 
z
M 3366 4563 
L 3366 3988 
Q 3128 4100 2886 4159 
Q 2644 4219 2406 4219 
Q 1781 4219 1451 3797 
Q 1122 3375 1075 2522 
Q 1259 2794 1537 2939 
Q 1816 3084 2150 3084 
Q 2853 3084 3261 2657 
Q 3669 2231 3669 1497 
Q 3669 778 3244 343 
Q 2819 -91 2113 -91 
Q 1303 -91 875 529 
Q 447 1150 447 2328 
Q 447 3434 972 4092 
Q 1497 4750 2381 4750 
Q 2619 4750 2861 4703 
Q 3103 4656 3366 4563 
z
" transform="scale(0.015625)"/>
       </defs>
       <use xlink:href="#DejaVuSans-31"/>
       <use xlink:href="#DejaVuSans-36" x="63.623047"/>
       <use xlink:href="#DejaVuSans-30" x="127.246094"/>
       <use xlink:href="#DejaVuSans-30" x="190.869141"/>
      </g>
     </g>
    </g>
   </g>
   <g id="line2d_15">
    <path d="M 73.832727 155.153455 
L 73.982017 153.058909 
L 74.015192 153.058909 
L 74.064955 154.106182 
L 74.098131 153.058909 
L 74.24742 150.964364 
L 74.479648 150.964364 
L 74.612349 149.917091 
L 74.695288 149.917091 
L 74.844577 146.775273 
L 74.960691 149.917091 
L 74.993867 148.869818 
L 75.557849 148.869818 
L 75.673962 147.822545 
L 75.740313 147.822545 
L 75.823252 145.728 
L 75.873015 146.775273 
L 75.922778 146.775273 
L 76.005717 145.728 
L 76.155006 147.822545 
L 76.188181 147.822545 
L 76.387234 145.728 
L 76.586286 145.728 
L 76.768751 147.822545 
L 76.801926 147.822545 
L 76.91804 146.775273 
L 76.951216 146.775273 
L 77.034154 145.728 
L 77.117093 146.775273 
L 77.200031 144.680727 
L 77.233207 145.728 
L 77.365908 146.775273 
L 77.399084 146.775273 
L 77.515198 147.822545 
L 77.71425 147.822545 
L 77.830364 146.775273 
L 77.946478 146.775273 
L 78.095767 147.822545 
L 78.211881 147.822545 
L 78.361171 144.680727 
L 78.477284 146.775273 
L 78.593398 145.728 
L 78.643161 145.728 
L 78.709512 143.633455 
L 78.775863 144.680727 
L 78.891977 146.775273 
L 79.008091 144.680727 
L 79.207143 147.822545 
L 79.323257 147.822545 
L 79.439371 146.775273 
L 79.489134 147.822545 
L 79.538897 146.775273 
L 79.605248 145.728 
L 79.721362 146.775273 
L 79.854064 146.775273 
L 79.970178 147.822545 
L 80.086292 147.822545 
L 80.301932 141.538909 
L 80.335107 142.586182 
L 80.368283 143.633455 
L 80.418046 142.586182 
L 80.451221 142.586182 
L 80.484397 141.538909 
L 80.733212 147.822545 
L 80.849326 147.822545 
L 81.015203 145.728 
L 81.214256 148.869818 
L 81.363545 148.869818 
L 81.562597 143.633455 
L 81.628948 144.680727 
L 81.745062 145.728 
L 81.811413 145.728 
L 82.060229 142.586182 
L 82.176342 144.680727 
L 82.209518 143.633455 
L 82.242693 144.680727 
L 82.375395 145.728 
L 82.425158 144.680727 
L 82.458333 145.728 
L 82.508097 146.775273 
L 82.541272 145.728 
L 82.740324 145.728 
L 82.7735 144.680727 
L 82.806675 145.728 
L 82.939377 145.728 
L 83.022315 146.775273 
L 83.138429 145.728 
L 83.221368 145.728 
L 83.304306 144.680727 
L 83.387245 145.728 
L 83.42042 144.680727 
L 83.453596 145.728 
L 83.56971 145.728 
L 83.685824 144.680727 
L 83.752174 144.680727 
L 83.868288 145.728 
L 83.951227 145.728 
L 84.100516 147.822545 
L 84.133692 146.775273 
L 84.183455 147.822545 
L 84.299569 147.822545 
L 84.465446 149.917091 
L 84.664498 149.917091 
L 84.747437 147.822545 
L 84.780612 148.869818 
L 84.896726 149.917091 
L 84.946489 149.917091 
L 85.062603 148.869818 
L 85.162129 148.869818 
L 85.22848 150.964364 
L 85.278243 149.917091 
L 85.510471 149.917091 
L 85.626585 148.869818 
L 85.709523 148.869818 
L 85.8754 150.964364 
L 85.908576 150.964364 
L 85.958339 149.917091 
L 85.991514 150.964364 
L 86.107628 150.964364 
L 86.190567 153.058909 
L 86.223742 152.011636 
L 86.273505 150.964364 
L 86.306681 152.011636 
L 86.422795 152.011636 
L 86.605259 149.917091 
L 86.67161 149.917091 
L 86.787724 154.106182 
L 86.920426 150.964364 
L 87.152654 155.153455 
L 87.185829 155.153455 
L 87.368294 152.011636 
L 87.434645 152.011636 
L 87.550759 153.058909 
L 87.716636 153.058909 
L 87.799574 152.011636 
L 87.865925 153.058909 
L 88.04839 150.964364 
L 88.081565 150.964364 
L 88.114741 149.917091 
L 88.164504 150.964364 
L 88.280618 152.011636 
L 88.429907 147.822545 
L 88.47967 148.869818 
L 88.628959 150.964364 
L 88.728486 149.917091 
L 88.8446 150.964364 
L 88.927538 150.964364 
L 88.960713 149.917091 
L 88.993889 150.964364 
L 89.12659 150.964364 
L 89.242704 147.822545 
L 89.27588 148.869818 
L 89.309055 148.869818 
L 89.441757 149.917091 
L 89.524695 149.917091 
L 89.756923 146.775273 
L 89.806686 146.775273 
L 89.955976 148.869818 
L 90.005739 148.869818 
L 90.088677 146.775273 
L 90.13844 147.822545 
L 90.28773 149.917091 
L 90.486782 149.917091 
L 90.602896 150.964364 
L 90.652659 150.964364 
L 90.685835 149.917091 
L 90.71901 150.964364 
L 90.785361 150.964364 
L 90.901475 149.917091 
L 91.017589 150.964364 
L 91.100527 150.964364 
L 91.183466 152.011636 
L 91.415694 146.775273 
L 91.764035 153.058909 
L 91.880149 150.964364 
L 91.913325 152.011636 
L 91.963088 150.964364 
L 91.996263 150.964364 
L 92.128965 152.011636 
L 92.16214 152.011636 
L 92.294842 153.058909 
L 92.493894 153.058909 
L 92.576833 152.011636 
L 92.692947 153.058909 
L 92.825649 153.058909 
L 92.95835 152.011636 
L 92.991526 152.011636 
L 93.107639 149.917091 
L 93.240341 150.964364 
L 93.273517 150.964364 
L 93.439394 153.058909 
L 93.522332 153.058909 
L 93.588683 152.011636 
L 93.737972 153.058909 
L 93.854086 153.058909 
L 93.887262 154.106182 
L 93.937025 153.058909 
L 94.583945 153.058909 
L 94.700059 152.011636 
L 94.782998 152.011636 
L 94.832761 150.964364 
L 94.865936 152.011636 
L 94.98205 153.058909 
L 95.247453 153.058909 
L 95.280629 152.011636 
L 95.479681 156.200727 
L 95.529444 155.153455 
L 95.56262 156.200727 
L 95.645558 156.200727 
L 95.77826 155.153455 
L 95.977312 157.248 
L 96.143189 154.106182 
L 96.176365 155.153455 
L 96.226128 155.153455 
L 96.342242 156.200727 
L 96.474943 156.200727 
L 96.64082 154.106182 
L 96.723759 155.153455 
L 96.839873 153.058909 
L 97.00575 155.153455 
L 97.038925 154.106182 
L 97.072101 155.153455 
L 97.121864 156.200727 
L 97.171627 155.153455 
L 97.254566 155.153455 
L 97.370679 153.058909 
L 97.569732 155.153455 
L 97.65267 154.106182 
L 97.702434 155.153455 
L 97.735609 154.106182 
L 97.918074 154.106182 
L 98.067363 150.964364 
L 98.200065 152.011636 
L 98.23324 150.964364 
L 98.266415 152.011636 
L 98.316179 152.011636 
L 98.399117 153.058909 
L 98.515231 150.964364 
L 98.548406 152.011636 
L 98.614757 150.964364 
L 98.730871 148.869818 
L 98.896748 150.964364 
L 99.344616 150.964364 
L 99.46073 149.917091 
L 100.124238 149.917091 
L 100.157414 148.869818 
L 100.207177 149.917091 
L 100.240352 149.917091 
L 100.356466 148.869818 
L 100.439405 148.869818 
L 100.489168 147.822545 
L 100.522343 148.869818 
L 100.638457 148.869818 
L 100.737983 149.917091 
L 100.787747 148.869818 
L 100.937036 153.058909 
L 100.986799 153.058909 
L 101.102913 152.011636 
L 101.185851 153.058909 
L 101.301965 152.011636 
L 101.434667 152.011636 
L 101.550781 150.964364 
L 101.600544 150.964364 
L 101.799596 154.106182 
L 101.91571 154.106182 
L 102.081587 150.964364 
L 102.247464 153.058909 
L 102.297228 152.011636 
L 102.330403 153.058909 
L 102.446517 154.106182 
L 102.579219 153.058909 
L 102.612394 153.058909 
L 102.645569 152.011636 
L 102.695332 153.058909 
L 102.877797 153.058909 
L 103.07685 149.917091 
L 103.226139 152.011636 
L 103.275902 152.011636 
L 103.358841 150.964364 
L 103.474955 152.011636 
L 103.524718 152.011636 
L 103.574481 150.964364 
L 103.607656 152.011636 
L 103.773533 152.011636 
L 103.972586 156.200727 
L 104.0887 155.153455 
L 104.503392 155.153455 
L 104.536568 154.106182 
L 104.586331 155.153455 
L 104.785383 155.153455 
L 104.901497 153.058909 
L 105.034199 153.058909 
L 105.233251 150.964364 
L 105.399128 153.058909 
L 105.565005 153.058909 
L 105.730882 155.153455 
L 105.863584 154.106182 
L 105.979698 154.106182 
L 106.095812 155.153455 
L 106.394391 155.153455 
L 106.477329 156.200727 
L 106.676381 153.058909 
L 106.75932 155.153455 
L 106.792495 154.106182 
L 106.875434 149.917091 
L 106.908609 152.011636 
L 107.124249 155.153455 
L 107.174013 155.153455 
L 107.290127 156.200727 
L 107.33989 156.200727 
L 107.40624 157.248 
L 107.538942 155.153455 
L 107.572117 156.200727 
L 107.605293 155.153455 
L 107.655056 155.153455 
L 107.688231 154.106182 
L 107.737995 155.153455 
L 107.820933 155.153455 
L 107.953635 154.106182 
L 108.102924 154.106182 
L 108.35174 150.964364 
L 108.484441 152.011636 
L 108.600555 145.728 
L 108.799608 153.058909 
L 108.932309 154.106182 
L 108.965485 154.106182 
L 109.081599 155.153455 
L 109.463116 155.153455 
L 109.57923 154.106182 
L 109.662168 154.106182 
L 109.745107 155.153455 
L 109.960747 148.869818 
L 109.993922 149.917091 
L 110.159799 153.058909 
L 110.192975 152.011636 
L 110.242738 152.011636 
L 110.392027 149.917091 
L 110.607667 157.248 
L 110.690606 154.106182 
L 110.740369 158.295273 
L 110.773544 154.106182 
L 110.856483 149.917091 
L 110.889658 153.058909 
L 110.939421 155.153455 
L 110.972597 153.058909 
L 111.02236 153.058909 
L 111.088711 146.775273 
L 111.138474 152.011636 
L 111.171649 155.153455 
L 111.221412 154.106182 
L 111.354114 145.728 
L 111.387289 146.775273 
L 111.470228 142.586182 
L 111.553166 155.153455 
L 111.586342 152.011636 
L 111.66928 142.586182 
L 111.868333 174.004364 
L 111.918096 172.957091 
L 111.951271 174.004364 
L 112.017622 174.004364 
L 112.083973 150.964364 
L 112.133736 153.058909 
L 112.365964 203.328 
L 112.415727 203.328 
L 112.482078 190.760727 
L 112.565016 170.862545 
L 112.61478 171.909818 
L 112.647955 176.098909 
L 112.747481 175.051636 
L 112.83042 159.342545 
L 113.029472 213.800727 
L 113.112411 200.186182 
L 113.145586 206.469818 
L 113.178761 204.375273 
L 113.228525 211.706182 
L 113.311463 234.746182 
L 113.344639 232.651636 
L 113.444165 221.131636 
L 113.527103 236.840727 
L 113.560279 235.793455 
L 113.610042 211.706182 
L 113.676393 219.037091 
L 113.759331 241.029818 
L 113.809094 234.746182 
L 113.84227 216.942545 
L 113.875445 225.320727 
L 113.925208 247.313455 
L 113.958384 231.604364 
L 114.008147 223.226182 
L 114.091085 224.273455 
L 114.140848 220.084364 
L 114.223787 249.408 
L 114.256962 247.313455 
L 114.339901 224.273455 
L 114.373076 231.604364 
L 114.422839 230.557091 
L 114.538953 246.266182 
L 114.588716 238.935273 
L 114.621892 247.313455 
L 114.655067 251.502545 
L 114.820944 197.044364 
L 114.92047 251.502545 
L 114.953646 247.313455 
L 115.036584 232.651636 
L 115.119523 204.375273 
L 115.152698 211.706182 
L 115.351751 236.840727 
L 115.434689 167.720727 
L 115.484452 203.328 
L 115.517628 224.273455 
L 115.567391 211.706182 
L 115.650329 181.335273 
L 115.700093 195.997091 
L 115.766443 205.422545 
L 115.816206 193.902545 
L 115.849382 197.044364 
L 115.93232 244.171636 
L 115.982083 228.462545 
L 116.015259 219.037091 
L 116.048434 239.982545 
L 116.098197 243.124364 
L 116.181136 205.422545 
L 116.264074 211.706182 
L 116.313838 206.469818 
L 116.396776 216.942545 
L 116.546065 176.098909 
L 116.629004 201.233455 
L 116.711942 191.808 
L 116.745118 193.902545 
L 116.794881 188.666182 
L 116.828056 195.997091 
L 116.87782 202.280727 
L 116.910995 193.902545 
L 117.010521 183.429818 
L 117.09346 207.517091 
L 117.126635 194.949818 
L 117.15981 188.666182 
L 117.242749 148.869818 
L 117.292512 179.240727 
L 117.325688 167.720727 
L 117.52474 122.688 
L 117.574503 125.829818 
L 117.640854 145.728 
L 117.707205 137.349818 
L 117.74038 143.633455 
L 117.823319 179.240727 
L 117.856494 162.484364 
L 117.906257 153.058909 
L 117.939433 157.248 
L 118.022371 193.902545 
L 118.10531 188.666182 
L 118.271187 132.113455 
L 118.304362 149.917091 
L 118.437064 195.997091 
L 118.569765 161.437091 
L 118.685879 119.546182 
L 118.719055 135.255273 
L 118.801993 127.924364 
L 118.835169 128.971636 
L 119.034221 195.997091 
L 119.382563 112.215273 
L 119.465501 156.200727 
L 119.498677 138.397091 
L 119.581615 142.586182 
L 119.664554 139.444364 
L 119.730905 160.389818 
L 119.780668 161.437091 
L 119.880194 141.538909 
L 119.913369 160.389818 
L 119.963132 150.964364 
L 120.029483 105.931636 
L 120.079246 124.782545 
L 120.162185 175.051636 
L 120.19536 161.437091 
L 120.228536 159.342545 
L 120.311474 132.113455 
L 120.361237 141.538909 
L 120.394413 143.633455 
L 120.427588 140.491636 
L 120.477351 174.004364 
L 120.527114 164.578909 
L 120.576878 165.626182 
L 120.659816 114.309818 
L 120.692991 130.018909 
L 120.726167 160.389818 
L 120.77593 156.200727 
L 120.858869 125.829818 
L 120.892044 132.113455 
L 120.925219 139.444364 
L 121.008158 92.317091 
L 121.057921 117.451636 
L 121.124272 177.146182 
L 121.174035 147.822545 
L 121.273561 108.026182 
L 121.3565 159.342545 
L 121.389675 137.349818 
L 121.42285 111.168 
L 121.505789 125.829818 
L 121.588727 134.208 
L 121.671666 163.531636 
L 121.704841 159.342545 
L 121.837543 121.640727 
L 121.903894 139.444364 
L 121.970245 135.255273 
L 122.00342 121.640727 
L 122.053183 136.302545 
L 122.119534 143.633455 
L 122.169297 125.829818 
L 122.202473 145.728 
L 122.285411 172.957091 
L 122.318586 154.106182 
L 122.36835 143.633455 
L 122.401525 156.200727 
L 122.451288 163.531636 
L 122.484464 160.389818 
L 122.534227 159.342545 
L 122.600577 180.288 
L 122.700104 128.971636 
L 122.783042 144.680727 
L 122.816218 143.633455 
L 122.948919 159.342545 
L 122.982095 152.011636 
L 123.065033 134.208 
L 123.147972 166.673455 
L 123.181147 153.058909 
L 123.23091 106.978909 
L 123.297261 145.728 
L 123.396787 182.382545 
L 123.479726 170.862545 
L 123.562664 158.295273 
L 123.59584 126.877091 
L 123.678778 150.964364 
L 123.761717 130.018909 
L 123.794892 131.066182 
L 123.844655 165.626182 
L 123.927594 156.200727 
L 123.993945 169.815273 
L 124.176409 135.255273 
L 124.375462 168.768 
L 124.4584 121.640727 
L 124.491576 142.586182 
L 124.574514 112.215273 
L 124.624277 130.018909 
L 124.657453 145.728 
L 124.690628 121.640727 
L 124.756979 91.269818 
L 124.790154 117.451636 
L 124.873093 171.909818 
L 124.906268 155.153455 
L 124.956031 140.491636 
L 124.989207 141.538909 
L 125.03897 152.011636 
L 125.072145 137.349818 
L 125.188259 96.506182 
L 125.387312 168.768 
L 125.437075 163.531636 
L 125.536601 110.120727 
L 125.602952 120.593455 
L 125.68589 92.317091 
L 125.735654 95.458909 
L 125.851767 148.869818 
L 125.884943 143.633455 
L 126.083995 183.429818 
L 126.133758 174.004364 
L 126.233285 157.248 
L 126.26646 141.538909 
L 126.299635 150.964364 
L 126.349399 155.153455 
L 126.382574 149.917091 
L 126.465513 109.073455 
L 126.515276 135.255273 
L 126.548451 140.491636 
L 126.63139 112.215273 
L 126.664565 128.971636 
L 126.747503 164.578909 
L 126.780679 157.248 
L 126.880205 137.349818 
L 126.929968 148.869818 
L 126.963144 159.342545 
L 126.996319 155.153455 
L 127.046082 146.775273 
L 127.129021 167.720727 
L 127.245135 118.498909 
L 127.27831 128.971636 
L 127.328073 118.498909 
L 127.361249 122.688 
L 127.411012 155.153455 
L 127.477362 135.255273 
L 127.659827 183.429818 
L 127.908643 121.640727 
L 127.941818 78.702545 
L 127.974994 93.364364 
L 128.057932 176.098909 
L 128.140871 166.673455 
L 128.256985 143.633455 
L 128.406274 168.768 
L 128.522388 119.546182 
L 128.555563 140.491636 
L 128.605326 152.011636 
L 128.638502 150.964364 
L 128.671677 134.208 
L 128.72144 170.862545 
L 128.754616 169.815273 
L 128.837554 92.317091 
L 128.87073 133.160727 
L 128.953668 178.193455 
L 129.020019 168.768 
L 129.136133 179.240727 
L 129.219071 150.964364 
L 129.252247 168.768 
L 129.30201 171.909818 
L 129.418124 96.506182 
L 129.501062 175.051636 
L 129.567413 171.909818 
L 129.650352 145.728 
L 129.716703 147.822545 
L 129.799641 171.909818 
L 129.832816 158.295273 
L 129.865992 150.964364 
L 129.915755 157.248 
L 129.94893 168.768 
L 129.998693 163.531636 
L 130.031869 149.917091 
L 130.065044 162.484364 
L 130.147983 177.146182 
L 130.230921 122.688 
L 130.347035 139.444364 
L 130.396798 134.208 
L 130.446562 168.768 
L 130.496325 167.720727 
L 130.562675 139.444364 
L 130.645614 193.902545 
L 130.728552 191.808 
L 130.811491 155.153455 
L 130.89443 128.971636 
L 130.927605 147.822545 
L 130.977368 157.248 
L 131.010543 142.586182 
L 131.093482 120.593455 
L 131.226184 167.720727 
L 131.309122 113.262545 
L 131.342298 125.829818 
L 131.508175 172.957091 
L 131.591113 100.695273 
L 131.624289 109.073455 
L 131.707227 198.091636 
L 131.740402 194.949818 
L 131.922867 136.302545 
L 131.956043 156.200727 
L 132.038981 189.713455 
L 132.088744 182.382545 
L 132.155095 122.688 
L 132.204858 144.680727 
L 132.403911 188.666182 
L 132.437086 178.193455 
L 132.486849 168.768 
L 132.520025 180.288 
L 132.586375 186.571636 
L 132.702489 94.411636 
L 132.818603 110.120727 
L 132.934717 172.957091 
L 132.98448 168.768 
L 133.100594 119.546182 
L 133.216708 180.288 
L 133.316234 142.586182 
L 133.34941 112.215273 
L 133.399173 144.680727 
L 133.548462 176.098909 
L 133.598225 178.193455 
L 133.714339 134.208 
L 133.764102 146.775273 
L 133.797278 157.248 
L 133.830453 138.397091 
L 133.880216 152.011636 
L 133.913392 155.153455 
L 133.979742 144.680727 
L 134.046093 181.335273 
L 134.095856 167.720727 
L 134.178795 136.302545 
L 134.21197 165.626182 
L 134.294909 156.200727 
L 134.377847 99.648 
L 134.411023 120.593455 
L 134.527137 175.051636 
L 134.5769 170.862545 
L 134.610075 168.768 
L 134.709601 171.909818 
L 134.79254 81.844364 
L 134.825715 83.938909 
L 134.908654 174.004364 
L 134.958417 162.484364 
L 135.024768 144.680727 
L 135.074531 158.295273 
L 135.157469 192.855273 
L 135.190645 191.808 
L 135.406285 124.782545 
L 135.43946 126.877091 
L 135.489224 146.775273 
L 135.522399 125.829818 
L 135.572162 89.175273 
L 135.605337 118.498909 
L 135.655101 154.106182 
L 135.688276 145.728 
L 135.771215 81.844364 
L 135.80439 122.688 
L 135.854153 159.342545 
L 135.887328 131.066182 
L 135.920504 71.371636 
L 135.970267 75.560727 
L 136.102969 180.288 
L 136.185907 110.120727 
L 136.219083 127.924364 
L 136.302021 181.335273 
L 136.351784 165.626182 
L 136.418135 102.789818 
L 136.467898 136.302545 
L 136.550837 162.484364 
L 136.584012 159.342545 
L 136.700126 55.662545 
L 136.749889 66.135273 
L 136.882591 185.524364 
L 136.915766 184.477091 
L 137.081643 116.404364 
L 137.197757 176.098909 
L 137.280696 169.815273 
L 137.39681 135.255273 
L 137.579274 185.524364 
L 137.662213 127.924364 
L 137.695388 138.397091 
L 137.778327 165.626182 
L 137.811502 161.437091 
L 137.894441 123.735273 
L 137.944204 143.633455 
L 138.093493 165.626182 
L 138.226195 125.829818 
L 138.309133 128.971636 
L 138.508186 164.578909 
L 138.640887 114.309818 
L 138.674063 134.208 
L 138.790177 180.288 
L 138.83994 170.862545 
L 138.939466 132.113455 
L 138.972641 145.728 
L 139.088755 170.862545 
L 139.254632 141.538909 
L 139.370746 164.578909 
L 139.536623 140.491636 
L 139.63615 105.931636 
L 139.669325 120.593455 
L 139.7025 109.073455 
L 139.752264 117.451636 
L 139.951316 164.578909 
L 140.034255 153.058909 
L 140.100605 174.004364 
L 140.233307 102.789818 
L 140.266482 145.728 
L 140.332833 142.586182 
L 140.399184 109.073455 
L 140.448947 119.546182 
L 140.565061 187.618909 
L 140.598236 177.146182 
L 140.681175 147.822545 
L 140.730938 175.051636 
L 140.764113 171.909818 
L 140.847052 73.466182 
L 140.880227 105.931636 
L 141.012929 136.302545 
L 141.062692 91.269818 
L 141.095868 103.837091 
L 141.178806 178.193455 
L 141.228569 161.437091 
L 141.29492 128.971636 
L 141.344683 147.822545 
L 141.460797 176.098909 
L 141.543736 130.018909 
L 141.576911 132.113455 
L 141.65985 188.666182 
L 141.709613 171.909818 
L 141.792551 121.640727 
L 141.842314 128.971636 
L 141.87549 163.531636 
L 141.925253 162.484364 
L 141.958428 125.829818 
L 142.041367 155.153455 
L 142.074542 148.869818 
L 142.157481 90.222545 
L 142.190656 135.255273 
L 142.323358 203.328 
L 142.356533 195.997091 
L 142.538998 179.240727 
L 142.572173 181.335273 
L 142.655112 202.280727 
L 142.688287 176.098909 
L 142.771226 183.429818 
L 142.937103 195.997091 
L 143.053217 113.262545 
L 143.10298 156.200727 
L 143.235681 171.909818 
L 143.268857 134.208 
L 143.31862 141.538909 
L 143.384971 216.942545 
L 143.467909 208.564364 
L 143.550848 189.713455 
L 143.584023 195.997091 
L 143.633786 213.800727 
L 143.716725 163.531636 
L 143.7499 213.800727 
L 143.832839 201.233455 
L 143.932365 209.611636 
L 143.96554 208.564364 
L 144.164593 174.004364 
L 144.247531 139.444364 
L 144.280707 159.342545 
L 144.33047 162.484364 
L 144.413408 106.978909 
L 144.529522 187.618909 
L 144.629049 121.640727 
L 144.662224 127.924364 
L 144.745162 163.531636 
L 144.778338 162.484364 
L 144.861276 121.640727 
L 144.91104 134.208 
L 144.944215 149.917091 
L 144.97739 146.775273 
L 145.027153 112.215273 
L 145.060329 154.106182 
L 145.143267 185.524364 
L 145.19303 154.106182 
L 145.226206 168.768 
L 145.325732 191.808 
L 145.408671 115.357091 
L 145.441846 184.477091 
L 145.475021 210.658909 
L 145.524785 180.288 
L 145.607723 118.498909 
L 145.640899 150.964364 
L 145.690662 176.098909 
L 145.723837 163.531636 
L 145.839951 98.600727 
L 145.889714 115.357091 
L 145.956065 167.720727 
L 146.022416 150.964364 
L 146.055591 134.208 
L 146.171705 205.422545 
L 146.221468 195.997091 
L 146.254644 194.949818 
L 146.304407 175.051636 
L 146.387345 182.382545 
L 146.420521 182.382545 
L 146.503459 142.586182 
L 146.536635 169.815273 
L 146.619573 184.477091 
L 146.752275 137.349818 
L 146.802038 162.484364 
L 146.835213 153.058909 
L 146.868389 119.546182 
L 146.918152 144.680727 
L 146.951327 166.673455 
L 147.00109 160.389818 
L 147.084029 97.553455 
L 147.117204 121.640727 
L 147.200143 172.957091 
L 147.233318 158.295273 
L 147.283081 135.255273 
L 147.349432 154.106182 
L 147.448958 133.160727 
L 147.697774 191.808 
L 147.780712 140.491636 
L 147.813888 146.775273 
L 147.896826 169.815273 
L 147.930002 158.295273 
L 148.01294 67.182545 
L 148.046116 124.782545 
L 148.112466 139.444364 
L 148.195405 192.855273 
L 148.22858 178.193455 
L 148.261756 123.735273 
L 148.344694 140.491636 
L 148.427633 166.673455 
L 148.477396 152.011636 
L 148.510571 135.255273 
L 148.59351 143.633455 
L 148.709624 194.949818 
L 148.742799 183.429818 
L 148.842325 95.458909 
L 148.892089 123.735273 
L 148.975027 176.098909 
L 149.008202 175.051636 
L 149.091141 89.175273 
L 149.124316 132.113455 
L 149.207255 166.673455 
L 149.24043 152.011636 
L 149.290193 144.680727 
L 149.406307 180.288 
L 149.489246 159.342545 
L 149.588772 90.222545 
L 149.671711 171.909818 
L 149.704886 143.633455 
L 149.738061 79.749818 
L 149.787825 136.302545 
L 149.821 169.815273 
L 149.870763 157.248 
L 149.937114 109.073455 
L 149.986877 141.538909 
L 150.020052 169.815273 
L 150.069816 137.349818 
L 150.102991 131.066182 
L 150.136166 135.255273 
L 150.235693 178.193455 
L 150.318631 177.146182 
L 150.368394 175.051636 
L 150.434745 103.837091 
L 150.484508 134.208 
L 150.517684 156.200727 
L 150.567447 150.964364 
L 150.600622 124.782545 
L 150.633797 144.680727 
L 150.766499 178.193455 
L 150.799674 171.909818 
L 150.849438 161.437091 
L 150.882613 172.957091 
L 150.915788 181.335273 
L 150.982139 176.098909 
L 151.131429 143.633455 
L 151.214367 185.524364 
L 151.297306 86.033455 
L 151.330481 116.404364 
L 151.41342 167.720727 
L 151.463183 158.295273 
L 151.496358 154.106182 
L 151.546121 160.389818 
L 151.579297 155.153455 
L 151.612472 161.437091 
L 151.711998 144.680727 
L 151.761761 154.106182 
L 151.828112 168.768 
L 151.877875 163.531636 
L 151.911051 118.498909 
L 151.993989 136.302545 
L 152.027165 118.498909 
L 152.076928 142.586182 
L 152.193042 182.382545 
L 152.27598 175.051636 
L 152.309156 179.240727 
L 152.458445 111.168 
L 152.49162 127.924364 
L 152.524796 150.964364 
L 152.574559 144.680727 
L 152.607734 110.120727 
L 152.690673 128.971636 
L 152.723848 114.309818 
L 152.773611 140.491636 
L 152.806787 144.680727 
L 152.85655 139.444364 
L 152.889725 115.357091 
L 152.972664 128.971636 
L 153.07219 159.342545 
L 153.221479 103.837091 
L 153.420532 168.768 
L 153.586409 125.829818 
L 153.669347 155.153455 
L 153.702523 149.917091 
L 153.752286 131.066182 
L 153.802049 136.302545 
L 153.851812 160.389818 
L 153.918163 154.106182 
L 154.001101 93.364364 
L 154.050865 115.357091 
L 154.117215 155.153455 
L 154.166978 122.688 
L 154.200154 127.924364 
L 154.332855 198.091636 
L 154.399206 146.775273 
L 154.448969 164.578909 
L 154.498733 169.815273 
L 154.548496 166.673455 
L 154.614846 127.924364 
L 154.697785 137.349818 
L 154.747548 147.822545 
L 154.780723 140.491636 
L 154.830487 141.538909 
L 154.896837 152.011636 
L 155.145653 115.357091 
L 155.31153 165.626182 
L 155.361293 159.342545 
L 155.394469 155.153455 
L 155.477407 181.335273 
L 155.52717 170.862545 
L 155.593521 111.168 
L 155.643284 160.389818 
L 155.67646 200.186182 
L 155.759398 176.098909 
L 155.792573 122.688 
L 155.842337 142.586182 
L 155.941863 174.004364 
L 155.975038 172.957091 
L 156.091152 156.200727 
L 156.174091 170.862545 
L 156.223854 164.578909 
L 156.257029 150.964364 
L 156.339968 153.058909 
L 156.489257 167.720727 
L 156.53902 153.058909 
L 156.572196 167.720727 
L 156.638546 160.389818 
L 156.75466 98.600727 
L 156.787836 111.168 
L 156.953713 160.389818 
L 157.036651 141.538909 
L 157.069827 149.917091 
L 157.185941 164.578909 
L 157.235704 159.342545 
L 157.268879 149.917091 
L 157.368405 152.011636 
L 157.484519 147.822545 
L 157.567458 128.971636 
L 157.733335 175.051636 
L 157.849449 102.789818 
L 157.882624 123.735273 
L 157.965563 120.593455 
L 158.114852 182.382545 
L 158.148027 184.477091 
L 158.181203 193.902545 
L 158.313904 104.884364 
L 158.34708 143.633455 
L 158.380255 175.051636 
L 158.430018 162.484364 
L 158.512957 111.168 
L 158.546132 150.964364 
L 158.662246 170.862545 
L 158.728597 177.146182 
L 158.811536 201.233455 
L 158.844711 189.713455 
L 158.92765 153.058909 
L 158.960825 156.200727 
L 159.043763 184.477091 
L 159.076939 194.949818 
L 159.126702 180.288 
L 159.159877 186.571636 
L 159.242816 163.531636 
L 159.275991 178.193455 
L 159.458456 154.106182 
L 159.541395 116.404364 
L 159.707272 179.240727 
L 159.906324 128.971636 
L 159.972675 143.633455 
L 160.022438 142.586182 
L 160.055613 117.451636 
L 160.105377 148.869818 
L 160.271254 184.477091 
L 160.354192 140.491636 
L 160.403955 155.153455 
L 160.437131 183.429818 
L 160.520069 175.051636 
L 160.603008 127.924364 
L 160.636183 142.586182 
L 160.719122 153.058909 
L 160.752297 143.633455 
L 160.967937 108.026182 
L 161.100639 160.389818 
L 161.16699 147.822545 
L 161.216753 114.309818 
L 161.249928 120.593455 
L 161.332867 156.200727 
L 161.38263 153.058909 
L 161.415805 139.444364 
L 161.448981 142.586182 
L 161.498744 159.342545 
L 161.531919 156.200727 
L 161.714384 142.586182 
L 161.747559 143.633455 
L 161.863673 104.884364 
L 161.913436 112.215273 
L 161.996375 144.680727 
L 162.02955 124.782545 
L 162.112489 115.357091 
L 162.294953 156.200727 
L 162.361304 170.862545 
L 162.494006 146.775273 
L 162.643295 159.342545 
L 162.842348 180.288 
L 162.892111 200.186182 
L 162.991637 131.066182 
L 163.024812 141.538909 
L 163.057988 174.004364 
L 163.107751 163.531636 
L 163.190689 125.829818 
L 163.223865 141.538909 
L 163.339979 164.578909 
L 163.389742 157.248 
L 163.422917 166.673455 
L 163.47268 165.626182 
L 163.539031 112.215273 
L 163.588794 149.917091 
L 163.721496 180.288 
L 163.83761 162.484364 
L 163.920548 171.909818 
L 163.970312 168.768 
L 164.036662 157.248 
L 164.119601 160.389818 
L 164.169364 166.673455 
L 164.202539 157.248 
L 164.451355 95.458909 
L 164.501118 96.506182 
L 164.666995 134.208 
L 164.700171 121.640727 
L 164.733346 156.200727 
L 164.816284 134.208 
L 164.866048 134.208 
L 164.982162 193.902545 
L 165.015337 183.429818 
L 165.114863 115.357091 
L 165.148039 136.302545 
L 165.28074 185.524364 
L 165.313916 184.477091 
L 165.479793 181.335273 
L 165.512968 183.429818 
L 165.562731 182.382545 
L 165.629082 155.153455 
L 165.761784 110.120727 
L 165.844722 156.200727 
L 165.894485 152.011636 
L 166.010599 108.026182 
L 166.060362 114.309818 
L 166.093538 101.742545 
L 166.126713 130.018909 
L 166.29259 169.815273 
L 166.325766 170.862545 
L 166.408704 188.666182 
L 166.458467 186.571636 
L 166.591169 143.633455 
L 166.624344 155.153455 
L 166.707283 164.578909 
L 166.757046 162.484364 
L 166.87316 127.924364 
L 166.989274 172.957091 
L 167.022449 159.342545 
L 167.072212 138.397091 
L 167.105388 155.153455 
L 167.188326 199.138909 
L 167.254677 159.342545 
L 167.321028 178.193455 
L 167.370791 201.233455 
L 167.403966 177.146182 
L 167.453729 174.004364 
L 167.486905 188.666182 
L 167.52008 182.382545 
L 167.603019 139.444364 
L 167.652782 155.153455 
L 167.768896 224.273455 
L 167.802071 209.611636 
L 167.851834 195.997091 
L 167.88501 197.044364 
L 167.951361 207.517091 
L 167.984536 203.328 
L 168.150413 182.382545 
L 168.216764 186.571636 
L 168.266527 226.368 
L 168.299702 207.517091 
L 168.382641 161.437091 
L 168.415816 186.571636 
L 168.498755 197.044364 
L 168.648044 116.404364 
L 168.714395 217.989818 
L 168.764158 186.571636 
L 168.847097 150.964364 
L 168.880272 169.815273 
L 168.913447 157.248 
L 168.963211 169.815273 
L 168.996386 190.760727 
L 169.046149 177.146182 
L 169.245201 136.302545 
L 169.377903 179.240727 
L 169.411079 179.240727 
L 169.460842 178.193455 
L 169.494017 169.815273 
L 169.54378 185.524364 
L 169.610131 178.193455 
L 169.659894 175.051636 
L 169.69307 202.280727 
L 169.742833 162.484364 
L 169.776008 169.815273 
L 169.941885 105.931636 
L 169.97506 116.404364 
L 170.074587 166.673455 
L 170.107762 158.295273 
L 170.190701 122.688 
L 170.240464 132.113455 
L 170.273639 162.484364 
L 170.356578 153.058909 
L 170.472692 184.477091 
L 170.588806 177.146182 
L 170.638569 167.720727 
L 170.721507 114.309818 
L 170.77127 118.498909 
L 170.937147 152.011636 
L 170.970323 156.200727 
L 171.003498 147.822545 
L 171.086437 125.829818 
L 171.1362 137.349818 
L 171.219138 170.862545 
L 171.252314 165.626182 
L 171.501129 103.837091 
L 171.550892 111.168 
L 171.667006 141.538909 
L 171.700182 138.397091 
L 171.749945 126.877091 
L 171.832883 154.106182 
L 171.866059 137.349818 
L 171.915822 133.160727 
L 172.031936 159.342545 
L 172.065111 153.058909 
L 172.114874 122.688 
L 172.14805 123.735273 
L 172.396865 182.382545 
L 172.446628 180.288 
L 172.479804 184.477091 
L 172.612505 155.153455 
L 172.645681 157.248 
L 172.678856 178.193455 
L 172.761795 161.437091 
L 172.811558 140.491636 
L 172.894496 71.371636 
L 173.093549 164.578909 
L 173.143312 160.389818 
L 173.176487 140.491636 
L 173.259426 153.058909 
L 173.309189 160.389818 
L 173.342364 152.011636 
L 173.508241 127.924364 
L 173.640943 188.666182 
L 173.674118 185.524364 
L 173.723882 167.720727 
L 173.757057 171.909818 
L 173.80682 180.288 
L 173.839996 174.004364 
L 174.039048 138.397091 
L 174.121987 155.153455 
L 174.155162 152.011636 
L 174.2381 146.775273 
L 174.271276 165.626182 
L 174.337627 159.342545 
L 174.420565 133.160727 
L 174.453741 146.775273 
L 174.503504 163.531636 
L 174.536679 143.633455 
L 174.619618 145.728 
L 174.652793 108.026182 
L 174.81867 191.808 
L 174.851845 178.193455 
L 174.901609 160.389818 
L 174.934784 163.531636 
L 175.03431 178.193455 
L 175.067486 175.051636 
L 175.200187 182.382545 
L 175.432415 148.869818 
L 175.515354 106.978909 
L 175.548529 111.168 
L 175.730994 168.768 
L 175.764169 209.611636 
L 175.813932 186.571636 
L 175.896871 162.484364 
L 175.930046 179.240727 
L 176.012985 160.389818 
L 176.095923 86.033455 
L 176.129099 94.411636 
L 176.294976 200.186182 
L 176.377914 184.477091 
L 176.427677 185.524364 
L 176.510616 177.146182 
L 176.659905 156.200727 
L 176.709668 155.153455 
L 176.792607 172.957091 
L 176.825782 169.815273 
L 176.941896 130.018909 
L 177.074598 137.349818 
L 177.107773 161.437091 
L 177.207299 156.200727 
L 177.240475 149.917091 
L 177.323413 184.477091 
L 177.406352 179.240727 
L 177.522466 120.593455 
L 177.555641 148.869818 
L 177.688343 189.713455 
L 177.721518 170.862545 
L 177.771281 171.909818 
L 177.804457 168.768 
L 177.85422 174.004364 
L 177.903983 174.004364 
L 178.185974 140.491636 
L 178.302088 171.909818 
L 178.335263 168.768 
L 178.385026 177.146182 
L 178.50114 140.491636 
L 178.550904 145.728 
L 178.600667 164.578909 
L 178.683605 161.437091 
L 178.716781 161.437091 
L 178.832894 97.553455 
L 178.915833 126.877091 
L 178.965596 105.931636 
L 178.998772 127.924364 
L 179.114885 171.909818 
L 179.230999 118.498909 
L 179.380289 120.593455 
L 179.496403 163.531636 
L 179.579341 115.357091 
L 179.612517 137.349818 
L 179.778394 188.666182 
L 179.811569 187.618909 
L 179.927683 144.680727 
L 179.994034 154.106182 
L 180.027209 152.011636 
L 180.076972 181.335273 
L 180.110148 164.578909 
L 180.226262 56.709818 
L 180.276025 103.837091 
L 180.392139 168.768 
L 180.425314 158.295273 
L 180.475077 131.066182 
L 180.508253 146.775273 
L 180.591191 186.571636 
L 180.624367 163.531636 
L 180.690717 132.113455 
L 180.723893 138.397091 
L 180.88977 202.280727 
L 181.005884 183.429818 
L 181.055647 190.760727 
L 181.121998 192.855273 
L 181.287875 164.578909 
L 181.32105 181.335273 
L 181.387401 171.909818 
L 181.470339 158.295273 
L 181.503515 166.673455 
L 181.53669 164.578909 
L 181.669392 98.600727 
L 181.702567 111.168 
L 181.818681 182.382545 
L 181.868444 177.146182 
L 181.951383 120.593455 
L 181.984558 123.735273 
L 182.11726 193.902545 
L 182.167023 194.949818 
L 182.200198 193.902545 
L 182.283137 184.477091 
L 182.316312 190.760727 
L 182.399251 193.902545 
L 182.482189 178.193455 
L 182.681242 117.451636 
L 182.714417 119.546182 
L 182.863707 160.389818 
L 182.896882 148.869818 
L 182.946645 130.018909 
L 182.979821 143.633455 
L 183.012996 166.673455 
L 183.062759 164.578909 
L 183.212048 110.120727 
L 183.34475 167.720727 
L 183.377925 144.680727 
L 183.411101 102.789818 
L 183.460864 135.255273 
L 183.510627 148.869818 
L 183.593566 115.357091 
L 183.70968 158.295273 
L 183.759443 157.248 
L 183.792618 152.011636 
L 183.908732 179.240727 
L 183.958495 176.098909 
L 183.99167 184.477091 
L 184.041434 183.429818 
L 184.157548 124.782545 
L 184.207311 136.302545 
L 184.340012 174.004364 
L 184.489302 116.404364 
L 184.539065 122.688 
L 184.57224 168.768 
L 184.655179 159.342545 
L 184.688354 162.484364 
L 184.738117 181.335273 
L 184.771293 170.862545 
L 184.804468 161.437091 
L 184.854231 172.957091 
L 184.887406 179.240727 
L 185.036696 136.302545 
L 185.15281 189.713455 
L 185.235748 166.673455 
L 185.268924 176.098909 
L 185.302099 178.193455 
L 185.385038 204.375273 
L 185.434801 201.233455 
L 185.550915 142.586182 
L 185.58409 163.531636 
L 185.683616 188.666182 
L 185.766555 172.957091 
L 185.79973 165.626182 
L 185.882669 191.808 
L 185.932432 189.713455 
L 186.081721 168.768 
L 186.131484 168.768 
L 186.214423 184.477091 
L 186.280774 140.491636 
L 186.347124 150.964364 
L 186.3803 171.909818 
L 186.463238 158.295273 
L 186.579352 152.011636 
L 186.662291 180.288 
L 186.695466 179.240727 
L 186.778405 152.011636 
L 186.911106 189.713455 
L 186.944282 185.524364 
L 187.076983 98.600727 
L 187.193097 189.713455 
L 187.24286 177.146182 
L 187.39215 137.349818 
L 187.475088 186.571636 
L 187.524851 177.146182 
L 187.60779 102.789818 
L 187.640965 138.397091 
L 187.773667 202.280727 
L 187.889781 126.877091 
L 188.055658 210.658909 
L 188.138597 197.044364 
L 188.304474 160.389818 
L 188.337649 167.720727 
L 188.370824 165.626182 
L 188.470351 61.946182 
L 188.520114 106.978909 
L 188.636228 194.949818 
L 188.669403 176.098909 
L 188.752342 113.262545 
L 188.83528 184.477091 
L 188.868455 183.429818 
L 188.951394 160.389818 
L 189.034333 188.666182 
L 189.067508 177.146182 
L 189.117271 135.255273 
L 189.167034 168.768 
L 189.332911 205.422545 
L 189.41585 207.517091 
L 189.531964 197.044364 
L 189.731016 164.578909 
L 189.946656 210.658909 
L 189.979832 204.375273 
L 190.145709 215.895273 
L 190.394524 143.633455 
L 190.543814 193.902545 
L 190.64334 187.618909 
L 190.726278 194.949818 
L 190.759454 189.713455 
L 190.958506 166.673455 
L 191.008269 187.618909 
L 191.091208 176.098909 
L 191.240497 136.302545 
L 191.340023 87.080727 
L 191.389787 89.175273 
L 191.5059 176.098909 
L 191.539076 175.051636 
L 191.622014 98.600727 
L 191.65519 56.709818 
L 191.704953 96.506182 
L 191.821067 185.524364 
L 191.854242 184.477091 
L 191.937181 160.389818 
L 192.003532 145.728 
L 192.036707 155.153455 
L 192.202584 198.091636 
L 192.235759 183.429818 
L 192.484575 79.749818 
L 192.51775 86.033455 
L 192.633864 161.437091 
L 192.700215 162.484364 
L 192.783154 131.066182 
L 192.849504 135.255273 
L 192.899268 136.302545 
L 192.982206 122.688 
L 193.09832 74.513455 
L 193.247609 155.153455 
L 193.297372 157.248 
L 193.330548 138.397091 
L 193.380311 147.822545 
L 193.513013 184.477091 
L 193.629127 137.349818 
L 193.67889 157.248 
L 193.745241 185.524364 
L 193.795004 176.098909 
L 193.877942 114.309818 
L 193.911118 153.058909 
L 193.944293 161.437091 
L 193.994056 159.342545 
L 194.126758 131.066182 
L 194.242872 186.571636 
L 194.292635 178.193455 
L 194.408749 137.349818 
L 194.441924 143.633455 
L 194.607801 176.098909 
L 194.657564 175.051636 
L 194.823441 192.855273 
L 194.873204 187.618909 
L 194.90638 191.808 
L 194.939555 204.375273 
L 194.989318 201.233455 
L 195.105432 150.964364 
L 195.138608 162.484364 
L 195.188371 171.909818 
L 195.221546 158.295273 
L 195.271309 139.444364 
L 195.354248 147.822545 
L 195.420599 159.342545 
L 195.503537 190.760727 
L 195.603063 159.342545 
L 195.636239 145.728 
L 195.686002 156.200727 
L 195.76894 176.098909 
L 195.802116 168.768 
L 195.835291 159.342545 
L 195.91823 191.808 
L 196.050931 57.757091 
L 196.084107 126.877091 
L 196.200221 202.280727 
L 196.266572 205.422545 
L 196.299747 204.375273 
L 196.382685 187.618909 
L 196.465624 167.720727 
L 196.531975 190.760727 
L 196.581738 185.524364 
L 196.614913 185.524364 
L 196.747615 195.997091 
L 196.863729 181.335273 
L 196.896904 186.571636 
L 196.963255 185.524364 
L 197.394535 82.891636 
L 197.477474 106.978909 
L 197.693114 134.208 
L 197.892167 142.586182 
L 198.986955 100.695273 
L 199.202595 100.695273 
L 199.335297 101.742545 
L 199.368472 101.742545 
L 199.484586 102.789818 
L 199.567525 102.789818 
L 199.683639 101.742545 
L 199.783165 101.742545 
L 199.949042 103.837091 
L 200.03198 103.837091 
L 200.148094 104.884364 
L 200.18127 104.884364 
L 200.529612 110.120727 
L 200.562787 110.120727 
L 200.795015 114.309818 
L 200.844778 114.309818 
L 201.077006 118.498909 
L 201.226295 118.498909 
L 201.425348 121.640727 
L 201.458523 121.640727 
L 201.690751 125.829818 
L 202.934829 154.106182 
L 203.249995 161.437091 
L 203.316346 161.437091 
L 203.548574 165.626182 
L 203.631512 165.626182 
L 203.830565 168.768 
L 203.946679 168.768 
L 204.129143 170.862545 
L 204.212082 170.862545 
L 204.328196 157.248 
L 204.361371 158.295273 
L 204.44431 160.389818 
L 204.560424 155.153455 
L 204.825827 169.815273 
L 205.024879 172.957091 
L 205.257107 172.957091 
L 205.389809 171.909818 
L 205.439572 172.957091 
L 205.472747 171.909818 
L 205.605449 171.909818 
L 205.754738 174.004364 
L 206.335308 174.004364 
L 206.368483 175.051636 
L 206.418246 174.004364 
L 206.451422 174.004364 
L 206.584124 175.051636 
L 206.733413 175.051636 
L 206.866114 174.004364 
L 207.031992 174.004364 
L 207.148105 175.051636 
L 207.47986 175.051636 
L 207.645737 177.146182 
L 208.010666 177.146182 
L 208.12678 176.098909 
L 208.906402 176.098909 
L 209.039104 177.146182 
L 209.122042 177.146182 
L 209.238156 176.098909 
L 209.370858 177.146182 
L 209.520147 175.051636 
L 209.702612 177.146182 
L 210.183655 177.146182 
L 210.299769 176.098909 
L 210.482234 176.098909 
L 210.598348 175.051636 
L 211.212093 175.051636 
L 211.261856 174.004364 
L 211.295031 175.051636 
L 211.95854 175.051636 
L 212.074654 176.098909 
L 212.190768 175.051636 
L 212.356645 175.051636 
L 212.472758 176.098909 
L 212.60546 176.098909 
L 212.721574 175.051636 
L 212.97039 178.193455 
L 213.053328 178.193455 
L 213.169442 179.240727 
L 213.202617 178.193455 
L 213.268968 179.240727 
L 214.114941 179.240727 
L 214.19788 178.193455 
L 214.330581 179.240727 
L 214.778449 179.240727 
L 214.894563 178.193455 
L 214.977502 178.193455 
L 215.093616 177.146182 
L 215.143379 177.146182 
L 215.259493 178.193455 
L 215.475133 178.193455 
L 215.508308 179.240727 
L 215.558071 178.193455 
L 216.055703 178.193455 
L 216.171817 177.146182 
L 216.337694 179.240727 
L 216.835325 179.240727 
L 216.8685 180.288 
L 216.901675 179.240727 
L 216.951439 179.240727 
L 216.984614 180.288 
L 217.034377 179.240727 
L 217.349544 179.240727 
L 217.482245 178.193455 
L 217.813999 178.193455 
L 217.930113 177.146182 
L 218.178929 177.146182 
L 218.31163 176.098909 
L 218.776086 176.098909 
L 218.958551 174.004364 
L 219.041489 175.051636 
L 219.124428 174.004364 
L 219.240542 175.051636 
L 219.522533 175.051636 
L 219.655234 174.004364 
L 220.318743 174.004364 
L 220.351918 175.051636 
L 220.401681 174.004364 
L 220.866137 174.004364 
L 221.015426 175.051636 
L 221.048602 175.051636 
L 221.13154 174.004364 
L 221.164715 175.051636 
L 221.214479 174.004364 
L 221.49647 174.004364 
L 221.612583 175.051636 
L 222.110215 175.051636 
L 222.226329 176.098909 
L 222.276092 176.098909 
L 222.392206 177.146182 
L 222.690784 177.146182 
L 222.806898 176.098909 
L 222.889837 176.098909 
L 223.005951 175.051636 
L 223.138652 176.098909 
L 223.58652 176.098909 
L 223.619696 175.051636 
L 223.669459 176.098909 
L 223.702634 176.098909 
L 223.818748 175.051636 
L 223.885099 174.004364 
L 223.918274 175.051636 
L 224.432493 175.051636 
L 224.482256 174.004364 
L 224.515432 175.051636 
L 224.81401 175.051636 
L 224.930124 174.004364 
L 225.062826 175.051636 
L 225.344817 175.051636 
L 225.477519 176.098909 
L 225.792685 176.098909 
L 225.908799 175.051636 
L 225.97515 175.051636 
L 226.008325 174.004364 
L 226.0415 175.051636 
L 227.152877 175.051636 
L 227.268991 174.004364 
L 227.484631 174.004364 
L 227.600745 172.957091 
L 228.380367 172.957091 
L 228.496481 174.004364 
L 228.546244 174.004364 
L 228.612595 172.957091 
L 228.662358 174.004364 
L 228.695533 172.957091 
L 228.745296 172.957091 
L 228.877998 174.004364 
L 229.07705 174.004364 
L 229.193164 172.957091 
L 229.242927 172.957091 
L 229.359041 174.004364 
L 229.475155 172.957091 
L 230.23819 172.957091 
L 230.30454 174.004364 
L 230.437242 172.957091 
L 230.719233 172.957091 
L 230.835347 171.909818 
L 231.167101 171.909818 
L 231.283215 172.957091 
L 231.449092 172.957091 
L 231.565206 174.004364 
L 231.946723 174.004364 
L 232.062837 172.957091 
L 232.1126 172.957091 
L 232.228714 174.004364 
L 232.361416 172.957091 
L 232.47753 172.957091 
L 232.593644 171.909818 
L 232.676582 171.909818 
L 232.809284 170.862545 
L 232.875635 170.862545 
L 232.958573 169.815273 
L 233.058099 170.862545 
L 233.091275 169.815273 
L 233.141038 170.862545 
L 234.434879 170.862545 
L 234.56758 169.815273 
L 234.700282 169.815273 
L 234.816396 170.862545 
L 235.048624 170.862545 
L 235.098387 169.815273 
L 235.131562 170.862545 
L 235.463316 170.862545 
L 235.596018 169.815273 
L 235.662369 169.815273 
L 235.795071 168.768 
L 236.242939 168.768 
L 236.359052 167.720727 
L 237.055736 167.720727 
L 237.221613 165.626182 
L 237.287964 165.626182 
L 237.404078 166.673455 
L 237.636306 166.673455 
L 237.719244 167.720727 
L 237.835358 166.673455 
L 238.1837 166.673455 
L 238.299814 167.720727 
L 238.332989 167.720727 
L 238.415928 166.673455 
L 238.449103 167.720727 
L 238.498866 166.673455 
L 238.996497 166.673455 
L 239.112611 165.626182 
L 239.19555 165.626182 
L 239.311664 166.673455 
L 239.577067 166.673455 
L 239.693181 167.720727 
L 239.77612 167.720727 
L 239.892233 168.768 
L 240.190812 168.768 
L 240.323514 167.720727 
L 240.406452 167.720727 
L 240.522566 166.673455 
L 240.63868 166.673455 
L 240.771382 165.626182 
L 240.804557 165.626182 
L 240.953846 164.578909 
L 241.783232 164.578909 
L 241.899346 165.626182 
L 242.66238 165.626182 
L 242.778494 166.673455 
L 243.160011 166.673455 
L 243.292713 167.720727 
L 243.375651 167.720727 
L 243.491765 168.768 
L 244.287975 168.768 
L 244.420677 169.815273 
L 244.47044 169.815273 
L 244.553378 171.909818 
L 244.586554 170.862545 
L 244.636317 170.862545 
L 244.752431 169.815273 
L 245.880395 169.815273 
L 246.013096 168.768 
L 246.096035 168.768 
L 246.261912 166.673455 
L 246.56049 166.673455 
L 246.676604 165.626182 
L 246.726368 165.626182 
L 246.842481 164.578909 
L 247.3567 164.578909 
L 247.472814 163.531636 
L 247.904095 163.531636 
L 248.053384 161.437091 
L 248.186086 161.437091 
L 248.302199 162.484364 
L 248.650541 162.484364 
L 248.766655 161.437091 
L 248.899357 162.484364 
L 249.098409 162.484364 
L 249.181348 161.437091 
L 249.297462 162.484364 
L 249.844856 162.484364 
L 249.977558 163.531636 
L 250.027321 163.531636 
L 250.143435 162.484364 
L 250.475189 162.484364 
L 250.60789 163.531636 
L 250.856706 163.531636 
L 250.989408 164.578909 
L 251.735854 164.578909 
L 251.851968 165.626182 
L 254.738229 165.626182 
L 254.821167 164.578909 
L 254.953869 165.626182 
L 255.584202 165.626182 
L 255.66714 166.673455 
L 255.716903 165.626182 
L 255.766666 166.673455 
L 255.799842 166.673455 
L 255.915956 165.626182 
L 256.048657 166.673455 
L 256.164771 166.673455 
L 256.297473 165.626182 
L 256.67899 165.626182 
L 256.795104 164.578909 
L 256.911218 164.578909 
L 257.04392 165.626182 
L 257.856717 165.626182 
L 257.889892 166.673455 
L 257.939656 165.626182 
L 259.266672 165.626182 
L 259.399374 164.578909 
L 259.946768 164.578909 
L 260.062882 163.531636 
L 260.593688 163.531636 
L 260.742978 162.484364 
L 261.058144 162.484364 
L 261.190846 163.531636 
L 261.771415 163.531636 
L 261.904117 162.484364 
L 262.484686 162.484364 
L 262.617388 163.531636 
L 262.650564 163.531636 
L 262.783265 164.578909 
L 262.866204 164.578909 
L 262.998905 165.626182 
L 263.280896 165.626182 
L 263.39701 166.673455 
L 263.911229 166.673455 
L 263.994168 167.720727 
L 264.027343 166.673455 
L 264.077106 167.720727 
L 264.259571 167.720727 
L 264.375685 166.673455 
L 264.6245 166.673455 
L 264.740614 165.626182 
L 264.923079 165.626182 
L 265.039193 164.578909 
L 265.536824 164.578909 
L 265.669526 163.531636 
L 265.802227 162.484364 
L 266.283271 162.484364 
L 266.382797 161.437091 
L 266.515499 162.484364 
L 266.79749 162.484364 
L 266.913603 163.531636 
L 266.963367 163.531636 
L 267.096068 162.484364 
L 267.145831 162.484364 
L 267.261945 163.531636 
L 267.460998 163.531636 
L 267.593699 164.578909 
L 267.726401 163.531636 
L 267.842515 163.531636 
L 267.975217 164.578909 
L 268.257208 164.578909 
L 268.373321 165.626182 
L 268.688488 165.626182 
L 268.804602 166.673455 
L 268.854365 166.673455 
L 268.970479 167.720727 
L 269.086593 167.720727 
L 269.235882 168.768 
L 269.600812 168.768 
L 269.633987 167.720727 
L 269.68375 168.768 
L 270.098443 168.768 
L 270.231144 167.720727 
L 270.397021 167.720727 
L 270.513135 166.673455 
L 270.662425 165.626182 
L 270.861477 165.626182 
L 270.944416 163.531636 
L 270.977591 164.578909 
L 271.49181 164.578909 
L 271.607924 163.531636 
L 271.989441 163.531636 
L 272.039204 162.484364 
L 272.072379 163.531636 
L 272.122143 163.531636 
L 272.238257 162.484364 
L 272.370958 162.484364 
L 272.487072 163.531636 
L 272.520247 163.531636 
L 272.652949 162.484364 
L 273.664799 162.484364 
L 273.697974 161.437091 
L 273.747738 162.484364 
L 274.37807 162.484364 
L 274.494184 163.531636 
L 274.842526 163.531636 
L 274.925465 164.578909 
L 275.008403 163.531636 
L 275.041579 164.578909 
L 275.091342 163.531636 
L 275.124517 163.531636 
L 275.257219 164.578909 
L 275.323569 164.578909 
L 275.456271 163.531636 
L 276.882814 163.531636 
L 277.015515 162.484364 
L 277.181392 162.484364 
L 277.214568 163.531636 
L 277.264331 162.484364 
L 277.297506 162.484364 
L 277.430208 163.531636 
L 277.579497 161.437091 
L 277.728787 162.484364 
L 277.811725 162.484364 
L 277.844901 163.531636 
L 277.894664 162.484364 
L 277.977602 162.484364 
L 278.093716 148.869818 
L 278.126891 142.586182 
L 278.176655 145.728 
L 278.292769 166.673455 
L 278.359119 164.578909 
L 278.392295 164.578909 
L 278.442058 163.531636 
L 278.475233 165.626182 
L 278.558172 164.578909 
L 278.690873 167.720727 
L 278.724049 166.673455 
L 278.840163 134.208 
L 278.889926 137.349818 
L 279.00604 167.720727 
L 279.072391 158.295273 
L 279.155329 120.593455 
L 279.188505 122.688 
L 279.387557 149.917091 
L 279.43732 159.342545 
L 279.470496 158.295273 
L 279.603197 135.255273 
L 279.686136 169.815273 
L 279.719311 159.342545 
L 279.785662 138.397091 
L 279.818837 148.869818 
L 280.01789 244.171636 
L 280.150591 190.760727 
L 280.266705 233.698909 
L 280.349644 213.800727 
L 280.482345 285.015273 
L 280.532109 286.062545 
L 280.697986 247.313455 
L 280.731161 244.171636 
L 280.780924 254.644364 
L 280.8141 244.171636 
L 280.863863 238.935273 
L 280.946801 278.731636 
L 281.013152 209.611636 
L 281.062915 214.848 
L 281.195617 295.488 
L 281.24538 283.968 
L 281.328318 245.218909 
L 281.361494 265.117091 
L 281.560546 224.273455 
L 281.610309 233.698909 
L 281.643485 238.935273 
L 281.776186 280.826182 
L 281.875713 234.746182 
L 281.908888 248.360727 
L 281.991827 267.211636 
L 282.074765 229.509818 
L 282.10794 201.233455 
L 282.157704 206.469818 
L 282.240642 249.408 
L 282.273818 244.171636 
L 282.323581 248.360727 
L 282.439695 209.611636 
L 282.489458 224.273455 
L 282.588984 244.171636 
L 282.705098 198.091636 
L 282.738273 213.800727 
L 282.821212 241.029818 
L 282.90415 148.869818 
L 282.987089 174.004364 
L 283.152966 244.171636 
L 283.26908 204.375273 
L 283.335431 210.658909 
L 283.368606 208.564364 
L 283.451545 171.909818 
L 283.534483 184.477091 
L 283.584246 180.288 
L 283.70036 114.309818 
L 283.750123 121.640727 
L 283.899413 189.713455 
L 284.048702 149.917091 
L 284.081877 155.153455 
L 284.13164 160.389818 
L 284.164816 148.869818 
L 284.247754 198.091636 
L 284.297517 174.004364 
L 284.363868 180.288 
L 284.413631 160.389818 
L 284.446807 121.640727 
L 284.529745 130.018909 
L 284.579508 108.026182 
L 284.612684 133.160727 
L 284.795149 161.437091 
L 284.844912 160.389818 
L 284.878087 133.160727 
L 284.92785 143.633455 
L 285.043964 167.720727 
L 285.160078 116.404364 
L 285.209841 105.931636 
L 285.375718 181.335273 
L 285.425481 152.011636 
L 285.50842 164.578909 
L 285.591358 185.524364 
L 285.674297 184.477091 
L 285.757235 172.957091 
L 285.790411 188.666182 
L 285.840174 162.484364 
L 285.873349 119.546182 
L 285.923112 138.397091 
L 285.956288 168.768 
L 286.006051 154.106182 
L 286.039226 136.302545 
L 286.088989 154.106182 
L 286.171928 195.997091 
L 286.221691 176.098909 
L 286.30463 137.349818 
L 286.337805 148.869818 
L 286.387568 147.822545 
L 286.470507 99.648 
L 286.503682 122.688 
L 286.636384 175.051636 
L 286.669559 160.389818 
L 286.702735 169.815273 
L 286.752498 189.713455 
L 286.785673 183.429818 
L 286.852024 181.335273 
L 286.885199 186.571636 
L 286.968138 148.869818 
L 287.017901 133.160727 
L 287.051076 136.302545 
L 287.250129 178.193455 
L 287.299892 171.909818 
L 287.333067 157.248 
L 287.416006 158.295273 
L 287.498944 182.382545 
L 287.648234 95.458909 
L 287.681409 102.789818 
L 287.847286 187.618909 
L 288.129277 124.782545 
L 288.212216 168.768 
L 288.278566 165.626182 
L 288.311742 167.720727 
L 288.39468 187.618909 
L 288.477619 163.531636 
L 288.510794 172.957091 
L 288.676671 136.302545 
L 288.809373 168.768 
L 288.842548 138.397091 
L 288.892311 146.775273 
L 288.97525 172.957091 
L 289.058189 142.586182 
L 289.141127 149.917091 
L 289.273829 180.288 
L 289.356767 121.640727 
L 289.389943 124.782545 
L 289.506057 190.760727 
L 289.55582 189.713455 
L 289.638758 145.728 
L 289.688521 165.626182 
L 289.738284 178.193455 
L 289.77146 166.673455 
L 289.821223 145.728 
L 289.854398 81.844364 
L 289.904161 83.938909 
L 290.053451 185.524364 
L 290.103214 190.760727 
L 290.136389 164.578909 
L 290.186152 183.429818 
L 290.269091 202.280727 
L 290.368617 144.680727 
L 290.401793 160.389818 
L 290.451556 172.957091 
L 290.484731 165.626182 
L 290.683784 108.026182 
L 290.733547 126.877091 
L 290.816485 180.288 
L 290.849661 159.342545 
L 290.899424 148.869818 
L 290.932599 158.295273 
L 290.982362 160.389818 
L 291.015538 172.957091 
L 291.081888 162.484364 
L 291.148239 110.120727 
L 291.198002 149.917091 
L 291.280941 189.713455 
L 291.314116 183.429818 
L 291.363879 180.288 
L 291.529756 138.397091 
L 291.612695 171.909818 
L 291.679046 133.160727 
L 291.728809 156.200727 
L 291.761984 167.720727 
L 291.911274 113.262545 
L 291.944449 116.404364 
L 292.160089 175.051636 
L 292.22644 132.113455 
L 292.309379 142.586182 
L 292.392317 127.924364 
L 292.491843 165.626182 
L 292.541606 153.058909 
L 292.624545 137.349818 
L 292.65772 182.382545 
L 292.740659 160.389818 
L 292.823597 174.004364 
L 292.856773 169.815273 
L 292.906536 168.768 
L 292.989474 179.240727 
L 293.02265 152.011636 
L 293.072413 180.288 
L 293.105588 194.949818 
L 293.155351 188.666182 
L 293.254878 183.429818 
L 293.288053 169.815273 
L 293.321228 175.051636 
L 293.370992 189.713455 
L 293.404167 181.335273 
L 293.45393 162.484364 
L 293.487106 165.626182 
L 293.536869 175.051636 
L 293.570044 166.673455 
L 293.619807 133.160727 
L 293.652983 135.255273 
L 293.735921 168.768 
L 293.785684 152.011636 
L 293.918386 108.026182 
L 294.084263 209.611636 
L 294.167201 105.931636 
L 294.200377 148.869818 
L 294.25014 172.957091 
L 294.283315 170.862545 
L 294.333078 149.917091 
L 294.399429 203.328 
L 294.449192 172.957091 
L 294.482368 142.586182 
L 294.532131 168.768 
L 294.565306 189.713455 
L 294.664833 183.429818 
L 294.714596 172.957091 
L 294.747771 188.666182 
L 294.797534 184.477091 
L 294.880473 106.978909 
L 294.913648 148.869818 
L 295.079525 203.328 
L 295.112701 194.949818 
L 295.195639 106.978909 
L 295.245402 143.633455 
L 295.344928 188.666182 
L 295.378104 170.862545 
L 295.461042 132.113455 
L 295.494218 142.586182 
L 295.543981 143.633455 
L 295.626919 195.997091 
L 295.660095 194.949818 
L 295.743033 123.735273 
L 295.792796 170.862545 
L 295.90891 189.713455 
L 296.091375 147.822545 
L 296.207489 201.233455 
L 296.257252 194.949818 
L 296.373366 90.222545 
L 296.456305 133.160727 
L 296.506068 139.444364 
L 296.589006 203.328 
L 296.655357 171.909818 
L 296.70512 139.444364 
L 296.754883 156.200727 
L 296.887585 189.713455 
L 296.92076 178.193455 
L 297.086637 112.215273 
L 297.1364 136.302545 
L 297.335453 181.335273 
L 297.368628 181.335273 
L 297.418391 177.146182 
L 297.551093 197.044364 
L 297.600856 192.855273 
L 297.683795 106.978909 
L 297.71697 121.640727 
L 297.833084 164.578909 
L 297.882847 154.106182 
L 297.998961 194.949818 
L 298.0819 126.877091 
L 298.131663 159.342545 
L 298.181426 175.051636 
L 298.231189 170.862545 
L 298.29754 128.971636 
L 298.347303 146.775273 
L 298.380478 144.680727 
L 298.463417 83.938909 
L 298.629294 199.138909 
L 298.679057 197.044364 
L 298.861522 139.444364 
L 298.977636 188.666182 
L 299.143513 146.775273 
L 299.176688 147.822545 
L 299.226451 162.484364 
L 299.30939 75.560727 
L 299.342565 120.593455 
L 299.458679 195.997091 
L 299.508442 194.949818 
L 299.607968 80.797091 
L 299.641144 115.357091 
L 299.773845 202.280727 
L 299.856784 145.728 
L 299.889959 185.524364 
L 299.939722 185.524364 
L 300.006073 162.484364 
L 300.055836 168.768 
L 300.17195 189.713455 
L 300.32124 118.498909 
L 300.354415 145.728 
L 300.437354 182.382545 
L 300.487117 159.342545 
L 300.553467 123.735273 
L 300.719345 188.666182 
L 300.769108 187.618909 
L 300.934985 120.593455 
L 301.100862 200.186182 
L 301.150625 193.902545 
L 301.233563 134.208 
L 301.266739 150.964364 
L 301.39944 192.855273 
L 301.598493 111.168 
L 301.698019 164.578909 
L 301.731194 160.389818 
L 301.780958 157.248 
L 301.946835 133.160727 
L 302.029773 185.524364 
L 302.062949 152.011636 
L 302.112712 130.018909 
L 302.145887 153.058909 
L 302.19565 145.728 
L 302.228826 118.498909 
L 302.262001 133.160727 
L 302.41129 202.280727 
L 302.660106 100.695273 
L 302.809395 183.429818 
L 302.892334 168.768 
L 302.942097 143.633455 
L 302.975272 152.011636 
L 303.124562 212.753455 
L 303.2075 135.255273 
L 303.240676 142.586182 
L 303.356789 203.328 
L 303.406553 194.949818 
L 303.439728 189.713455 
L 303.522667 112.215273 
L 303.688544 225.320727 
L 303.771482 205.422545 
L 304.070061 121.640727 
L 304.119824 119.546182 
L 304.318876 184.477091 
L 304.368639 177.146182 
L 304.43499 135.255273 
L 304.484753 139.444364 
L 304.534516 144.680727 
L 304.58428 119.546182 
L 304.617455 122.688 
L 304.750157 200.186182 
L 304.783332 182.382545 
L 304.866271 152.011636 
L 304.916034 172.957091 
L 304.949209 189.713455 
L 305.032148 176.098909 
L 305.198025 204.375273 
L 305.463428 116.404364 
L 305.579542 181.335273 
L 305.66248 166.673455 
L 305.745419 154.106182 
L 305.861533 197.044364 
L 306.010822 105.931636 
L 306.126936 208.564364 
L 306.408927 138.397091 
L 306.491866 187.618909 
L 306.541629 179.240727 
L 306.624567 114.309818 
L 306.67433 163.531636 
L 306.757269 137.349818 
L 306.873383 184.477091 
L 306.923146 167.720727 
L 307.006084 91.269818 
L 307.03926 132.113455 
L 307.089023 160.389818 
L 307.122198 152.011636 
L 307.171961 118.498909 
L 307.205137 143.633455 
L 307.2549 201.233455 
L 307.288075 164.578909 
L 307.321251 139.444364 
L 307.420777 210.658909 
L 307.503716 98.600727 
L 307.553479 128.971636 
L 307.636417 189.713455 
L 307.669593 170.862545 
L 307.719356 170.862545 
L 307.752531 153.058909 
L 307.83547 222.178909 
L 307.868645 186.571636 
L 307.918408 130.018909 
L 307.951584 132.113455 
L 308.001347 191.808 
L 308.100873 187.618909 
L 308.134048 178.193455 
L 308.183811 183.429818 
L 308.299925 213.800727 
L 308.382864 160.389818 
L 308.465802 104.884364 
L 308.548741 214.848 
L 308.581916 200.186182 
L 308.631679 162.484364 
L 308.714618 180.288 
L 308.747793 177.146182 
L 308.930258 205.422545 
L 309.046372 97.553455 
L 309.129311 210.658909 
L 309.179074 205.422545 
L 309.295188 156.200727 
L 309.427889 215.895273 
L 309.477652 213.800727 
L 309.527415 199.138909 
L 309.593766 53.568 
L 309.643529 112.215273 
L 309.759643 210.658909 
L 310.058222 93.364364 
L 310.124573 190.760727 
L 310.190924 187.618909 
L 310.389976 122.688 
L 310.439739 127.924364 
L 310.605616 207.517091 
L 310.638792 217.989818 
L 310.72173 124.782545 
L 310.754906 143.633455 
L 310.93737 231.604364 
L 310.987133 232.651636 
L 311.070072 220.084364 
L 311.186186 149.917091 
L 311.269124 171.909818 
L 311.3023 161.437091 
L 311.352063 170.862545 
L 311.385238 163.531636 
L 311.435001 159.342545 
L 311.51794 210.658909 
L 311.551115 202.280727 
L 311.617466 203.328 
L 311.73358 184.477091 
L 311.766755 186.571636 
L 311.816519 176.098909 
L 311.899457 121.640727 
L 311.932633 145.728 
L 312.015571 189.713455 
L 312.065334 171.909818 
L 312.181448 138.397091 
L 312.330737 184.477091 
L 312.363913 172.957091 
L 312.562965 117.451636 
L 312.695667 204.375273 
L 312.811781 193.902545 
L 312.861544 197.044364 
L 312.977658 175.051636 
L 313.11036 198.091636 
L 313.160123 195.997091 
L 313.276237 106.978909 
L 313.326 158.295273 
L 313.408938 192.855273 
L 313.442114 182.382545 
L 313.558228 169.815273 
L 313.607991 177.146182 
L 313.690929 121.640727 
L 313.740692 79.749818 
L 313.790455 95.458909 
L 313.906569 162.484364 
L 313.989508 130.018909 
L 314.022683 115.357091 
L 314.155385 183.429818 
L 314.18856 168.768 
L 314.321262 110.120727 
L 314.354437 122.688 
L 314.503727 190.760727 
L 314.536902 190.760727 
L 314.619841 162.484364 
L 314.653016 166.673455 
L 314.735955 178.193455 
L 314.785718 182.382545 
L 314.818893 178.193455 
L 314.951595 78.702545 
L 314.98477 139.444364 
L 315.067709 168.768 
L 315.117472 160.389818 
L 315.283349 136.302545 
L 315.333112 132.113455 
L 315.366287 145.728 
L 315.449226 62.993455 
L 315.498989 101.742545 
L 315.581927 184.477091 
L 315.615103 175.051636 
L 315.664866 155.153455 
L 315.731217 171.909818 
L 315.880506 182.382545 
L 316.079559 169.815273 
L 316.162497 142.586182 
L 316.21226 162.484364 
L 316.245436 175.051636 
L 316.278611 170.862545 
L 316.494251 89.175273 
L 316.626953 162.484364 
L 316.676716 154.106182 
L 316.759654 99.648 
L 316.79283 142.586182 
L 316.908944 203.328 
L 316.958707 198.091636 
L 317.207522 96.506182 
L 317.389987 191.808 
L 317.456338 164.578909 
L 317.506101 183.429818 
L 317.539277 194.949818 
L 317.58904 193.902545 
L 317.671978 128.971636 
L 317.705154 95.458909 
L 317.754917 147.822545 
L 317.837855 186.571636 
L 317.871031 169.815273 
L 318.003732 73.466182 
L 318.053495 95.458909 
L 318.169609 194.949818 
L 318.219372 188.666182 
L 318.252548 188.666182 
L 318.302311 195.997091 
L 318.335486 187.618909 
L 318.468188 193.902545 
L 318.534539 161.437091 
L 318.617477 175.051636 
L 318.683828 182.382545 
L 318.717004 176.098909 
L 318.882881 150.964364 
L 318.965819 182.382545 
L 319.015582 160.389818 
L 319.081933 178.193455 
L 319.164872 149.917091 
L 319.214635 153.058909 
L 319.24781 170.862545 
L 319.330749 164.578909 
L 319.480038 113.262545 
L 319.513213 141.538909 
L 319.712266 214.848 
L 319.795204 181.335273 
L 319.878143 185.524364 
L 319.961081 180.288 
L 320.04402 198.091636 
L 320.110371 187.618909 
L 320.226485 136.302545 
L 320.25966 153.058909 
L 320.309423 146.775273 
L 320.392362 166.673455 
L 320.425537 155.153455 
L 320.508476 160.389818 
L 320.641177 105.931636 
L 320.674353 122.688 
L 320.757291 162.484364 
L 320.856817 157.248 
L 320.939756 125.829818 
L 320.972931 136.302545 
L 321.105633 205.422545 
L 321.138808 201.233455 
L 321.27151 150.964364 
L 321.420799 202.280727 
L 321.520326 125.829818 
L 321.570089 93.364364 
L 321.603264 142.586182 
L 321.769141 195.997091 
L 321.85208 101.742545 
L 321.901843 105.931636 
L 321.968194 204.375273 
L 322.051132 185.524364 
L 322.134071 122.688 
L 322.316535 193.902545 
L 322.366298 202.280727 
L 322.515588 143.633455 
L 322.598526 184.477091 
L 322.681465 183.429818 
L 322.764403 161.437091 
L 322.814166 169.815273 
L 322.897105 186.571636 
L 322.996631 145.728 
L 323.029807 165.626182 
L 323.112745 190.760727 
L 323.145921 184.477091 
L 323.228859 122.688 
L 323.278622 135.255273 
L 323.394736 191.808 
L 323.444499 182.382545 
L 323.527438 130.018909 
L 323.560613 139.444364 
L 323.660139 203.328 
L 323.693315 187.618909 
L 323.826016 164.578909 
L 323.908955 177.146182 
L 323.94213 166.673455 
L 324.15777 187.618909 
L 324.273884 146.775273 
L 324.30706 170.862545 
L 324.406586 180.288 
L 324.456349 157.248 
L 324.489525 158.295273 
L 324.539288 176.098909 
L 324.572463 162.484364 
L 324.655402 159.342545 
L 324.73834 72.418909 
L 324.788103 101.742545 
L 324.854454 182.382545 
L 324.904217 176.098909 
L 324.987156 161.437091 
L 325.020331 167.720727 
L 325.086682 171.909818 
L 325.202796 205.422545 
L 325.285734 189.713455 
L 325.368673 193.902545 
L 325.418436 197.044364 
L 325.451611 193.902545 
L 325.484787 193.902545 
L 325.700427 141.538909 
L 325.733602 111.168 
L 325.799953 113.262545 
L 325.96583 183.429818 
L 325.999006 203.328 
L 326.032181 193.902545 
L 326.164883 139.444364 
L 326.198058 149.917091 
L 326.280997 182.382545 
L 326.33076 168.768 
L 326.413698 89.175273 
L 326.463461 122.688 
L 326.513224 170.862545 
L 326.579575 159.342545 
L 326.662514 190.760727 
L 326.745452 176.098909 
L 326.795215 170.862545 
L 326.828391 182.382545 
L 326.878154 180.288 
L 326.961092 136.302545 
L 326.994268 160.389818 
L 327.077206 187.618909 
L 327.110382 185.524364 
L 327.176733 188.666182 
L 327.292847 202.280727 
L 327.508487 98.600727 
L 327.541662 108.026182 
L 327.707539 175.051636 
L 327.740715 172.957091 
L 327.823653 109.073455 
L 327.890004 154.106182 
L 327.972942 197.044364 
L 328.006118 171.909818 
L 328.089056 93.364364 
L 328.221758 199.138909 
L 328.254933 185.524364 
L 328.304697 162.484364 
L 328.337872 179.240727 
L 328.42081 176.098909 
L 328.503749 200.186182 
L 328.603275 206.469818 
L 328.852091 158.295273 
L 328.918442 162.484364 
L 329.00138 130.018909 
L 329.167257 186.571636 
L 329.21702 181.335273 
L 329.316546 60.898909 
L 329.349722 65.088 
L 329.465836 207.517091 
L 329.515599 205.422545 
L 329.548774 198.091636 
L 329.598537 207.517091 
L 329.681476 213.800727 
L 329.930292 162.484364 
L 329.963467 181.335273 
L 330.01323 161.437091 
L 330.096169 72.418909 
L 330.262046 205.422545 
L 330.344984 191.808 
L 330.477686 123.735273 
L 330.5938 211.706182 
L 330.626975 195.997091 
L 330.676738 191.808 
L 330.726501 200.186182 
L 330.80944 132.113455 
L 330.859203 142.586182 
L 330.942141 191.808 
L 330.975317 184.477091 
L 331.058255 150.964364 
L 331.091431 164.578909 
L 331.141194 164.578909 
L 331.257308 201.233455 
L 331.390009 184.477091 
L 331.439773 191.808 
L 331.489536 186.571636 
L 331.572474 190.760727 
L 331.60565 178.193455 
L 331.655413 124.782545 
L 331.721764 149.917091 
L 331.771527 147.822545 
L 331.854465 112.215273 
L 331.887641 142.586182 
L 331.970579 200.186182 
L 332.020342 171.909818 
L 332.053518 157.248 
L 332.103281 184.477091 
L 332.153044 170.862545 
L 332.235982 150.964364 
L 332.352096 213.800727 
L 332.600912 154.106182 
L 332.766789 202.280727 
L 332.982429 146.775273 
L 333.065368 167.720727 
L 333.148306 176.098909 
L 333.231245 122.688 
L 333.363946 198.091636 
L 333.430297 187.618909 
L 333.579586 155.153455 
L 333.612762 171.909818 
L 333.662525 181.335273 
L 333.6957 167.720727 
L 333.745463 161.437091 
L 333.778639 183.429818 
L 333.828402 143.633455 
L 333.861577 73.466182 
L 333.911341 79.749818 
L 334.06063 205.422545 
L 334.143568 199.138909 
L 334.226507 187.618909 
L 334.326033 132.113455 
L 334.408972 155.153455 
L 334.458735 162.484364 
L 334.525086 192.855273 
L 334.574849 171.909818 
L 334.608024 169.815273 
L 334.657787 174.004364 
L 334.690963 171.909818 
L 334.773901 145.728 
L 334.823664 170.862545 
L 334.906603 59.851636 
L 334.956366 97.553455 
L 335.122243 212.753455 
L 335.205181 192.855273 
L 335.238357 201.233455 
L 335.321295 157.248 
L 335.371058 168.768 
L 335.404234 188.666182 
L 335.487172 182.382545 
L 335.570111 145.728 
L 335.619874 156.200727 
L 335.669637 183.429818 
L 335.702813 157.248 
L 335.752576 148.869818 
L 335.835514 204.375273 
L 335.918453 194.949818 
L 336.08433 170.862545 
L 336.167268 187.618909 
L 336.283382 112.215273 
L 336.316558 132.113455 
L 336.465847 200.186182 
L 336.499022 199.138909 
L 336.631724 163.531636 
L 336.664899 181.335273 
L 336.747838 187.618909 
L 336.996653 149.917091 
L 337.09618 194.949818 
L 337.129355 187.618909 
L 337.212294 124.782545 
L 337.262057 149.917091 
L 337.411346 209.611636 
L 337.494285 191.808 
L 337.577223 199.138909 
L 337.626986 199.138909 
L 337.7431 164.578909 
L 337.892389 186.571636 
L 337.925565 171.909818 
L 338.091442 125.829818 
L 338.207556 191.808 
L 338.257319 189.713455 
L 338.340258 171.909818 
L 338.373433 187.618909 
L 338.423196 176.098909 
L 338.522722 56.709818 
L 338.555898 89.175273 
L 338.672012 209.611636 
L 338.721775 208.564364 
L 338.804713 198.091636 
L 338.920827 214.848 
L 338.97059 208.564364 
L 339.11988 122.688 
L 339.169643 135.255273 
L 339.219406 135.255273 
L 339.302344 192.855273 
L 339.352107 152.011636 
L 339.385283 99.648 
L 339.435046 121.640727 
L 339.468221 188.666182 
L 339.55116 161.437091 
L 339.600923 166.673455 
L 339.634098 188.666182 
L 339.667274 162.484364 
L 339.717037 118.498909 
L 339.750212 130.018909 
L 339.833151 172.957091 
L 339.882914 150.964364 
L 339.932677 153.058909 
L 339.98244 160.389818 
L 340.065379 139.444364 
L 340.264431 200.186182 
L 340.297607 213.800727 
L 340.380545 206.469818 
L 340.463484 146.775273 
L 340.513247 159.342545 
L 340.645948 225.320727 
L 340.695711 225.320727 
L 340.977702 189.713455 
L 341.093816 206.469818 
L 341.14358 205.422545 
L 341.292869 138.397091 
L 341.35922 104.884364 
L 341.392395 136.302545 
L 341.558272 192.855273 
L 341.641211 136.302545 
L 341.690974 164.578909 
L 341.724149 198.091636 
L 341.773912 185.524364 
L 341.840263 155.153455 
L 341.890026 157.248 
L 342.00614 204.375273 
L 342.155429 209.611636 
L 342.238368 205.422545 
L 342.354482 119.546182 
L 342.387657 168.768 
L 342.470596 198.091636 
L 342.520359 197.044364 
L 342.686236 114.309818 
L 342.719411 138.397091 
L 342.935052 200.186182 
L 343.067753 70.324364 
L 343.100929 155.153455 
L 343.183867 188.666182 
L 343.23363 179.240727 
L 343.266806 159.342545 
L 343.316569 164.578909 
L 343.399507 197.044364 
L 343.44927 191.808 
L 343.532209 153.058909 
L 343.565384 180.288 
L 343.698086 213.800727 
L 343.781024 169.815273 
L 343.8142 171.909818 
L 343.863963 187.618909 
L 343.897138 168.768 
L 343.980077 93.364364 
L 344.013252 120.593455 
L 344.096191 148.869818 
L 344.162542 136.302545 
L 344.195717 121.640727 
L 344.278656 189.713455 
L 344.328419 169.815273 
L 344.411357 141.538909 
L 344.444533 123.735273 
L 344.577234 223.226182 
L 344.61041 211.706182 
L 344.693348 101.742545 
L 344.726524 159.342545 
L 344.908988 226.368 
L 344.991927 221.131636 
L 345.074865 210.658909 
L 345.124629 215.895273 
L 345.273918 209.611636 
L 345.356856 156.200727 
L 345.406619 122.688 
L 345.439795 143.633455 
L 345.589084 186.571636 
L 345.672023 187.618909 
L 345.821312 171.909818 
L 345.871075 184.477091 
L 345.904251 175.051636 
L 345.954014 167.720727 
L 345.987189 171.909818 
L 346.036952 180.288 
L 346.070128 168.768 
L 346.119891 135.255273 
L 346.153066 159.342545 
L 346.236005 203.328 
L 346.285768 180.288 
L 346.368706 132.113455 
L 346.501408 193.902545 
L 346.534583 187.618909 
L 346.584346 183.429818 
L 346.70046 133.160727 
L 346.816574 193.902545 
L 346.899513 130.018909 
L 346.949276 149.917091 
L 347.081978 212.753455 
L 347.131741 206.469818 
L 347.214679 169.815273 
L 347.247855 136.302545 
L 347.297618 165.626182 
L 347.413732 210.658909 
L 347.71231 172.957091 
L 347.795249 91.269818 
L 347.845012 133.160727 
L 347.994301 200.186182 
L 348.044064 198.091636 
L 348.160178 142.586182 
L 348.29288 199.138909 
L 348.326055 192.855273 
L 348.458757 137.349818 
L 348.541696 181.335273 
L 348.591459 176.098909 
L 348.674397 128.971636 
L 348.707573 138.397091 
L 348.840274 191.808 
L 348.87345 181.335273 
L 348.956388 144.680727 
L 349.039327 156.200727 
L 349.072502 166.673455 
L 349.138853 148.869818 
L 349.172028 160.389818 
L 349.254967 193.902545 
L 349.30473 178.193455 
L 349.337905 157.248 
L 349.387668 164.578909 
L 349.553546 200.186182 
L 349.586721 200.186182 
L 349.702835 166.673455 
L 349.852124 197.044364 
L 349.968238 86.033455 
L 350.018001 106.978909 
L 350.134115 186.571636 
L 350.167291 168.768 
L 350.217054 146.775273 
L 350.250229 149.917091 
L 350.382931 187.618909 
L 350.416106 171.909818 
L 350.499045 148.869818 
L 350.565395 158.295273 
L 350.681509 180.288 
L 350.797623 133.160727 
L 350.9635 166.673455 
L 351.013263 176.098909 
L 351.046439 166.673455 
L 351.096202 163.531636 
L 351.179141 187.618909 
L 351.212316 179.240727 
L 351.311842 83.938909 
L 351.345018 114.309818 
L 351.394781 174.004364 
L 351.477719 146.775273 
L 351.510895 140.491636 
L 351.643596 209.611636 
L 351.676772 200.186182 
L 351.75971 148.869818 
L 351.792886 175.051636 
L 351.942175 219.037091 
L 352.108052 174.004364 
L 352.141227 179.240727 
L 352.224166 193.902545 
L 352.390043 143.633455 
L 352.423218 146.775273 
L 352.506157 186.571636 
L 352.55592 178.193455 
L 352.688622 193.902545 
L 352.738385 190.760727 
L 352.821323 152.011636 
L 352.854499 155.153455 
L 352.937437 192.855273 
L 352.970613 187.618909 
L 353.020376 183.429818 
L 353.053551 189.713455 
L 353.13649 191.808 
L 353.186253 190.760727 
L 353.302367 168.768 
L 353.484831 195.997091 
L 353.518007 194.949818 
L 353.600945 191.808 
L 353.650708 183.429818 
L 353.683884 155.153455 
L 353.766822 170.862545 
L 353.899524 184.477091 
L 353.932699 189.713455 
L 353.965875 186.571636 
L 354.065401 137.349818 
L 354.14834 159.342545 
L 354.198103 154.106182 
L 354.231278 136.302545 
L 354.281041 153.058909 
L 354.480094 192.855273 
L 354.596208 172.957091 
L 354.679146 126.877091 
L 354.861611 204.375273 
L 354.911374 203.328 
L 355.060663 180.288 
L 355.276303 134.208 
L 355.392417 177.146182 
L 355.44218 174.004364 
L 355.541707 112.215273 
L 355.574882 125.829818 
L 355.657821 174.004364 
L 355.690996 170.862545 
L 355.906636 189.713455 
L 356.02275 183.429818 
L 356.072513 179.240727 
L 356.23839 141.538909 
L 356.288153 135.255273 
L 356.321329 142.586182 
L 356.404267 143.633455 
L 356.536969 184.477091 
L 356.570144 177.146182 
L 356.653083 127.924364 
L 356.736021 153.058909 
L 356.769197 165.626182 
L 356.852135 164.578909 
L 356.918486 174.004364 
L 356.951662 170.862545 
L 357.0346 116.404364 
L 357.084363 124.782545 
L 357.25024 187.618909 
L 357.366354 95.458909 
L 357.482468 190.760727 
L 357.532231 198.091636 
L 357.565407 189.713455 
L 357.664933 168.768 
L 357.714696 170.862545 
L 357.747871 170.862545 
L 357.797634 159.342545 
L 357.83081 124.782545 
L 357.863985 127.924364 
L 357.996687 188.666182 
L 358.029862 185.524364 
L 358.162564 124.782545 
L 358.195739 114.309818 
L 358.245502 133.160727 
L 358.378204 190.760727 
L 358.427967 190.760727 
L 358.544081 144.680727 
L 358.577257 149.917091 
L 358.709958 190.760727 
L 358.743134 185.524364 
L 358.792897 185.524364 
L 358.826072 182.382545 
L 358.909011 121.640727 
L 358.958774 127.924364 
L 359.091475 197.044364 
L 359.124651 195.997091 
L 359.340291 176.098909 
L 359.373466 178.193455 
L 359.456405 182.382545 
L 359.622282 142.586182 
L 359.655457 106.978909 
L 359.70522 111.168 
L 359.804747 155.153455 
L 359.837922 144.680727 
L 359.920861 102.789818 
L 360.086738 182.382545 
L 360.119913 180.288 
L 360.202852 186.571636 
L 360.28579 174.004364 
L 360.368729 111.168 
L 360.435079 131.066182 
L 360.468255 172.957091 
L 360.551193 157.248 
L 360.634132 181.335273 
L 360.667307 179.240727 
L 360.833184 81.844364 
L 360.882947 138.397091 
L 360.965886 195.997091 
L 360.999061 193.902545 
L 361.231289 228.462545 
L 361.264465 227.415273 
L 361.347403 214.848 
L 361.430342 193.902545 
L 361.51328 221.131636 
L 361.546456 217.989818 
L 361.629394 207.517091 
L 361.762096 165.626182 
L 361.795271 181.335273 
L 361.828447 183.429818 
L 361.977736 138.397091 
L 362.010911 157.248 
L 362.09385 183.429818 
L 362.143613 182.382545 
L 362.176788 177.146182 
L 362.259727 179.240727 
L 362.30949 180.288 
L 362.425604 200.186182 
L 362.458779 197.044364 
L 362.608069 172.957091 
L 362.641244 179.240727 
L 362.807121 201.233455 
L 362.856884 203.328 
L 362.89006 210.658909 
L 363.089112 156.200727 
L 363.138875 165.626182 
L 363.271577 189.713455 
L 363.404278 184.477091 
L 363.437454 185.524364 
L 363.520392 182.382545 
L 363.636506 164.578909 
L 363.686269 167.720727 
L 363.852146 172.957091 
L 363.984848 170.862545 
L 364.034611 170.862545 
L 364.150725 171.909818 
L 364.233664 171.909818 
L 364.349778 159.342545 
L 364.432716 153.058909 
L 364.482479 154.106182 
L 364.565418 155.153455 
L 364.698119 136.302545 
L 364.814233 154.106182 
L 364.863996 154.106182 
L 365.112812 143.633455 
L 366.058311 90.222545 
L 366.323714 87.080727 
L 366.373478 87.080727 
L 366.522767 89.175273 
L 366.605705 89.175273 
L 367.202863 103.837091 
L 367.451678 114.309818 
L 367.700494 123.735273 
L 367.999073 132.113455 
L 368.496704 144.680727 
L 368.579642 144.680727 
L 368.961159 150.964364 
L 369.010922 150.964364 
L 369.24315 155.153455 
L 369.541729 163.531636 
L 369.873483 170.862545 
L 370.089123 174.004364 
L 370.172062 172.957091 
L 370.288176 175.051636 
L 370.387702 175.051636 
L 370.553579 177.146182 
L 370.586754 177.146182 
L 370.752631 179.240727 
L 370.885333 179.240727 
L 371.05121 181.335273 
L 371.100973 181.335273 
L 371.217087 182.382545 
L 371.382964 182.382545 
L 371.582017 184.477091 
L 371.714718 184.477091 
L 371.930358 187.618909 
L 372.013297 187.618909 
L 372.129411 188.666182 
L 372.179174 188.666182 
L 372.295288 189.713455 
L 373.473015 189.713455 
L 373.605717 190.760727 
L 373.904295 190.760727 
L 374.020409 191.808 
L 374.468277 191.808 
L 374.51804 192.855273 
L 374.551216 191.808 
L 375.231312 191.808 
L 375.364013 192.855273 
L 375.397189 192.855273 
L 375.52989 191.808 
L 375.977758 191.808 
L 376.077284 190.760727 
L 376.243161 192.855273 
L 376.359275 191.808 
L 376.409039 191.808 
L 376.475389 192.855273 
L 376.608091 191.808 
L 376.740793 191.808 
L 376.823731 189.713455 
L 376.873494 190.760727 
L 376.90667 190.760727 
L 377.022784 191.808 
L 377.072547 190.760727 
L 377.105722 191.808 
L 377.537002 191.808 
L 377.702879 188.666182 
L 377.868756 190.760727 
L 377.901932 190.760727 
L 378.034634 191.808 
L 378.067809 191.808 
L 378.200511 192.855273 
L 378.416151 192.855273 
L 378.449326 191.808 
L 378.499089 192.855273 
L 378.880606 192.855273 
L 379.046483 190.760727 
L 379.162597 190.760727 
L 379.212361 189.713455 
L 379.245536 190.760727 
L 379.544115 190.760727 
L 379.676816 191.808 
L 379.759755 191.808 
L 379.875869 189.713455 
L 379.991983 190.760727 
L 380.15786 190.760727 
L 380.307149 191.808 
L 380.423263 191.808 
L 380.58914 189.713455 
L 380.871131 189.713455 
L 381.003833 190.760727 
L 381.053596 190.760727 
L 381.219473 188.666182 
L 381.683928 188.666182 
L 381.800042 189.713455 
L 381.965919 187.618909 
L 382.015683 187.618909 
L 382.131796 188.666182 
L 382.330849 188.666182 
L 382.3972 189.713455 
L 382.430375 188.666182 
L 382.480138 188.666182 
L 382.563077 187.618909 
L 382.679191 188.666182 
L 382.762129 188.666182 
L 382.878243 189.713455 
L 383.110471 189.713455 
L 383.226585 188.666182 
L 383.707628 188.666182 
L 383.856918 187.618909 
L 383.939856 187.618909 
L 383.973032 186.571636 
L 384.022795 187.618909 
L 384.221847 187.618909 
L 384.337961 186.571636 
L 384.4209 186.571636 
L 384.470663 187.618909 
L 384.520426 186.571636 
L 384.686303 186.571636 
L 384.819005 185.524364 
L 384.85218 186.571636 
L 384.885355 185.524364 
L 384.935118 185.524364 
L 385.051232 186.571636 
L 385.233697 186.571636 
L 385.366399 185.524364 
L 385.482513 185.524364 
L 385.598627 186.571636 
L 385.681565 186.571636 
L 385.814267 187.618909 
L 386.029907 187.618909 
L 386.063082 186.571636 
L 386.112845 187.618909 
L 386.361661 187.618909 
L 386.4446 186.571636 
L 386.477775 187.618909 
L 386.527538 186.571636 
L 386.66024 186.571636 
L 386.776354 185.524364 
L 386.991994 185.524364 
L 387.074932 186.571636 
L 387.191046 185.524364 
L 387.771616 185.524364 
L 387.904317 184.477091 
L 388.401949 184.477091 
L 388.53465 183.429818 
L 388.567826 184.477091 
L 388.617589 183.429818 
L 388.999106 183.429818 
L 389.11522 182.382545 
L 390.027544 182.382545 
L 390.110482 183.429818 
L 390.259771 182.382545 
L 390.541762 182.382545 
L 390.657876 183.429818 
L 390.92328 183.429818 
L 390.973043 182.382545 
L 391.006218 183.429818 
L 391.454086 183.429818 
L 391.603376 182.382545 
L 392.00148 182.382545 
L 392.051244 181.335273 
L 392.084419 182.382545 
L 392.134182 182.382545 
L 392.250296 181.335273 
L 392.598638 181.335273 
L 392.714752 180.288 
L 393.063093 180.288 
L 393.179207 179.240727 
L 393.228971 179.240727 
L 393.345084 178.193455 
L 393.477786 178.193455 
L 393.5939 177.146182 
L 394.058356 177.146182 
L 394.224233 175.051636 
L 394.638925 175.051636 
L 394.771627 176.098909 
L 394.804802 176.098909 
L 394.937504 175.051636 
L 395.020443 175.051636 
L 395.153144 176.098909 
L 395.269258 175.051636 
L 395.319021 176.098909 
L 395.352197 175.051636 
L 396.148406 175.051636 
L 396.314283 172.957091 
L 396.430397 174.004364 
L 397.243195 174.004364 
L 397.375897 172.957091 
L 397.49201 172.957091 
L 397.608124 174.004364 
L 397.691063 174.004364 
L 397.740826 175.051636 
L 397.774001 174.004364 
L 398.07258 174.004364 
L 398.205282 172.957091 
L 398.487273 172.957091 
L 398.487273 172.957091 
" clip-path="url(#p951ed8c6b9)" style="fill: none; stroke: #1f77b4; stroke-width: 1.5; stroke-linecap: square"/>
   </g>
   <g id="patch_3">
    <path d="M 57.6 307.584 
L 57.6 41.472 
" style="fill: none; stroke: #000000; stroke-width: 0.8; stroke-linejoin: miter; stroke-linecap: square"/>
   </g>
   <g id="patch_4">
    <path d="M 414.72 307.584 
L 414.72 41.472 
" style="fill: none; stroke: #000000; stroke-width: 0.8; stroke-linejoin: miter; stroke-linecap: square"/>
   </g>
   <g id="patch_5">
    <path d="M 57.6 307.584 
L 414.72 307.584 
" style="fill: none; stroke: #000000; stroke-width: 0.8; stroke-linejoin: miter; stroke-linecap: square"/>
   </g>
   <g id="patch_6">
    <path d="M 57.6 41.472 
L 414.72 41.472 
" style="fill: none; stroke: #000000; stroke-width: 0.8; stroke-linejoin: miter; stroke-linecap: square"/>
   </g>
  </g>
 </g>
 <defs>
  <clipPath id="p951ed8c6b9">
   <rect x="57.6" y="41.472" width="357.12" height="266.112"/>
  </clipPath>
 </defs>
</svg>
